<svg xmlns="http://www.w3.org/2000/svg" xmlns:xlink="http://www.w3.org/1999/xlink" width="602.777" height="293.294" viewBox="0 0 602.777 293.294"><defs><style>.cls-1{fill:#ffaa02;}.cls-2{fill:#fff;}.cls-3{fill:#2a87ce;}.cls-4{fill:#f0f5fa;}.cls-12,.cls-5{fill:#cbcbcb;}.cls-6{font-size:16px;fill:#575756;font-family:OpenSans, Open Sans;}.cls-11,.cls-13,.cls-14,.cls-15,.cls-16,.cls-17,.cls-18,.cls-23,.cls-24,.cls-25,.cls-27,.cls-7,.cls-8,.cls-9{fill:#6f6f6e;}.cls-7{letter-spacing:0.1em;}.cls-8{letter-spacing:-0.05em;}.cls-9{letter-spacing:0.075em;}.cls-10,.cls-21,.cls-22{fill:#737373;}.cls-10,.cls-21{font-size:14px;}.cls-12,.cls-18,.cls-22{font-family:ArialMT, Arial;}.cls-13{letter-spacing:0.05em;}.cls-14{letter-spacing:0.1em;}.cls-15{letter-spacing:0.01em;}.cls-16{letter-spacing:0.025em;}.cls-17{letter-spacing:-0.01em;}.cls-18,.cls-22{font-size:18px;}.cls-19{fill:url(#linear-gradient);}.cls-20{fill:#1d1d1b;}.cls-21{letter-spacing:-0.1em;}.cls-23{letter-spacing:-0.1em;}.cls-24{letter-spacing:-0.075em;}.cls-25{letter-spacing:0.01em;}.cls-26{fill:#000;}.cls-27{letter-spacing:0.05em;}.cls-28{fill:url(#linear-gradient-2);}.cls-29{font-size:12px;fill:#89b61f;font-family:MyriadPro-Regular, Myriad Pro;}.cls-30{letter-spacing:0.021em;}.cls-31{letter-spacing:0.003em;}.cls-32{letter-spacing:-0.003em;}.cls-33{letter-spacing:0.004em;}.cls-34{letter-spacing:-0.007em;}.cls-35{letter-spacing:0em;}.cls-36{letter-spacing:0.016em;}.cls-37{letter-spacing:-0.007em;}.cls-38{letter-spacing:0em;}.cls-39{letter-spacing:0.017em;}.cls-40{letter-spacing:0.007em;}.cls-41{letter-spacing:-0.006em;}</style><linearGradient id="linear-gradient" x1="352.907" y1="168.15" x2="388.459" y2="188.676" gradientUnits="userSpaceOnUse"><stop offset="0.283" stop-color="#fff"/><stop offset="0.569" stop-color="#f5f5f5"/><stop offset="0.997" stop-color="#dedede"/></linearGradient><linearGradient id="linear-gradient-2" x1="475.684" y1="263.312" x2="511.237" y2="283.838" gradientUnits="userSpaceOnUse"><stop offset="0.283" stop-color="#fff"/><stop offset="0.575" stop-color="#f5f5f5"/><stop offset="0.997" stop-color="#dfdfdf"/></linearGradient></defs><title>__LISTALKA-str</title><g id="Layer_2" data-name="Layer 2"><g id="Layer_1-2" data-name="Layer 1"><rect class="cls-1" x="158" y="121.132" width="40" height="40"/><rect class="cls-2" x="203.5" y="121.632" width="39" height="39"/><path class="cls-2" d="M242,122.132v38H204v-38h38m1-1H203v40h40v-40Z"/><rect class="cls-2" x="248.5" y="121.632" width="39" height="39"/><path class="cls-2" d="M287,122.132v38H249v-38h38m1-1H248v40h40v-40Z"/><rect class="cls-2" x="293.5" y="121.632" width="39" height="39"/><path class="cls-2" d="M332,122.132v38H294v-38h38m1-1H293v40h40v-40Z"/><rect class="cls-2" x="338.5" y="121.632" width="39" height="39"/><path class="cls-3" d="M377,122.132v38H339v-38h38m1-1H338v40h40v-40Z"/><rect class="cls-2" x="383.5" y="121.632" width="39" height="39"/><path class="cls-2" d="M422,122.132v38H384v-38h38m1-1H383v40h40v-40Z"/><rect class="cls-2" x="428.5" y="121.632" width="39" height="39"/><path class="cls-2" d="M467,122.132v38H429v-38h38m1-1H428v40h40v-40Z"/><rect class="cls-2" x="473.5" y="121.632" width="39" height="39"/><path class="cls-2" d="M512,122.132v38H474v-38h38m1-1H473v40h40v-40Z"/><rect class="cls-4" x="113.5" y="121.632" width="39" height="39"/><path class="cls-5" d="M152,122.132v38H114v-38h38m1-1H113v40h40v-40Z"/><text class="cls-6" transform="translate(16 147.936)">Страницы:<tspan class="cls-7" x="83.141" y="0"> </tspan><tspan class="cls-8" x="88.896" y="0"> </tspan><tspan class="cls-9" x="92.253" y="0"> </tspan><tspan class="cls-8" x="97.609" y="0"> </tspan><tspan class="cls-10" x="100.966" y="0"> </tspan><tspan class="cls-11" x="104.603" y="0"> </tspan><tspan class="cls-12" x="108.759" y="0">—</tspan><tspan class="cls-11" x="124.759" y="0" xml:space="preserve">  </tspan><tspan class="cls-9" x="133.071" y="0"> </tspan><tspan class="cls-7" x="138.428" y="0"> </tspan><tspan class="cls-13" x="144.184" y="0"> </tspan><tspan class="cls-11" x="149.14" y="0" xml:space="preserve">  </tspan><tspan class="cls-2" x="157.452" y="0">1</tspan><tspan class="cls-11" x="166.601" y="0" xml:space="preserve">   </tspan><tspan class="cls-14" x="179.069" y="0"> </tspan><tspan class="cls-11" x="184.826" y="0"> </tspan><tspan class="cls-13" x="188.982" y="0"> </tspan><tspan class="cls-15" x="193.938" y="0"> </tspan><tspan class="cls-11" x="198.255" y="0" xml:space="preserve"> 2   </tspan><tspan class="cls-7" x="224.028" y="0"> </tspan><tspan class="cls-9" x="229.784" y="0"> </tspan><tspan class="cls-11" x="235.141" y="0" xml:space="preserve">   3   </tspan><tspan class="cls-7" x="269.227" y="0"> </tspan><tspan class="cls-11" x="274.982" y="0" xml:space="preserve">    4  </tspan><tspan class="cls-13" x="309.068" y="0"> </tspan><tspan class="cls-14" x="314.024" y="0"> </tspan><tspan class="cls-13" x="319.781" y="0"> </tspan><tspan class="cls-11" x="324.737" y="0" xml:space="preserve">   </tspan><tspan class="cls-3" x="337.206" y="0">5</tspan><tspan class="cls-11" x="346.354" y="0" xml:space="preserve">   </tspan><tspan class="cls-7" x="358.823" y="0"> </tspan><tspan class="cls-11" x="364.579" y="0"> </tspan><tspan class="cls-16" x="368.735" y="0"> </tspan><tspan class="cls-11" x="373.292" y="0" xml:space="preserve">  ...   </tspan><tspan class="cls-17" x="406.847" y="0"> </tspan><tspan class="cls-8" x="410.843" y="0"> </tspan><tspan class="cls-11" x="414.199" y="0" xml:space="preserve"> 135  </tspan><tspan class="cls-7" x="454.113" y="0"> </tspan><tspan class="cls-11" x="459.869" y="0" xml:space="preserve">  </tspan><tspan class="cls-18" x="468.182" y="0">→</tspan></text><polygon class="cls-19" points="385 171.132 385 169.132 383 169.132 383 167.132 379 167.132 379 165.132 373 165.132 373 163.132 369 163.132 369 154.132 367 154.132 367 152.132 363 152.132 363 154.132 361 154.132 361 171.132 359 171.132 359 169.132 354 169.132 354 169.132 353 169.132 353 176.132 354 176.132 354 178.132 355 178.132 355 180.132 356 180.132 356 182.132 357 182.132 357 184.132 358 184.132 358 186.132 359 186.132 359 188.132 360 188.132 360 190.132 361 190.132 361 193.132 362 193.132 362 193.132 363 193.132 363 198.132 383 198.132 383 191.132 385 191.132 385 185.132 387 185.132 387 171.132 385 171.132"/><path class="cls-20" d="M381,175.132v-6h2v-2h-4v8Zm-12-3v-7h4v-2h-4v-9h-2v18Zm6,1v-6h4v-2h-6v8Zm-8-21h-4v2h4Zm18,18.9v-1.9h-2v1.9Zm-2,20.1h2v-6h-2Zm-22-18v4h2v-23h-2v17h-2v2Zm24-2v14h2v-14Zm-4,25H365v-5h-2v-2h-1v-2h-1v-2h-1v-2h-1v-2h-1v-2h-1v-2h-1v-2h-1v-4h4v-2h-6v7h1v2h1v2h1v2h1v2h1v2h1v2h1v2h1v3h2v5h20v-7h-2Z"/><rect class="cls-2" x="142.5" y="28.632" width="39" height="39"/><path class="cls-2" d="M181,29.132v38H143v-38h38m1-1H142v40h40v-40Z"/><rect class="cls-2" x="187.5" y="28.632" width="39" height="39"/><path class="cls-2" d="M226,29.132v38H188v-38h38m1-1H187v40h40v-40Z"/><rect class="cls-2" x="232.5" y="28.632" width="39" height="39"/><path class="cls-2" d="M271,29.132v38H233v-38h38m1-1H232v40h40v-40Z"/><rect class="cls-2" x="277.5" y="28.632" width="39" height="39"/><path class="cls-2" d="M316,29.132v38H278v-38h38m1-1H277v40h40v-40Z"/><rect class="cls-1" x="322" y="28.132" width="40" height="40"/><rect class="cls-2" x="367.5" y="28.632" width="39" height="39"/><path class="cls-2" d="M406,29.132v38H368v-38h38m1-1H367v40h40v-40Z"/><rect class="cls-2" x="412.5" y="28.632" width="39" height="39"/><path class="cls-2" d="M451,29.132v38H413v-38h38m1-1H412v40h40v-40Z"/><rect class="cls-2" x="457.5" y="28.632" width="39" height="39"/><path class="cls-2" d="M496,29.132v38H458v-38h38m1-1H457v40h40v-40Z"/><rect class="cls-2" x="502.5" y="28.632" width="39" height="39"/><path class="cls-2" d="M541,29.132v38H503v-38h38m1-1H502v40h40v-40Z"/><rect class="cls-2" x="547.5" y="28.632" width="39" height="39"/><path class="cls-2" d="M586,29.132v38H548v-38h38m1-1H547v40h40v-40Z"/><rect class="cls-2" x="97.5" y="28.632" width="39" height="39"/><path class="cls-2" d="M136,29.132v38H98v-38h38m1-1H97v40h40v-40Z"/><text class="cls-6" transform="translate(0 54.936)">Страницы:<tspan class="cls-7" x="83.141" y="0"> </tspan><tspan class="cls-8" x="88.896" y="0"> </tspan><tspan class="cls-9" x="92.253" y="0"> </tspan><tspan class="cls-8" x="97.609" y="0"> </tspan><tspan class="cls-21" x="100.966" y="0"> </tspan><tspan class="cls-11" x="103.202" y="0"> </tspan><tspan class="cls-22" x="107.358" y="-1">←</tspan><tspan class="cls-11" x="125.358" y="0" xml:space="preserve">  </tspan><tspan class="cls-23" x="133.671" y="0" xml:space="preserve">  </tspan><tspan class="cls-8" x="138.783" y="0" xml:space="preserve">  </tspan><tspan class="cls-11" x="145.496" y="0" xml:space="preserve">   1   </tspan><tspan class="cls-7" x="179.582" y="0"> </tspan><tspan class="cls-11" x="185.338" y="0"> </tspan><tspan class="cls-8" x="189.494" y="0"> </tspan><tspan class="cls-15" x="192.851" y="0"> </tspan><tspan class="cls-11" x="197.167" y="0" xml:space="preserve"> ...   </tspan><tspan class="cls-7" x="226.565" y="0"> </tspan><tspan class="cls-11" x="232.321" y="0"> </tspan><tspan class="cls-24" x="236.478" y="0"> </tspan><tspan class="cls-25" x="239.435" y="0"> </tspan><tspan class="cls-11" x="243.75" y="0" xml:space="preserve"> 6   </tspan><tspan class="cls-14" x="269.523" y="0"> </tspan><tspan class="cls-9" x="275.28" y="0"> </tspan><tspan class="cls-11" x="280.637" y="0" xml:space="preserve">   7   </tspan><tspan class="cls-7" x="314.723" y="0"> </tspan><tspan class="cls-11" x="320.479" y="0" xml:space="preserve">    </tspan><tspan class="cls-26" x="337.104" y="0">8</tspan><tspan class="cls-11" x="346.252" y="0" xml:space="preserve">  </tspan><tspan class="cls-13" x="354.564" y="0"> </tspan><tspan class="cls-14" x="359.521" y="0"> </tspan><tspan class="cls-13" x="365.277" y="0"> </tspan><tspan class="cls-11" x="370.233" y="0" xml:space="preserve">   9   </tspan><tspan class="cls-7" x="404.319" y="0"> </tspan><tspan class="cls-11" x="410.075" y="0" xml:space="preserve">    8  </tspan><tspan class="cls-8" x="444.161" y="0"> </tspan><tspan class="cls-7" x="447.518" y="0"> </tspan><tspan class="cls-27" x="453.273" y="0"> </tspan><tspan class="cls-11" x="458.23" y="0" xml:space="preserve">   ...   </tspan><tspan class="cls-17" x="495.941" y="0"> </tspan><tspan class="cls-8" x="499.938" y="0"> </tspan><tspan class="cls-11" x="503.294" y="0" xml:space="preserve"> 135  </tspan><tspan class="cls-7" x="543.208" y="0"> </tspan><tspan class="cls-11" x="548.964" y="0" xml:space="preserve">  </tspan><tspan class="cls-18" x="557.276" y="-1">→</tspan></text><rect class="cls-2" x="158.277" y="214.544" width="39" height="39"/><path class="cls-2" d="M196.777,215.044v38h-38v-38h38m1-1h-40v40h40v-40Z"/><rect class="cls-2" x="203.277" y="214.544" width="39" height="39"/><path class="cls-2" d="M241.777,215.044v38h-38v-38h38m1-1h-40v40h40v-40Z"/><rect class="cls-2" x="248.277" y="214.544" width="39" height="39"/><path class="cls-2" d="M286.777,215.044v38h-38v-38h38m1-1h-40v40h40v-40Z"/><rect class="cls-2" x="293.277" y="214.544" width="39" height="39"/><path class="cls-2" d="M331.777,215.044v38h-38v-38h38m1-1h-40v40h40v-40Z"/><rect class="cls-1" x="337.777" y="214.044" width="40" height="40"/><rect class="cls-2" x="383.277" y="214.544" width="39" height="39"/><path class="cls-2" d="M421.777,215.044v38h-38v-38h38m1-1h-40v40h40v-40Z"/><rect class="cls-2" x="428.277" y="214.544" width="39" height="39"/><path class="cls-2" d="M466.777,215.044v38h-38v-38h38m1-1h-40v40h40v-40Z"/><rect class="cls-2" x="473.277" y="214.544" width="39" height="39"/><path class="cls-3" d="M511.777,215.044v38h-38v-38h38m1-1h-40v40h40v-40Z"/><rect class="cls-2" x="518.277" y="214.544" width="39" height="39"/><path class="cls-2" d="M556.777,215.044v38h-38v-38h38m1-1h-40v40h40v-40Z"/><rect class="cls-2" x="563.277" y="214.544" width="39" height="39"/><path class="cls-2" d="M601.777,215.044v38h-38v-38h38m1-1h-40v40h40v-40Z"/><rect class="cls-2" x="113.277" y="214.544" width="39" height="39"/><path class="cls-2" d="M151.777,215.044v38h-38v-38h38m1-1h-40v40h40v-40Z"/><text class="cls-6" transform="translate(15.777 240.849)">Страницы:<tspan class="cls-7" x="83.141" y="0"> </tspan><tspan class="cls-8" x="88.896" y="0"> </tspan><tspan class="cls-9" x="92.253" y="0"> </tspan><tspan class="cls-8" x="97.609" y="0"> </tspan><tspan class="cls-21" x="100.966" y="0"> </tspan><tspan class="cls-11" x="103.202" y="0"> </tspan><tspan class="cls-22" x="107.358" y="-1">←</tspan><tspan class="cls-11" x="125.358" y="0" xml:space="preserve">  </tspan><tspan class="cls-23" x="133.671" y="0" xml:space="preserve">  </tspan><tspan class="cls-8" x="138.783" y="0" xml:space="preserve">  </tspan><tspan class="cls-11" x="145.496" y="0" xml:space="preserve">   1   </tspan><tspan class="cls-7" x="179.582" y="0"> </tspan><tspan class="cls-11" x="185.338" y="0"> </tspan><tspan class="cls-8" x="189.494" y="0"> </tspan><tspan class="cls-15" x="192.851" y="0"> </tspan><tspan class="cls-11" x="197.167" y="0" xml:space="preserve"> ...   </tspan><tspan class="cls-7" x="226.565" y="0"> </tspan><tspan class="cls-11" x="232.321" y="0"> </tspan><tspan class="cls-24" x="236.478" y="0"> </tspan><tspan class="cls-25" x="239.435" y="0"> </tspan><tspan class="cls-11" x="243.75" y="0" xml:space="preserve"> 6   </tspan><tspan class="cls-14" x="269.523" y="0"> </tspan><tspan class="cls-9" x="275.28" y="0"> </tspan><tspan class="cls-11" x="280.637" y="0" xml:space="preserve">   7   </tspan><tspan class="cls-7" x="314.723" y="0"> </tspan><tspan class="cls-11" x="320.479" y="0" xml:space="preserve">    </tspan><tspan class="cls-26" x="337.104" y="0">8</tspan><tspan class="cls-11" x="346.252" y="0" xml:space="preserve">  </tspan><tspan class="cls-13" x="354.564" y="0"> </tspan><tspan class="cls-14" x="359.521" y="0"> </tspan><tspan class="cls-13" x="365.277" y="0"> </tspan><tspan class="cls-11" x="370.233" y="0" xml:space="preserve">   9   </tspan><tspan class="cls-7" x="404.319" y="0"> </tspan><tspan class="cls-11" x="410.075" y="0" xml:space="preserve">    8  </tspan><tspan class="cls-8" x="444.161" y="0"> </tspan><tspan class="cls-7" x="447.518" y="0"> </tspan><tspan class="cls-27" x="453.273" y="0"> </tspan><tspan class="cls-11" x="458.23" y="0" xml:space="preserve">   </tspan><tspan class="cls-3" x="470.699" y="0">...</tspan><tspan class="cls-11" x="483.473" y="0" xml:space="preserve">   </tspan><tspan class="cls-17" x="495.941" y="0"> </tspan><tspan class="cls-8" x="499.938" y="0"> </tspan><tspan class="cls-11" x="503.294" y="0" xml:space="preserve"> 135  </tspan><tspan class="cls-7" x="543.208" y="0"> </tspan><tspan class="cls-11" x="548.964" y="0" xml:space="preserve">  </tspan><tspan class="cls-18" x="557.276" y="-1">→</tspan></text><polygon class="cls-28" points="507.777 266.294 507.777 264.294 505.777 264.294 505.777 262.294 501.777 262.294 501.777 260.294 495.777 260.294 495.777 258.294 491.777 258.294 491.777 249.294 489.777 249.294 489.777 247.294 485.777 247.294 485.777 249.294 483.777 249.294 483.777 266.294 481.777 266.294 481.777 264.294 476.777 264.294 476.777 264.294 475.777 264.294 475.777 271.294 476.777 271.294 476.777 273.294 477.777 273.294 477.777 275.294 478.777 275.294 478.777 277.294 479.777 277.294 479.777 279.294 480.777 279.294 480.777 281.294 481.777 281.294 481.777 283.294 482.777 283.294 482.777 285.294 483.777 285.294 483.777 288.294 484.777 288.294 484.777 288.294 485.777 288.294 485.777 293.294 505.777 293.294 505.777 286.294 507.777 286.294 507.777 280.294 509.777 280.294 509.777 266.294 507.777 266.294"/><path class="cls-20" d="M503.777,270.294v-6h2v-2h-4v8Zm-12-3v-7h4v-2h-4v-9h-2v18Zm6,1v-6h4v-2h-6v8Zm-8-21h-4v2h4Zm18,18.9v-1.9h-2v1.9Zm-2,20.1h2v-6h-2Zm-22-18v4h2v-23h-2v17h-2v2Zm24-2v14h2v-14Zm-4,25h-16v-5h-2v-2h-1v-2h-1v-2h-1v-2h-1v-2h-1v-2h-1v-2h-1v-2h-1v-4h4v-2h-6v7h1v2h1v2h1v2h1v2h1v2h1v2h1v2h1v3h2v5h20v-7h-2Z"/><text class="cls-29" transform="translate(516.777 287.044)"><tspan class="cls-30">с</tspan><tspan x="5.628" y="0">л</tspan><tspan class="cls-31" x="11.712" y="0">е</tspan><tspan class="cls-32" x="17.76" y="0">д</tspan><tspan x="24.083" y="0">ующие </tspan><tspan class="cls-33" x="62.387" y="0">п</tspan><tspan class="cls-32" x="68.927" y="0">я</tspan><tspan class="cls-34" x="74.843" y="0">т</tspan><tspan class="cls-35" x="79.69" y="0">ь</tspan></text><text class="cls-29" transform="translate(242.777 10.044)">по<tspan class="cls-30" x="13.08" y="0">с</tspan><tspan x="18.708" y="0">ле 5й </tspan><tspan class="cls-36" x="48.695" y="0">с</tspan><tspan class="cls-37" x="54.263" y="0">т</tspan><tspan class="cls-38" x="59.111" y="0">раницы - а</tspan><tspan class="cls-39" x="114.058" y="0">к</tspan><tspan class="cls-34" x="120.01" y="0">т</tspan><tspan class="cls-35" x="124.857" y="0">ивн</tspan><tspan class="cls-40" x="144.058" y="0">а</tspan><tspan x="149.925" y="0">я </tspan><tspan class="cls-41" x="158.421" y="0">с</tspan><tspan x="163.725" y="0">ер</tspan><tspan class="cls-31" x="176.564" y="0">е</tspan><tspan x="182.612" y="0">дина</tspan></text></g></g></svg>