<svg xmlns="http://www.w3.org/2000/svg" xmlns:xlink="http://www.w3.org/1999/xlink" viewBox="0 0 16.5 23"><defs><style>.cls-1{fill:none;}.cls-2{clip-path:url(#clip-path);}.cls-3{fill:#5ba3d9;}</style><clipPath id="clip-path" transform="translate(-3.25)"><rect class="cls-1" width="23" height="23"/></clipPath></defs><title>Asset 50</title><g id="Layer_2" data-name="Layer 2"><g id="фото1_copy_2" data-name="фото1 copy 2"><g class="cls-2"><path class="cls-3" d="M11.577,5.04A2.981,2.981,0,0,0,8.565,7.981a3.013,3.013,0,0,0,6.024,0A2.981,2.981,0,0,0,11.577,5.04Zm0,5.041a2.1,2.1,0,1,1,2.151-2.1A2.128,2.128,0,0,1,11.577,10.081Z" transform="translate(-3.25)"/><path class="cls-3" d="M17.335,2.359a8.393,8.393,0,0,0-11.668,0A9.007,9.007,0,0,0,4.891,13.68L11.5,23l6.6-9.307A9.01,9.01,0,0,0,17.335,2.359ZM17.4,13.2l-5.9,8.322L5.589,13.189A8.138,8.138,0,0,1,6.276,2.953a7.518,7.518,0,0,1,10.451,0A8.142,8.142,0,0,1,17.4,13.2Z" transform="translate(-3.25)"/></g></g></g></svg>