<svg xmlns="http://www.w3.org/2000/svg" width="15" height="14" viewBox="0 0 15 14"><defs><style>.cls-1{fill:#a1b3c7;}</style></defs><title>Asset 33</title><g id="Layer_2" data-name="Layer 2"><g id="Layer_1-2" data-name="Layer 1"><path class="cls-1" d="M2,12.018l1.444-1.632a5.6,5.6,0,0,0,3.61,1.528c1.57,0,2.42-.681,2.42-1.734,0-1.115-.892-1.466-2.145-1.982l-1.91-.806A3.91,3.91,0,0,1,2.616,3.8c0-2.147,1.953-3.8,4.67-3.8a6.215,6.215,0,0,1,4.268,1.714L10.3,3.242A4.59,4.59,0,0,0,7.287,2.086c-1.317,0-2.187.6-2.187,1.59,0,1.053,1.061,1.445,2.208,1.9l1.89.763c1.633.682,2.8,1.693,2.8,3.655C12,12.183,10.132,14,7.01,14A7.3,7.3,0,0,1,2,12.018Z"/><path class="cls-1" d="M0,7H15V9H0Z"/></g></g></svg>