<svg xmlns="http://www.w3.org/2000/svg" width="15.175" height="16.341" viewBox="0 0 15.175 16.341"><defs><style>.cls-1{fill:#a1b3c7;}</style></defs><title>Asset 35</title><g id="Layer_2" data-name="Layer 2"><g id="Layer_1-2" data-name="Layer 1"><path class="cls-1" d="M13.67,9.681a1.1,1.1,0,1,1-1.61-1.5,3.735,3.735,0,0,0-.133-5.043A3.6,3.6,0,0,0,7.022,8.4,1.1,1.1,0,0,1,5.57,10.052l-.048-.045a5.8,5.8,0,0,1,7.9-8.477,5.926,5.926,0,0,1,.243,8.15Z"/><path class="cls-1" d="M9.306,6.061A1.1,1.1,0,1,0,7.951,7.8a3.732,3.732,0,0,1,.657,5A3.6,3.6,0,0,1,2.941,8.368,1.1,1.1,0,1,0,1.207,7.014a5.8,5.8,0,0,0,9.135,7.135A5.929,5.929,0,0,0,9.306,6.061Z"/></g></g></svg>