<svg xmlns="http://www.w3.org/2000/svg" width="18.47" height="13.333" viewBox="0 0 18.47 13.333"><defs><style>.cls-1{fill:#a1b3c7;}</style></defs><title>Asset 39</title><g id="Layer_2" data-name="Layer 2"><g id="Layer_1-2" data-name="Layer 1"><path class="cls-1" d="M.329,5.333C1.236,1.778,3.05,0,3.957,0H6.678S3.05,2.667,3.05,6.222l1.5-.244a3.4,3.4,0,0,1,3.9,2.809,3.437,3.437,0,0,1,.044.546,4,4,0,0,1-4,4h-.08A4.409,4.409,0,0,1,0,8.987,14.461,14.461,0,0,1,.329,5.333Zm9.977,0C11.213,1.778,13.027,0,13.934,0h2.722s-3.629,2.667-3.629,6.222l1.5-.244a3.4,3.4,0,0,1,3.9,2.808,3.449,3.449,0,0,1,.044.547,4,4,0,0,1-4,4h-.082A4.409,4.409,0,0,1,9.98,8.987,14.37,14.37,0,0,1,10.306,5.333Z"/></g></g></svg>