<svg xmlns="http://www.w3.org/2000/svg" width="15" height="15.692" viewBox="0 0 15 15.692"><defs><style>.cls-1{fill:#b3b3b3;}</style></defs><title>Asset 29</title><g id="Layer_2" data-name="Layer 2"><g id="Layer_1-2" data-name="Layer 1"><path class="cls-1" d="M.008,7.771c-.063.25.247.739.382.92a1.5,1.5,0,0,0,.856.639,14.988,14.988,0,0,0,2.434.141c.382.015.763-.032,1.145-.033.094,0,.38-.014.456.062s.045.306.039.394c-.061.873-.731,1.612-.992,2.426A3.354,3.354,0,0,0,4.3,14.542a1.733,1.733,0,0,0,1.667,1.137c.186-.028.271-.072.306-.256s.039-.373.056-.559a9.336,9.336,0,0,1,.217-1.381,3.493,3.493,0,0,1,.443-1.147,5.206,5.206,0,0,1,.891-.864C8.66,10.789,8.9,9.647,9.39,8.757c.4-.722.887-1.563,1.814-1.545,0-2.056-.019-4.111-.02-6.167V.917C11.227.81,11.2.762,11.1.775a.856.856,0,0,0-.165-.039C10.766.7,10.6.673,10.425.642,10.087.58,9.747.527,9.409.46A20.956,20.956,0,0,0,7.088.113c-.7-.058-1.4-.089-2.1-.1A7.566,7.566,0,0,0,2.534.2c-.55.18-1.347.791-1.3,1.435a1.025,1.025,0,0,1-.256.882c-.22.264-.626.535-.636.915-.011.4.377.744.317,1.151-.031.211-.19.3-.317.449a1.141,1.141,0,0,0-.283.6c-.04.427.32.569.435.919C.623,6.96.1,7.391.008,7.771ZM11.829,1.939V6.228c0,.55-.088,1.278.651,1.312.315.015.635,0,.951,0a5.54,5.54,0,0,0,1.055-.016c.639-.13.492-.921.492-1.4V1.886c0-.492.173-1.339-.447-1.524A3.435,3.435,0,0,0,13.6.342c-.377,0-.757-.016-1.133,0C11.638.373,11.829,1.364,11.829,1.939Z"/></g></g></svg>