<svg xmlns="http://www.w3.org/2000/svg" width="15" height="15.692" viewBox="0 0 15 15.692"><defs><style>.cls-1{fill:#b3b3b3;}</style></defs><title>Asset 27</title><g id="Layer_2" data-name="Layer 2"><g id="Layer_1-2" data-name="Layer 1"><path class="cls-1" d="M14.992,7.921c.063-.25-.247-.739-.382-.92a1.5,1.5,0,0,0-.856-.639,14.988,14.988,0,0,0-2.434-.141c-.382-.016-.763.032-1.145.032-.094,0-.38.015-.456-.061S9.673,5.886,9.68,5.8c.061-.873.731-1.612.992-2.426A3.357,3.357,0,0,0,10.7,1.149,1.732,1.732,0,0,0,9.029.013c-.186.028-.271.072-.306.256s-.039.373-.056.559a9.456,9.456,0,0,1-.217,1.38,3.477,3.477,0,0,1-.443,1.147,5.174,5.174,0,0,1-.891.865C6.34,4.9,6.1,6.045,5.61,6.935,5.212,7.657,4.723,8.5,3.8,8.48c0,2.056.019,4.111.02,6.167v.128c-.043.107-.015.155.084.142a.937.937,0,0,0,.165.039c.169.036.34.063.509.094.339.062.679.115,1.016.182a20.738,20.738,0,0,0,2.322.346c.7.059,1.4.09,2.1.1a7.566,7.566,0,0,0,2.458-.191c.55-.18,1.347-.791,1.305-1.435a1.024,1.024,0,0,1,.256-.882c.22-.264.626-.535.636-.916.011-.4-.377-.743-.317-1.15.031-.211.19-.3.317-.449a1.145,1.145,0,0,0,.283-.6c.04-.427-.32-.569-.435-.919C14.377,8.732,14.9,8.3,14.992,7.921ZM3.171,13.753V9.464c0-.55.087-1.278-.651-1.313-.315-.014-.635,0-.951,0a5.552,5.552,0,0,0-1.056.017c-.639.13-.491.921-.491,1.4v4.234c0,.492-.173,1.339.447,1.524a3.435,3.435,0,0,0,.929.02c.377,0,.757.016,1.133,0C3.362,15.319,3.171,14.327,3.171,13.753Z"/></g></g></svg>