<svg xmlns="http://www.w3.org/2000/svg" width="10.739" height="13.292" viewBox="0 0 10.739 13.292"><defs><style>.cls-1{fill:#bebebe;}</style></defs><title>Asset 45</title><g id="Layer_2" data-name="Layer 2"><g id="Layer_1-2" data-name="Layer 1"><path class="cls-1" d="M8.323,12.866a8.461,8.461,0,0,1-1.137.355c-.236.066-.484-.042-.639.071H.083a15.048,15.048,0,0,1-.071-2.415V2.353A14.624,14.624,0,0,1,.083.009C2.99.151,7.054-.44,8.962.933a3.474,3.474,0,0,1,.853,2.912,3.118,3.118,0,0,1-1.634,2.06c.142.306.5.191.781.355a3.974,3.974,0,0,1,1.35,1.208,4.939,4.939,0,0,1,.355.852v.639C11.106,10.716,9.441,12.37,8.323,12.866ZM6.192,4.626l.071-.5a1.5,1.5,0,0,0-.071-.994c-.087-.166-.315-.274-.426-.427a18.468,18.468,0,0,0-2.273-.142V5.2C4.557,5.217,5.815,5.291,6.192,4.626Zm.5,3.339c-.056-.014-1.117-.341-1.136-.355a7.463,7.463,0,0,0-2.06.071v3.054a8.805,8.805,0,0,0,2.7-.142c.384-.147.553-.5.852-.71a3.354,3.354,0,0,0,0-1.492C6.974,8.253,6.778,8.11,6.689,7.965Z"/></g></g></svg>