<svg xmlns="http://www.w3.org/2000/svg" width="15.695" height="13.101" viewBox="0 0 15.695 13.101"><defs><style>.cls-1{fill:#bebebe;fill-rule:evenodd;}</style></defs><title>Asset 47</title><g id="Layer_2" data-name="Layer 2"><g id="Layer_1-2" data-name="Layer 1"><path class="cls-1" d="M14.069,2.047a8.175,8.175,0,0,0,1.383-.373.455.455,0,0,1,.206-.037.1.1,0,0,0,.037.056.445.445,0,0,0-.018.075l-.075.056v.037l-.075.056v.037l-.037.019v.038c-.238.191-.848,1.121-1.141,1.121h-.037l-.038.056h-.037l-.094.131a3.582,3.582,0,0,1-.018.973c-.1.36-.068.832-.145,1.211a9.862,9.862,0,0,1-.438,1.515,7.632,7.632,0,0,1-1.773,2.957v.038l-.131.112v.037c0,.288-1.355,1.107-1.616,1.284A9.9,9.9,0,0,1,8.058,12.5a8.79,8.79,0,0,1-3.961.569,8.423,8.423,0,0,1-1.955-.451,14.888,14.888,0,0,1-1.984-.753l-.149-.075A.229.229,0,0,1,0,11.7a.078.078,0,0,0,.006-.037c.024-.035.149-.019.205-.019h.6c.25-.2,1.154-.171,1.48-.263.473-.134,1.622-.431,1.9-.858l.037-.057.075-.018.019-.038a.037.037,0,0,0,.037-.018.242.242,0,0,1,.112-.056l.019-.075a.46.46,0,0,0-.262-.038c-.041-.035-.127-.018-.187-.056-.322-.2-.818-.226-1.173-.452a3.379,3.379,0,0,1-.718-.616c-.121-.137-.321-.6-.465-.67a.64.64,0,0,0-.074-.169A.037.037,0,0,0,1.6,8.218a.473.473,0,0,1-.037-.224.232.232,0,0,1,.149-.038c.047.042.218.019.3.019.243-.006.486-.013.729-.038l.094-.018V7.863A1.2,1.2,0,0,0,2.7,7.788,3.287,3.287,0,0,1,.476,5.526a2.965,2.965,0,0,1-.131-.879.3.3,0,0,1,.113-.019c.293.324.839.3,1.227.4.065-.156-.059-.116-.124-.214l-.038-.056H1.486c-.411,0-.978-1.672-1.043-2.013S.346.659.888.646L.962.758,1,.777V.814a.068.068,0,0,1,.037.037l.094.075V.964c0,.192.781.755.927.879a9.321,9.321,0,0,0,1.244.89,12.926,12.926,0,0,0,3.213,1.2h.15c.1.031.25.043.355.075a2.588,2.588,0,0,0,.524.019c.051-.014.041,0,.074-.075-.039-.061-.015-.093-.037-.168a2.881,2.881,0,0,1-.037-.729A3.3,3.3,0,0,1,11.424.052c.358.063,1.249.268,1.429.631L12.909.7,12.984.8h.038L13.1.889l.15.131a1.366,1.366,0,0,0,.5-.112A5.535,5.535,0,0,0,15,.428c.013-.007.025-.007.038-.025h.037L15.1.365h.037a.776.776,0,0,0,.113-.093L15.3.29A.15.15,0,0,1,15.3.4L15.284.5l-.037.019a.068.068,0,0,1-.019.056,2.957,2.957,0,0,0-.377.594c-.106.172-.324.339-.408.509l-.019.037h-.038l-.074.094-.075.019L14.2,1.88h-.038l-.019.037a.045.045,0,0,0-.037.013.129.129,0,0,1-.037.024Z"/></g></g></svg>