<svg xmlns="http://www.w3.org/2000/svg" width="10.425" height="18" viewBox="0 0 10.425 18"><defs><style>.cls-1{fill:#bebebe;}</style></defs><title>Asset 43</title><g id="Layer_2" data-name="Layer 2"><g id="Layer_1-2" data-name="Layer 1"><path class="cls-1" d="M.58,4.858v.229H.6v.148H.613v.114H.624a.644.644,0,0,1,.005.1H.645v.1H.662v.066H.678v.081H.7v.066H.711v.065H.727v.066H.744v.049H.76V6H.776v.049H.793V6.1H.8a.167.167,0,0,1,.005.049H.825l.017.1H.858v.033H.874V6.33H.891v.033H.907v.049H.923v.033H.934a.135.135,0,0,1,.006.049H.956l.033.1H1v.033h.017v.032h.016V6.69h.016v.049l.033.016v.033H1.1v.033h.011a.065.065,0,0,1,.006.033h.016v.032h.016v.033h.017v.033l.032.016.017.065.033.017.016.065h.016l.017.049.032.017v.032h.017l.016.049.033.017v.032l.032.017.017.049L1.5,7.41v.032l.049.033v.033l.065.049v.032l.082.066v.033l.147.13v.033l.131.115L2,8.015h.033l.13.147H2.2l.065.082H2.3l.049.065h.033l.033.049h.032l.033.049H2.51l.032.049h.033l.017.033.049.016v.017h.032l.017.032.049.017v.016L2.8,8.6l.016.033.066.016.016.033.066.016v.017H3v.016h.033v.017h.033v.016H3.1v.016h.033v.011a.341.341,0,0,0,.066.022v.016h.032v.017h.033v.016l.1.033v.016h.049V8.93h.033v.017l.082.016v.011a.16.16,0,0,0,.049,0V9h.032v.016h.049v.017H3.7v.016h.049v.016H3.8v.017h.049v.016h.065V9.11h.049v.017h.066v.016H4.1v.011a.289.289,0,0,0,.065.005v.017l.148.016v.016h.1v.017h.1v.016h.114v.016h.147v.017h.246A1.23,1.23,0,0,0,5.4,9.29V9.274H5.65V9.263A1.2,1.2,0,0,1,5.8,9.257V9.241h.114V9.225h.1V9.208h.1V9.192l.148-.016V9.159l.2-.032V9.11l.114-.016V9.083a.167.167,0,0,1,.049-.005V9.061h.049V9.045h.05V9.029l.1-.017V9h.032V8.979h.049V8.963l.082-.016V8.93h.033V8.914h.049V8.9a.791.791,0,0,1,.1-.038V8.849h.033V8.832h.032V8.816L7.3,8.8l.017-.033H7.35V8.751h.033V8.734h.033V8.723a.074.074,0,0,1,.032-.005V8.7h.033V8.685h.033l.016-.033L7.6,8.636,7.612,8.6l.065-.016V8.571l.049-.017.017-.032h.032V8.505l.05-.016.016-.033h.033l.032-.049h.033l.016-.033h.033l.049-.065H8.07l.016-.033.049-.016L8.2,8.178l.049-.016.114-.131H8.4l.131-.147.081-.066V7.786l.131-.115V7.638l.082-.065V7.54l.066-.049V7.459l.049-.033V7.393l.049-.033V7.328l.032-.017V7.279l.033-.017V7.23l.033-.017V7.181l.032-.017V7.132l.033-.017V7.082l.033-.016.033-.1.032-.016.033-.1.033-.017.032-.1h.017V6.706h.016l.033-.1h.016V6.559h.017V6.526H9.46l.016-.065h.017V6.412h.016V6.379h.016l.213-.67V5.627h.016V5.562h.017v-.1h.016v-.1H9.8l.033-.294V4.908a2.156,2.156,0,0,0,.016-.524H9.836V4.172H9.82V4.024H9.8v-.1H9.787v-.1H9.771v-.1H9.754V3.665H9.743a.457.457,0,0,1-.005-.082l-.18-.589H9.542V2.961H9.525V2.912H9.509V2.88H9.493V2.831H9.476V2.8H9.46l-.016-.082H9.433a.666.666,0,0,1-.039-.1H9.378V2.585H9.362V2.553H9.345V2.52H9.329V2.487H9.313V2.455H9.3V2.422L9.264,2.4l-.033-.1L9.2,2.291l-.016-.065-.033-.017L9.133,2.16H9.116L9.1,2.1l-.033-.017V2.046l-.049-.033V1.98l-.032-.016V1.931L8.937,1.9V1.866l-.049-.033V1.8l-.05-.032V1.735L8.789,1.7V1.686L8.757,1.67V1.637l-.115-.1V1.506l-.147-.131-.147-.163H8.315l-.1-.115H8.184l-.016-.033H8.152l-.033-.049H8.086L8.053.966H8.021L7.988.917H7.955L7.923.868H7.89L7.874.836H7.841L7.808.786H7.775L7.759.754,7.71.737V.721L7.645.705,7.628.672,7.563.656,7.547.623,7.448.59,7.432.558H7.4V.541H7.367V.525H7.334V.508H7.3V.492H7.269V.476H7.236V.459l-.1-.032V.41L7.056.394V.383A.076.076,0,0,0,7.023.378V.361H6.974V.345H6.941V.329H6.892A4.582,4.582,0,0,0,4.93,0c-.042.037-.132,0-.2.016V.034H4.587V.051H4.472V.067h-.1V.083H4.292c-.085.027-.2.054-.278.082H3.949V.181H3.9V.2H3.851V.214L3.687.247V.263H3.654V.274a.661.661,0,0,1-.1.022V.312H3.524V.329H3.475V.345H3.442V.361H3.393a4.8,4.8,0,0,0-2.5,2.551l-.017.1H.858v.032H.842l-.017.1H.809V3.19H.793v.049H.776v.05H.76L.744,3.4H.733a.242.242,0,0,0-.006.065C.7,3.55.671,3.661.645,3.746v.1H.629L.6,4.2H.58v.229a1.6,1.6,0,0,0-.016.425ZM3.3,4.564v-.18h.016v-.1h.016V4.2h.017V4.139H3.36V4.09h.016l.033-.147h.017V3.91h.016V3.861h.016l.033-.1h.016L3.524,3.7l.032-.016.017-.065L3.605,3.6V3.567l.033-.017V3.517L3.7,3.468V3.436l.081-.066V3.338l.033-.017.082-.1h.032L4,3.141h.033l.049-.065h.032l.017-.033.049-.016V3.011l.065-.017.017-.033.065-.016V2.929l.1-.033V2.88h.049V2.863h.033V2.847l.1-.016V2.814h.049V2.8a.163.163,0,0,1,.049,0V2.782h.065V2.765h.082V2.749h.1V2.733H5.11l.163-.017v.017h.2v.01a.532.532,0,0,0,.1.006v.016H5.65v.017h.065V2.8h.049v.016h.049v.017h.049v.016h.049v.016h.033v.011a.138.138,0,0,0,.049.006V2.9l.1.033v.016l.066.016.016.033.065.017.017.032h.032l.033.049h.033l.032.049h.033l.066.082h.032l.017.033.1.082V3.37l.082.066v.032l.049.033v.033l.049.033V3.6l.032.017.017.065.032.016.017.066h.016l.033.1h.016V3.91h.017v.033h.016v.049h.016v.049h.011a.135.135,0,0,1,.006.049h.016v.049h.016V4.2a1.578,1.578,0,0,1,.017.8l-.017.147H7.056V5.2H7.04v.049H7.023V5.3H7.007v.049H6.991l-.017.065H6.963a1.564,1.564,0,0,0-.054.148l-.033.016-.016.065H6.843l-.016.049-.033.017v.033l-.032.016v.033l-.049.032v.033l-.033.016a.328.328,0,0,0-.1.131.34.34,0,0,0-.131.1l-.016.033H6.4L6.353,6.2H6.32L6.3,6.232H6.271l-.016.033-.049.016V6.3l-.1.032v.017H6.075v.016H6.042v.011a.791.791,0,0,1-.1.038v.016H5.9v.017H5.862v.016l-.114.016v.017H5.7V6.51H5.633v.016l-.2.017a1.452,1.452,0,0,1-.654-.033H4.717V6.494H4.668V6.483a.916.916,0,0,0-.114-.022V6.445H4.521V6.428H4.472V6.412l-.1-.033V6.363H4.341V6.347H4.309V6.33H4.276V6.314H4.243V6.3a.076.076,0,0,0-.033,0V6.281l-.049-.016-.016-.033H4.112L4.1,6.2H4.063l-.049-.065H3.982L3.965,6.1A.34.34,0,0,0,3.834,6a.328.328,0,0,0-.1-.131L3.7,5.856V5.823l-.05-.032V5.758l-.032-.016V5.709l-.033-.017-.016-.049H3.556L3.54,5.578l-.033-.016-.049-.148H3.442l-.016-.065H3.409V5.3H3.393V5.251H3.376V5.2H3.36V5.153H3.344V5.087H3.333a.369.369,0,0,1-.006-.081H3.311v-.1H3.3V4.7H3.278C3.263,4.64,3.291,4.6,3.3,4.564Zm7.113,6.182v-.164h-.016V10.5h-.016v-.065h-.017v-.049h-.016l-.016-.1H10.31l-.016-.066h-.011a.074.074,0,0,1,0-.032h-.017v-.033h-.016v-.033h-.017v-.033l-.032-.016v-.033l-.049-.032V9.977L10.1,9.944V9.912l-.066-.049-.082-.1H9.918L9.869,9.7H9.836L9.82,9.666H9.787l-.016-.032H9.738V9.623a.065.065,0,0,0-.033-.006V9.6H9.672V9.585H9.64V9.568H9.607V9.552H9.574V9.535L9.28,9.454H9.133V9.443c-.126.005-.251.016-.376.027v.016l-.213.049v.017l-.1.033V9.6H8.413v.016l-.065.017-.017.032-.065.017-.016.032H8.217v.017H8.184l-.016.032H8.135v.017H8.1V9.8H8.07v.016H8.037l-.016.033H7.988v.017H7.955v.01a.061.061,0,0,1-.032.006V9.9H7.89v.017H7.857v.016H7.825v.016H7.792v.017H7.759v.016l-.1.033v.016H7.612v.016H7.579v.017l-.065.016v.016H7.465v.017H7.432v.016l-.082.017v.016l-.1.016v.011a.065.065,0,0,1-.033.006v.016l-.1.016v.017H7.072v.016H7.023v.016H6.974v.017H6.925V10.3l-.114.016v.017l-.131.016v.011a.167.167,0,0,1-.049,0v.017H6.549V10.4H6.484v.017H6.4v.016H6.32v.016H6.238v.017h-.1v.016H6.026V10.5H5.9v.017H5.731v.016H5.5v.011c-.092,0-.185,0-.278,0l-.7-.032V10.5H4.39v-.016H4.276c-.077-.023-.187-.042-.262-.065H3.932V10.4l-.147-.016v-.017l-.18-.032V10.32H3.556V10.3H3.491v-.011a.163.163,0,0,0-.049,0v-.017H3.393v-.016H3.344v-.016H3.3v-.017H3.246v-.016l-.1-.016v-.017H3.115v-.016H3.066v-.016H3.033v-.017H2.984v-.011a.076.076,0,0,0-.033,0v-.017H2.9v-.016l-.065-.016v-.017H2.788v-.016H2.755V10.01L2.69,9.993V9.977H2.657V9.961H2.624V9.944H2.592V9.933a.076.076,0,0,0-.033,0V9.912H2.526V9.9H2.493V9.879H2.461V9.863H2.428V9.846H2.4V9.83H2.363L2.346,9.8l-.1-.033-.016-.032-.066-.017L2.15,9.683l-.065-.017-.017-.032L1.97,9.6V9.585l-.1-.033V9.535H1.823V9.519H1.774a1.287,1.287,0,0,0-.491-.082c-.034.03-.093,0-.147.017l-.294.081v.017l-.066.016v.017H.744V9.6H.711v.016H.678v.017H.645l-.016.032H.6L.58,9.7H.547L.5,9.764H.466L.417,9.83l-.1.082v.032l-.065.049v.033l-.033.016v.033l-.032.016v.033H.171v.033H.155v.033H.139v.032H.122v.033H.106v.033H.089l-.016.1a1.226,1.226,0,0,0,0,.834l.016.1H.106l.033.1H.155v.033H.171l.017.065.032.017v.032l.033.017v.032l.049.033v.033l.131.114.049.066H.515l.049.065H.6l.017.033.065.016.017.033.065.016.016.033.066.016.016.033H.891v.011a.074.074,0,0,0,.032,0l.017.033H.973v.016H1v.017h.033V12.2h.033l.016.033H1.12v.016h.032v.016h.033v.017h.033v.011a.076.076,0,0,0,.033,0v.017h.032v.016h.033v.016h.033v.017h.032v.016h.033V12.4h.033v.017h.032v.016l.066.016v.017l.065.016V12.5h.033v.017h.049v.016l.066.016v.017H1.79v.016h.049v.017l.066.016v.016h.049v.017h.032v.01a.435.435,0,0,0,.082.022v.017h.049v.016H2.15v.016l.1.017v.016h.033v.016l.147.033v.016h.049v.017h.049v.016h.049v.017h.049v.016h.049V12.9l.1.017v.016h.066v.016h.049v.011a.239.239,0,0,0,.065.006v.016h.066V13l.31.066v.016c-.037.022-.052.053-.081.082l-.2.2-.425.409-.163.18-.949.932-.376.392a3,3,0,0,0-.687.785v.049a1.166,1.166,0,0,0-.082.769l.017.147H.4v.049H.417v.033H.433v.049H.444a.791.791,0,0,1,.038.1H.5v.033H.515l.016.065.033.017V17.4l.032.017.017.049.065.049v.033l.033.016.065.082H.809l.049.065H.891l.032.049.066.016L1,17.81l.066.017v.016l.1.033v.016h.049v.016h.033v.017H1.3v.016l.147.016a1.157,1.157,0,0,0,.768-.081h.049v-.017l.066-.016v-.016h.033l.016-.033.065-.017.033-.049H2.51l.032-.049h.033l.458-.474.491-.474.817-.834.491-.474.1-.115a1.664,1.664,0,0,0,.262-.262c.084.023.155.14.212.2l.066.049.425.441L7.677,17.5l.164.18h.033l.032.049h.033l.033.049.065.017.016.033h.033v.016l.066.016v.017H8.2v.016h.032v.016h.049v.017h.049v.016h.05v.016h.081a1.089,1.089,0,0,0,.409.033v-.016h.115v-.011a.235.235,0,0,1,.065-.006v-.016h.065v-.016l.1-.017v-.016l.1-.033v-.016h.032v-.016h.033V17.81l.066-.016.016-.033h.033l.032-.049h.033l.049-.065H9.64l.016-.033.082-.065v-.033l.065-.049.017-.049.032-.017v-.032l.033-.017.016-.065h.017v-.033h.016l.033-.1h.016v-.049h.011A.065.065,0,0,0,10,17.074h.016l.033-.2a.949.949,0,0,0,.032-.392h-.016v-.115h-.016v-.065h-.017V16.24h-.016v-.049H10v-.049H9.983v-.033H9.967V16.06H9.95L9.934,16H9.923a.076.076,0,0,1-.005-.033l-.033-.016-.016-.065-.033-.017v-.033l-.065-.049a4.229,4.229,0,0,0-.475-.49l-.507-.524-.834-.817-.474-.491-.114-.1-.2-.2c-.029-.029-.044-.06-.081-.082.035-.034.079-.015.13-.033v-.016h.066v-.016H7.35V13l.18-.032v-.017l.115-.016v-.016h.049V12.9h.049v-.011a.16.16,0,0,1,.049-.005v-.016h.049v-.017H7.89v-.016h.049v-.017h.049v-.016l.147-.033a9.1,9.1,0,0,0,1.21-.572h.033v-.016h.033v-.017h.033v-.016h.032l.017-.033.065-.016.016-.033.066-.016.016-.033.066-.016.016-.033.065-.016.033-.049h.033l.032-.049h.033l.049-.066.131-.114v-.033l.049-.033V11.58l.033-.017v-.032l.032-.017.017-.065h.016v-.033h.017l.032-.1h.017l.081-.294V10.86h.017v-.114Z"/></g></g></svg>