<svg xmlns="http://www.w3.org/2000/svg" width="8.119" height="17.658" viewBox="0 0 8.119 17.658"><defs><style>.cls-1{fill:#bebebe;}</style></defs><title>Asset 44</title><g id="Layer_2" data-name="Layer 2"><g id="Layer_1-2" data-name="Layer 1"><path class="cls-1" d="M8.119,5.864a9.579,9.579,0,0,1-2.706-.113A7.033,7.033,0,0,1,5.638,3.27a7.081,7.081,0,0,1,2.481-.225V.113L7.105,0s-.042.1-.226.113H4.511C1.87.893,1.762,2.384,1.8,5.751A6.208,6.208,0,0,0,0,5.864V8.8H1.8v5.977a10.283,10.283,0,0,0,.113,2.819,12.526,12.526,0,0,0,3.5-.113V8.8A6,6,0,0,0,7.894,8.57Z"/></g></g></svg>