<svg xmlns="http://www.w3.org/2000/svg" viewBox="0 0 23 23"><defs><style>.cls-1{fill:#5ba3d9;}.cls-2{fill:none;}</style></defs><title>Asset 52</title><g id="Layer_2" data-name="Layer 2"><g id="фото1_copy_2" data-name="фото1 copy 2"><path class="cls-1" d="M20.95,4H2.05A1.016,1.016,0,0,0,1,4.978V18.022A1.016,1.016,0,0,0,2.05,19h18.9A1.016,1.016,0,0,0,22,18.022V4.978A1.016,1.016,0,0,0,20.95,4Zm.35,14.022a.339.339,0,0,1-.35.326H2.05a.339.339,0,0,1-.35-.326V4.978a.339.339,0,0,1,.35-.326h18.9a.339.339,0,0,1,.35.326V18.022Z"/><path class="cls-1" d="M20.28,5.306a.362.362,0,0,0-.255.075L11.951,11.7a.74.74,0,0,1-.9,0L2.975,5.381a.37.37,0,0,0-.345-.057.335.335,0,0,0-.225.25.315.315,0,0,0,.12.306L10.6,12.2a1.477,1.477,0,0,0,1.8,0L20.475,5.88a.318.318,0,0,0,.124-.221.311.311,0,0,0-.081-.238A.358.358,0,0,0,20.28,5.306Z"/><path class="cls-1" d="M7.732,12.155a.367.367,0,0,0-.338.1l-4.9,4.891a.311.311,0,0,0-.085.321.341.341,0,0,0,.259.225.367.367,0,0,0,.338-.1l4.9-4.891a.311.311,0,0,0,.085-.321A.339.339,0,0,0,7.732,12.155Z"/><path class="cls-1" d="M15.606,12.256a.367.367,0,0,0-.338-.1.339.339,0,0,0-.259.225.311.311,0,0,0,.085.321l4.9,4.891a.368.368,0,0,0,.489.011.312.312,0,0,0,.023-.456Z"/><rect class="cls-2" width="23" height="23"/></g></g></svg>