<svg xmlns="http://www.w3.org/2000/svg" width="11" height="14" viewBox="0 0 11 14"><defs><style>.cls-1{fill:#a1b3c7;}</style></defs><title>Asset 38</title><g id="Layer_2" data-name="Layer 2"><g id="Layer_1-2" data-name="Layer 1"><path class="cls-1" d="M0,14V0H4.772A7.525,7.525,0,0,1,8.816.933a3.239,3.239,0,0,1,1.456,2.878,3.048,3.048,0,0,1-.485,1.711A3.318,3.318,0,0,1,8.25,6.689a2.915,2.915,0,0,1,2.022,1.167A3.328,3.328,0,0,1,11,9.956a3.657,3.657,0,0,1-1.375,3.033A6.765,6.765,0,0,1,5.662,14ZM2.912,5.833h1.94a2.828,2.828,0,0,0,1.78-.466,1.3,1.3,0,0,0,.647-1.323,1.682,1.682,0,0,0-.647-1.4,3.1,3.1,0,0,0-1.86-.466H2.912Zm0,1.945v4.044h2.75a2.832,2.832,0,0,0,1.78-.466,1.684,1.684,0,0,0,.646-1.4A1.963,1.963,0,0,0,7.522,8.4a2.419,2.419,0,0,0-1.78-.544H2.912Z"/></g></g></svg>