<svg xmlns="http://www.w3.org/2000/svg" width="18" height="13.263" viewBox="0 0 18 13.263"><defs><style>.cls-1{fill:#a1b3c7;}</style></defs><title>Asset 34</title><g id="Layer_2" data-name="Layer 2"><g id="Layer_1-2" data-name="Layer 1"><path class="cls-1" d="M15.375,12.245l-1.06,1.018-2.06-1.978a10.444,10.444,0,0,1-1.886.441l-.007,0h-.009l-.02,0-.04.005h-.007l0,0c-.023,0-.045,0-.068.007l-.007,0H10.2l-.022,0-.027,0-.015,0h-.006l-.062.007h-.009l-.018,0h-.021l-.016,0-.02,0H9.963l-.024,0-.034,0-.038,0-.01,0h0a10.79,10.79,0,0,1-1.438.026h0l-.04,0H8.334l-.016,0H8.292l-.015,0a.507.507,0,0,1-.055,0H8.2l-.026,0-.024,0H8.133c-.021,0-.043,0-.064,0H8.062l-.008,0c-.023,0-.046,0-.068-.006l-.045,0h0l-.02,0-.024,0h0l-.037,0H7.849A9.943,9.943,0,0,1,5.2,11.117h0l-.1-.041-.006,0,0,0-.06-.025A9.473,9.473,0,0,1,1.71,8.729L1.7,8.719l0,0L1.686,8.7l-.02-.02-.012-.014-.01-.012L1.628,8.64l-.01-.013-.01-.01-.022-.025-.014-.017-.005,0-.051-.059c-.017-.019-.034-.039-.05-.059L1.46,8.447l-.01-.012-.018-.02L1.416,8.4l-.011-.013L1.4,8.375l-.007-.01-.035-.042-.006-.007,0-.006-.035-.044-.006-.007L1.3,8.249l-.012-.014-.016-.02L1.258,8.2l-.013-.017-.008-.01-.006-.007-.022-.03-.016-.02L1.177,8.1l-.024-.031,0,0-.009-.012-.015-.02-.012-.014L1.1,8l-.015-.021L1.08,7.966l-.005,0-.014-.02-.021-.03-.026-.035L1,7.859v0L.99,7.843.973,7.819.964,7.806.957,7.8.942,7.774.931,7.759l0,0-.01-.017L.892,7.7.867,7.665.856,7.65v0l-.01-.013L.829,7.609.82,7.6.813,7.585.8,7.563.788,7.548l0,0-.013-.02L.75,7.49.73,7.46.716,7.436l0,0L.705,7.42.692,7.4.681,7.382.672,7.367.66,7.347.652,7.335l0-.006L.628,7.3.615,7.276l-.01-.018L.582,7.22l0-.008L.572,7.2.561,7.184.549,7.165l-.01-.02L.528,7.128.523,7.119l-.006-.01L.49,7.063l0-.008,0,0L.454,7l-.006-.01,0-.008L.438,6.968.424,6.943.411,6.919.4,6.906.4,6.9.363,6.832l-.03-.057C.211,6.542.1,6.3,0,6.06A8.989,8.989,0,0,1,1.038,4.21l0-.006L1.048,4.2l.017-.023.006-.007c.012-.018.026-.035.038-.051l.044-.06,0,0h0A9.272,9.272,0,0,1,2.9,2.3L1.565,1.018,2.625,0Zm-10.457-8-.049.1a4.929,4.929,0,0,0-.188.5l-.013.044-.014.049,0,.016-.01.035A4.155,4.155,0,0,0,4.5,6.01v.113l0,.049v.05l0,.05v.016l0,.046,0,.047.005.044a3.957,3.957,0,0,0,.133.746l.015.05.009.031.012.04.013.045.017.048,0,.016.016.046.02.054.014.038.014.037a4.473,4.473,0,0,0,2.74,2.569l.04.012.05.016.047.015.05.014.048.014.046.011.045.012a4.615,4.615,0,0,0,.951.139h.051l.048,0h.225a4.763,4.763,0,0,0,1.77-.4L9.726,8.857A3.173,3.173,0,0,1,8.071,8.8l0,0A2.98,2.98,0,0,1,6.331,7.376h0v0l0,0-.013-.023,0-.006h0c0-.011-.011-.022-.017-.033l-.01-.022,0-.006,0,0,0,0,0-.008L6.267,7.25l0,0v0l-.012-.025,0,0,0-.008,0-.007,0-.009,0-.009V7.174l-.01-.022,0,0-.005-.012,0-.006,0,0,0-.01,0-.008h0l0,0L6.2,7.083l-.008-.018v0h0l0-.012,0-.01v0c-.009-.022-.018-.044-.025-.067L6.131,6.9v0h0l-.02-.065V6.827c-.006-.02-.011-.04-.016-.06l0-.007,0-.006,0-.01V6.738h0l-.006-.022,0,0V6.7l0-.013,0-.007V6.675l0,0L6.06,6.64v0l0-.019,0-.009v0l0,0a.177.177,0,0,0,0-.032L6.04,6.533a2.718,2.718,0,0,1,.048-1.17ZM6.675.547a10.341,10.341,0,0,1,3.468-.18l.075.009.06.007L10.366.4,10.4.4c.04.006.082.012.123.02h0A10.077,10.077,0,0,1,11.83.7l.029.008L11.9.724l.066.019.06.019.1.03.053.019a9.684,9.684,0,0,1,4.591,3.16l.027.034.052.067.052.07.052.067.05.07.05.068.029.042A8.653,8.653,0,0,1,18,6.059a8.592,8.592,0,0,1-.98,1.754l0,.008,0,.006L17,7.844l-.01.01-.035.052-.041.053-.006.008,0,0a9.326,9.326,0,0,1-1.9,1.88L13.04,7.966l.033-.065.072-.154c.048-.112.048-.112.091-.224a4.751,4.751,0,0,0,.172-.588l.008-.037,0-.01.006-.03V6.851l.007-.039.006-.038,0,0,.006-.037v0c.014-.081.024-.162.033-.243v0l0-.041.005-.04v0l0-.035V6.356l0-.03,0-.008V6.281l0-.013V6.21l0-.02V6l0-.055V5.89l0-.044v-.01l0-.052,0-.049,0-.015,0-.036V5.669l-.006-.049-.005-.048V5.557l-.005-.036,0-.016-.006-.044,0-.02,0-.026-.005-.026,0-.018-.02-.107v0a4.2,4.2,0,0,0-.17-.614l0-.008-.012-.03-.005-.014-.01-.028-.009-.024-.006-.014L13.2,4.51l-.01-.027-.008-.017-.011-.03-.007-.014-.019-.045-.02-.042,0-.008-.019-.038L13.1,4.274l-.014-.03-.013-.027,0,0a4.484,4.484,0,0,0-2.586-2.237l-.033-.01-.016-.006-.04-.013-.01,0-.046-.015-.05-.014-.019,0L10.241,1.9,10.215,1.9l-.021-.006-.03-.007-.015,0a4.617,4.617,0,0,0-1-.14l-.009,0H8.867l-.037,0H8.78l-.027,0h-.01a4.6,4.6,0,0,0-1.063.183l-.009,0-.029.008-.009,0-.034.01a4.822,4.822,0,0,0-.546.213l-.036.016L5.625.844A10.536,10.536,0,0,1,6.67.548h0Zm5.3,5.147a2.8,2.8,0,0,1-.092,1.161L8.172,3.292a3.131,3.131,0,0,1,1.962.1l.033.014.045.019.046.02a2.9,2.9,0,0,1,1.7,2.155l.01.057.005.037Z"/></g></g></svg>