<svg xmlns="http://www.w3.org/2000/svg" width="16.038" height="16.051" viewBox="0 0 16.038 16.051"><defs><style>.cls-1{fill:#bebebe;}</style></defs><title>Asset 46</title><g id="Layer_2" data-name="Layer 2"><g id="Layer_1-2" data-name="Layer 1"><path class="cls-1" d="M12.031,7.188V7l-.064-.032-.016-.241H11.9c0-.037,0-.045-.016-.064a.533.533,0,0,0-.016-.16h-.064V6.322h-.08l-.016-.16h-.065l-.016-.144h-.064l-.016-.16h-.064c0-.041,0-.06-.016-.08s-.014-.011-.048-.016l-.016-.129H11.39V5.617h-.064v-.08h-.08l-.016-.112h-.064L11.15,5.3h-.081v-.08h-.064a.2.2,0,0,0-.016-.08h-.064V5.072h-.08v-.1h-.1V4.9l-.128-.016V4.816l-.1-.016V4.736h-.081c0-.038,0-.045-.016-.064a.264.264,0,0,0-.144-.032V4.592h-.016V4.576h-.08V4.5l-.128-.016V4.415L9.9,4.4V4.335l-.177-.016V4.255h-.16V4.191l-.24-.032V4.111c-.127,0-.2-.026-.3-.032a.186.186,0,0,0,.016-.064A.746.746,0,0,1,8.7,3.983c-.013-.018-.01-.014-.016-.049H7.367V4a.168.168,0,0,0-.144.016c-.157-.006-.235-.035-.224.064a.75.75,0,0,1-.273.032v.048a.291.291,0,0,0-.128.032c-.089,0-.081-.014-.08.048a.4.4,0,0,0-.176.032c-.014.018-.011.014-.017.048l-.144.016v.048H6.165a.194.194,0,0,1-.144.032v.064l-.16.016v.081c-.038,0-.045,0-.064.016H5.765V4.64l-.129.016v.08c-.04,0-.059,0-.08.016s-.01.014-.016.048H5.46v.016H5.444V4.88L5.3,4.9v.08H5.236a.284.284,0,0,1-.016.1H5.156v.065H5.075v.08h-.1V5.3H4.9l-.016.128a.156.156,0,0,0-.08.032v.08H4.755v.016H4.739v.064H4.675l-.016.145H4.6v.1H4.5l-.016.16H4.418L4.4,6.162H4.354v.016H4.338l-.016.144H4.274L4.258,6.5H4.194l-.016.224H4.114a1.031,1.031,0,0,0,0,.225V6.98h-.1c0,.134-.01.271-.016.384H3.937V8.678H4c.006.1.017.217.016.337.124.013.1.147.1.289h.048a.679.679,0,0,1,.032.256h.064l.016.16h.048a.368.368,0,0,0,.032.144V9.9H4.4a.3.3,0,0,0,.032.128c.018.014.014.01.048.016l.016.144h.1v.1h.064a.229.229,0,0,0,.032.144c.018.014.014.011.048.016.012.125.036.038.08.1.015.019,0,.032.016.048s.014.01.048.016l.016.128a.2.2,0,0,0,.08,0v.112h.1v.064a.25.25,0,0,1,.081.016v.064h.08v.08c.1.01.078.051.144.081.019.014.026.013.064.016v.048H5.46v.016h.08a.288.288,0,0,0,.016.1h.08v.064l.129.016v.064h.1v.08l.16.016v.048h.016v.016l.144.016v.049H6.2v.016l.128.016v.064a.669.669,0,0,1,.177.032c.014.018.01.014.016.048.04,0,.059,0,.08.016a.235.235,0,0,1,.128.016c.014.018.011.014.016.048a.317.317,0,0,1,.16.016c.084,0,.09-.008.081.048a1.916,1.916,0,0,0,.48.032v.064H8.617c-.006-.034,0-.03-.016-.048v-.016l.417-.016V11.98a2.73,2.73,0,0,1,.3-.032v-.064l.24-.016V11.8a.533.533,0,0,0,.16-.016v-.064c.038,0,.045,0,.064-.016a.163.163,0,0,0,.1-.016c.014-.018.011-.014.017-.049l.144-.016v-.064l.144-.016a.243.243,0,0,1,.016-.08h.08V11.4l.16-.016v-.064c.137-.017.027-.076.177-.112v-.048l.1-.016c.01-.054.017-.037.032-.081h.1v-.08h.08v-.08h.08v-.064h.064c0-.121.047-.1.081-.176.014-.019.013-.027.016-.064h.064v-.08h.1v-.1h.08l.016-.144h.048v-.016h.016v-.08h.064l.016-.144h.064l.016-.144h.065l.016-.177h.08V9.56a.243.243,0,0,0,.08-.016L11.9,9.3h.048l.032-.289h.048c0-.159.028-.275.032-.417h.048V7.46h-.048A1.019,1.019,0,0,0,12.031,7.188Zm-1.3,1.042h-.016c-.018.014-.014.01-.048.016,0,.137,0,.287-.016.4h-.048c-.011.107-.022.214-.032.321h-.048l-.016.16h-.065l-.016.16h-.064l-.016.161h-.08v.1h-.08a.268.268,0,0,1-.16.24v.08c-.038,0-.045,0-.064.016-.019.032-.005.012,0,.049H9.948v.016H9.883v.08a.157.157,0,0,0-.1.016c-.014.018-.01.014-.016.048-.034.006-.03,0-.048.016H9.691v.048a.668.668,0,0,1-.144.032v.064a.243.243,0,0,0-.08.016v.064a.665.665,0,0,1-.16.032v.064a.291.291,0,0,0-.145.016c-.014.018-.01.014-.016.049l-.16.016v.064l-.321.016v.064c-.122.008-.272.017-.416.016v.048H7.8v-.048c-.124,0-.327.024-.4-.032-.018-.032,0-.012,0-.048-.111,0-.212-.011-.3-.016v-.064a1.175,1.175,0,0,0-.16,0V10.49H6.918c-.008-.041-.006-.009,0-.049a.5.5,0,0,0-.16-.016v-.064l-.128-.016a.215.215,0,0,1-.016-.08c-.05-.008-.039-.011-.08,0a.2.2,0,0,1-.016-.08l-.144-.016a.156.156,0,0,1-.016-.064c-.051-.006-.025-.007-.065,0a.22.22,0,0,1-.016-.08H6.2a.2.2,0,0,0-.016-.08H6.117V9.864h-.08v-.1c-.041,0-.06,0-.08-.016H5.941l.016-.032H5.941V9.688H5.877l-.016-.144a.238.238,0,0,1-.08-.016v-.08H5.732c0-.034,0-.03-.016-.048A.319.319,0,0,0,5.7,9.287H5.636a.267.267,0,0,0-.016-.144V9.127l-.032.016V9.127c-.038-.015-.035-.071-.032-.16h-.08a1.878,1.878,0,0,1-.016-.24H5.412a1.537,1.537,0,0,1-.032-.481H5.332c-.006-.148,0-.316,0-.465H5.38c0-.133-.029-.365.032-.449.018-.014.014-.01.048-.016l.016-.24h.08V6.9h.08v-.16h.08L5.732,6.6h.049v-.08h.08l.016-.16h.064c0-.041,0-.06.016-.081s.027,0,.048-.016h.032v-.08a.2.2,0,0,1,.064.016.2.2,0,0,0,.016-.08A.238.238,0,0,0,6.2,6.1V6.034c.1-.01.037-.017.08-.08.012-.016.05-.018.065-.032s.01-.014.016-.048l.16-.016v-.08h.1V5.713L6.758,5.7V5.633L6.9,5.617V5.553A.627.627,0,0,0,7.1,5.537V5.473A1.022,1.022,0,0,1,7.3,5.457a.174.174,0,0,0,.016-.064c.114,0,.451.008.481-.08.135,0,.434-.044.465.064.16,0,.325.011.465.016.018.08.149.079.256.08A.243.243,0,0,0,9,5.553h.144v.064l.161.016V5.7l.16.016v.065h.1v.08l.128.016v.048a.334.334,0,0,1,.08.032c.013.02,0,.016,0,.064h.016v.016h.1v.08h.081c0,.068.006.067.064.08v.064c.092.008.056.028.1.081.018.013.014.01.048.016.006.034,0,.03.016.048a.313.313,0,0,0,.016.112h.064V6.6c.038,0,.045,0,.064.016a.174.174,0,0,1,.032.128h.064l.016.16h.049v.016h.016l.016.177h.048l.032.288h.048a3.889,3.889,0,0,1,.016.417h.064ZM15.99,5.681c-.031-.487-.034-1-.032-1.506H15.91l-.032-.561h-.049a.15.15,0,0,0-.016-.1c0-.067.014-.185-.016-.225-.017-.013-.013-.01-.048-.016l-.016-.256h-.048a.992.992,0,0,1-.032-.224h-.08l-.016-.241h-.064l-.016-.16h-.064L15.4,2.252h-.064c0-.077,0-.086-.064-.1.017-.063-.011-.074-.016-.16h-.065l-.016-.144h-.1v-.08c-.037,0-.045,0-.064-.016s0,0,0-.048c-.091-.04-.045-.032-.1-.1C14.9,1.6,14.9,1.6,14.868,1.6a.234.234,0,0,0-.16-.193.477.477,0,0,1-.016-.112c-.149,0-.131-.076-.241-.1,0-.036,0-.063-.016-.08h-.048l-.032-.08h-.064V.969h-.08V.889L14.05.873V.825c-.091-.039-.109-.094-.24-.1V.649L13.65.633V.569L13.49.553V.489L13.265.473V.409l-.24-.016V.344c-.018-.014,0,0-.016-.016L12.784.312V.264a.226.226,0,0,1-.128-.016.7.7,0,0,1-.208-.016V.168L11.983.136V.088c-.539,0-1.083,0-1.6-.032V.008H5.957C5.839.008,5.7-.029,5.7.056,5.179.076,4.637.09,4.1.088V.136L3.617.168v.08L3.28.264V.312L3.056.328,3.04.376A.627.627,0,0,1,2.8.409V.473c-.035.005-.031,0-.049.016a.361.361,0,0,0-.176.016c-.014.017-.01.013-.016.048L2.415.569V.617a.409.409,0,0,1-.16.032v.08L2.094.745V.809a.128.128,0,0,0-.08.016C2,.843,2,.839,2,.873L1.87.889c0,.046-.013.023,0,.048V.969h-.1v.065a.2.2,0,0,0-.08.016v.064a.261.261,0,0,0-.1.016v.064a.218.218,0,0,0-.129.048c-.014.018-.01.014-.016.048H1.389v.08h-.08v.08h-.08l-.016.129h-.08a.469.469,0,0,0-.016.112H1.053a.243.243,0,0,1-.016.08H.972v.08H.908L.892,2H.828v.08H.748a1.193,1.193,0,0,0,0,.161.261.261,0,0,1-.1.016L.636,2.4H.588v.016H.572l-.016.144H.508v.016H.492L.476,2.8H.428a.361.361,0,0,1-.049.208H.347l-.016.224c-.009.023-.063.048-.063.048C.262,3.39.257,3.5.251,3.614H.171L.155,4.1H.091Q.083,4.889.075,5.681c-.051.012-.028-.009-.048.032a1.066,1.066,0,0,0-.016.3V9.384c0,.218.017.544,0,.625a.755.755,0,0,0,.016.336v.032H.075q.008.793.016,1.587H.155l.016.481h.08l.016.336H.315a2.1,2.1,0,0,1,.032.225H.4a2.345,2.345,0,0,1,.033.256H.476c0,.038,0,.045.016.064-.008.114,0,.16.08.145a.47.47,0,0,0,0,.16H.636l.016.176h.1v.144h.08v.1H.892l.016.16H.972a.243.243,0,0,0,.016.08h.065v.08h.064a.2.2,0,0,0,.016.08h.08c0,.038,0,.045.016.064s.014.011.048.016a.673.673,0,0,1,.032.161h.08c.016.067.047.052.08.1h.048v.048h.016v.011a.285.285,0,0,0,.065.005.2.2,0,0,0,.016.08h.08v.064h.08a.243.243,0,0,0,.016.08h.08v.1H2v.065a.79.79,0,0,0,.176.032v.048h.017v.016h.064v.064l.16.016v.064h.16v.08l.241.016a.2.2,0,0,0,.016.08l.208.016v.048c.107,0,.161.027.256.032v.048l.321.016v.065l.561.016v.064l1.506.016v.048a7.317,7.317,0,0,0,1.17.016H9.162c.268,0,.6-.007.818,0a.94.94,0,0,0,.368-.016h.032v-.048l1.523-.016v-.064l.545-.016V15.81l.336-.016V15.73l.241-.016v-.048c.037,0,.045,0,.064-.016a.547.547,0,0,0,.176-.016V15.57a.481.481,0,0,0,.192-.032h.033v-.064a.288.288,0,0,0,.144-.016c.014-.018.01-.014.016-.048l.16-.016V15.33c.038,0,.045,0,.064-.016h.032v-.048c.034-.006.03,0,.048-.016.141,0,.068-.087.193-.081.014-.02,0-.048.016-.064a.177.177,0,0,1,.128-.032v-.08h.08v-.064a.243.243,0,0,0,.08-.016v-.064c.038,0,.045,0,.064-.016s.011-.014.016-.048H14.6l.016-.08a.3.3,0,0,0,.1-.016v-.081h.064l.016-.08c.034-.006.03,0,.048-.016h.032v-.064h.048v-.016h.016v-.064H15c.006-.05.007-.025,0-.064a.22.22,0,0,1,.08-.016v-.08h.1l.016-.16h.048l.033-.145c.043-.055.057.019.064-.1H15.4a.3.3,0,0,1,.032-.16c.018-.014.014-.011.048-.016,0-.063.02-.114,0-.144v-.016h.08l.016-.209h.08l.016-.256h.064l.016-.241H15.8v-.016h.016c0-.111.011-.212.016-.3h.049l.032-.561h.048a3.127,3.127,0,0,1,.016-.625V11c0-.207,0-.442.016-.625h.048v-4.7Zm-1.411,5.85h-.064l-.016.545h-.048c-.018.09-.023.245-.032.337h-.048l-.016.24h-.064l-.016.241h-.064l-.016.16h-.08l-.016.16h-.065l-.016.1h-.064v.08H13.89c-.005.081-.024.071-.032.145H13.81v.016h-.016v.064a.22.22,0,0,0-.08.016v.08h-.08v.016c-.014.018-.011.014-.016.048h-.064l-.016.08-.129.016v.08h-.1v.064c-.037,0-.045,0-.064.016s-.011.014-.016.049a.229.229,0,0,0-.144.032h-.032v.064l-.144.032c-.023.015-.022.05-.065.064-.06.019-.134-.013-.176.016-.014.018-.01.014-.016.048l-.224.016v.064c-.1.007-.216.017-.337.016v.048c-.176.012-.366.034-.577.032v.048c-.255,0-.54.016-.817.016a2.945,2.945,0,0,0-.577.016h-3.9l-1.282-.016-.32-.016c-.031,0-.042-.055-.081-.032v.032c-.013-.017-.01-.013-.016-.048a1.7,1.7,0,0,1-.544-.032H3.953v-.048c-.111,0-.212-.01-.3-.016v-.064l-.256-.016v-.048H3.377v-.016l-.209-.016v-.048l-.16-.016a.2.2,0,0,1-.016-.08l-.144-.032v-.049l-.1-.016v-.064h-.08v-.08l-.16-.016a.243.243,0,0,0-.016-.08H2.431v-.048H2.415c-.018-.014-.014-.011-.048-.016l-.016-.1H2.287a.238.238,0,0,0-.016-.08H2.207l-.016-.145h-.1v-.08H2.03c0-.037,0-.045-.016-.064v-.032H1.966c-.007-.077-.029-.09-.016-.144a.174.174,0,0,0-.064-.016c0-.038,0-.045-.016-.064,0-.041,0-.06-.016-.08s-.014-.011-.048-.016c0-.038,0-.045-.016-.065a.331.331,0,0,0-.016-.16c-.018-.014-.014-.01-.048-.016l-.016-.24H1.63l-.016-.321H1.549c0-.187-.01-.374-.016-.561H1.485c-.005-.171-.01-.342-.016-.513a2.588,2.588,0,0,0-.016-.512V5.553a2.683,2.683,0,0,0,.016-.529c.006-.171.011-.342.016-.513h.048a1.9,1.9,0,0,1,.032-.56c.018-.014.014-.011.049-.017,0-.111.01-.212.016-.3h.08a2.065,2.065,0,0,1,.016-.24h.048V3.374H1.79l.016-.209h.048V3.149H1.87l.016-.16h.048c0-.088.024-.086.032-.16h.048V2.813H2.03V2.748h.064v-.08h.1l.016-.16a.249.249,0,0,0,.08-.016V2.428h.048V2.412h.016V2.348a.243.243,0,0,0,.08-.016V2.268c.038,0,.045,0,.064-.016s.011-.014.016-.048l.16-.016v-.1h.08v-.08h.1V1.947l.144-.016V1.867l.176-.016V1.787l.225-.016V1.723h.016V1.707a1.324,1.324,0,0,1,.224,0,.22.22,0,0,0,.016-.08c.038,0,.045,0,.064-.016.067,0,.185.013.224-.016.014-.018.011-.014.016-.049l.561-.016V1.466c2.308,0,4.713,0,7.02,0V1.53l.561.016V1.6l.337.032a.225.225,0,0,0,.016.08h.208v.064c.189,0,.238.087.4.1v.064l.176.016v.064h.08a.238.238,0,0,0,.016.08h.08v.1l.129.016v.048c.017.014,0,0,.016.016h.064a.22.22,0,0,0,.016.08h.08a.243.243,0,0,0,.016.08h.064c0,.038,0,.045.016.064s.014.011.048.016a.655.655,0,0,1,.032.16h.064a.238.238,0,0,0,.016.08h.064v.081h.049v.016a.2.2,0,0,1,.032.144h.08l.016.176h.064l.016.225h.064l.016.24h.048c0,.038,0,.045.016.064a.557.557,0,0,0,.016.24c.018.014.014.011.048.017a.331.331,0,0,0,.016.16c-.005.13-.04.387.064.416C14.58,6.831,14.578,9.227,14.579,11.531ZM13.153,3.277h-.064l-.016-.128c-.034-.006-.03,0-.048-.016-.039-.02-.042-.029-.016-.064a.161.161,0,0,0-.08-.032V2.973l-.145-.016V2.893l-.176-.016V2.813h-.593v.064l-.208.016v.08c-.094,0-.1.008-.1.064H11.63c0,.091-.016.088-.08.112v.064h-.064c0,.041,0,.06-.016.08-.005.08-.018.071-.064.065v.769h.064l.016.144h.064c0,.038,0,.045.016.064s.014.011.048.016a.238.238,0,0,0,.016.08H11.7v.048h.016V4.5h.1v.1l.144.016v.048c.226,0,.493,0,.721,0V4.592l.176-.016V4.5a.206.206,0,0,0,.081-.016V4.415h.08v-.08h.064a.367.367,0,0,1,.032-.128h.048l.016-.176h.08V3.438h-.08Z"/></g></g></svg>