<svg xmlns="http://www.w3.org/2000/svg" viewBox="0 0 32 32">
  <defs>
    <style>
      .cls-1{fill:#aad2f0;}.cls-2{fill:none;}
    </style>
  </defs>
  <title>
    Ресурс 3
  </title>
  <g id="Слой_2" data-name="Слой 2">
    <g id="фото1_copy_2" data-name="фото1 copy 2">
      <path class="cls-1" d="M19.66,19.66a.61.61,0,0,0-.61.6v3.89a3,3,0,0,1-3.05,3H12.38a.6.6,0,0,0-.61.6V29l-1.46-1.43a.6.6,0,0,0-.56-.36H5.27a3,3,0,0,1-3-3l.07-8.74a3,3,0,0,1,3.05-3h5.27a.6.6,0,1,0,0-1.2H5.34a4.23,4.23,0,0,0-4.27,4.2L1,24.15a4.25,4.25,0,0,0,4.27,4.21H9.44l2.5,2.46a.61.61,0,0,0,.43.18.52.52,0,0,0,.24-.05A.58.58,0,0,0,13,30.4v-2h3a4.24,4.24,0,0,0,4.27-4.21V20.26A.6.6,0,0,0,19.66,19.66Z"/>
      <path class="cls-1" d="M23.13,1H21.08a8.81,8.81,0,0,0-8.87,8.73,8.81,8.81,0,0,0,8.87,8.73h2.05a9,9,0,0,0,2.25-.29l2.28,2.25a.63.63,0,0,0,.43.17.67.67,0,0,0,.24,0A.6.6,0,0,0,28.7,20V16.52A8.87,8.87,0,0,0,31,13.69a8.51,8.51,0,0,0,1-4A8.81,8.81,0,0,0,23.13,1Zm4.6,14.75a.58.58,0,0,0-.25.48v2.31L26,17.08a.6.6,0,0,0-.43-.18.57.57,0,0,0-.18,0,7.81,7.81,0,0,1-2.25.33H21.08a7.6,7.6,0,0,1-7.65-7.53A7.6,7.6,0,0,1,21.08,2.2h2.05a7.6,7.6,0,0,1,7.65,7.53A7.43,7.43,0,0,1,27.73,15.75Z"/>
      <path class="cls-1" d="M13.17,17.57a2.65,2.65,0,0,0-4.43-1.71,2.58,2.58,0,0,0-.83,1.89.62.62,0,1,0,1.24,0,1.38,1.38,0,0,1,.44-1,1.4,1.4,0,0,1,2.34.9,1.38,1.38,0,0,1-1.08,1.44,1.15,1.15,0,0,0-.93,1.13v2.13a.62.62,0,0,0,1.24,0V20.27A2.58,2.58,0,0,0,13.17,17.57Z"/>
      <path class="cls-1" d="M11,24.07a.65.65,0,0,0-.92,0,.64.64,0,0,0-.19.45.66.66,0,0,0,.19.46A.68.68,0,0,0,11,25a.66.66,0,0,0,.19-.46A.64.64,0,0,0,11,24.07Z"/>
      <path class="cls-1" d="M21.5,5.43v6.25a.64.64,0,0,0,1.28,0V5.43a.64.64,0,0,0-1.28,0Z"/>
      <path class="cls-1" d="M22.59,13.73a.62.62,0,0,0-.45-.19.64.64,0,0,0,0,1.27.62.62,0,0,0,.45-.19.62.62,0,0,0,0-.89Z"/>
      <rect class="cls-2" width="32" height="32"/>
    </g>
  </g>
</svg>
