<svg xmlns="http://www.w3.org/2000/svg" viewBox="0 0 32 32">
  <defs>
    <style>
      .cls-1{fill:#aad2f0;}.cls-2{fill:none;}
    </style>
  </defs>
  <title>
    Ресурс 2
  </title>
  <g id="Слой_2" data-name="Слой 2">
    <g id="фото1_copy_2" data-name="фото1 copy 2">
      <path class="cls-1" d="M17.84,22.68l.28.15a1.64,1.64,0,0,0,2.09-.43l1.52-1.95a.53.53,0,0,1,.71-.12l5.22,3.48a.54.54,0,0,1,.16.72l-1.31,2.18a2.1,2.1,0,0,1-1.24,1c-2.61.71-7.18.11-14.11-6.83S3.62,9.34,4.34,6.73a2.06,2.06,0,0,1,1-1.24L7.48,4.18a.53.53,0,0,1,.71.17l3.48,5.21a.55.55,0,0,1-.12.72l-2,1.51a1.64,1.64,0,0,0-.43,2.09l.16.28a18.48,18.48,0,0,0,3.74,4.78A18.57,18.57,0,0,0,17.84,22.68Zm-5.7-6.36a13.35,13.35,0,0,1-1.84-2.69l-.16-.29a.51.51,0,0,1,.14-.67l2-1.52A1.64,1.64,0,0,0,12.59,9L11.28,7,10.17,5.32,9.11,3.73a1.62,1.62,0,0,0-2.2-.49L4.73,4.54a3.2,3.2,0,0,0-1.46,1.9c-.79,2.89-.21,7.87,7.11,15.19C16.19,27.44,20.53,29,23.52,29a7.9,7.9,0,0,0,2.05-.27,3.2,3.2,0,0,0,1.89-1.45l1.31-2.18a1.64,1.64,0,0,0-.5-2.21l-5.21-3.48a1.66,1.66,0,0,0-2.21.36l-1.51,1.95a.54.54,0,0,1-.68.15l-.29-.16a17.52,17.52,0,0,1-4.52-3.56c-.26-.25-.49-.5-.71-.73Z"/>
      <rect class="cls-2" width="32" height="32"/>
    </g>
  </g>
</svg>
