<svg xmlns="http://www.w3.org/2000/svg" viewBox="0 0 32 32">
  <defs>
    <style>
      .cls-1{fill:#aad2f0;}.cls-2,.cls-3{fill:none;}.cls-2{stroke:#aad2f0;stroke-miterlimit:10;stroke-width:1.15px;}
    </style>
  </defs>
  <title>
    Ресурс 1
  </title>
  <g id="Слой_2" data-name="Слой 2">
    <g id="фото1_copy_2" data-name="фото1 copy 2">
      <path class="cls-1" d="M15.22,9.68v8.13a.75.75,0,0,0,.65.82.75.75,0,0,0,.65-.82V9.68s0-.81-.65-.81S15.22,9.68,15.22,9.68Z"/>
      <path class="cls-1" d="M16.33,20.47a.56.56,0,0,0-.92,0,1,1,0,0,0,0,1.16.56.56,0,0,0,.92,0,1,1,0,0,0,0-1.16Z"/>
      <path class="cls-2" d="M9.41,2.5A5.66,5.66,0,0,1,8.21,6,5.53,5.53,0,0,1,4.8,7.21s-1.12,7.94.25,12.05c2.89,8.61,8.14,7.43,10.69,11.24,2.55-3.81,7.81-2.63,10.69-11.24,1.38-4.11.26-12,.26-12A5.53,5.53,0,0,1,23.28,6a5.66,5.66,0,0,1-1.2-3.45Z"/>
      <rect class="cls-3" width="32" height="32"/>
    </g>
  </g>
</svg>
