<svg xmlns="http://www.w3.org/2000/svg" xmlns:xlink="http://www.w3.org/1999/xlink" width="23" height="23" viewBox="0 0 23 23">
    <defs>
        <clipPath id="clip-path" transform="translate(0 0)">
            <rect width="23" height="23" style="fill:none"/>
        </clipPath>
        <style>
            .cls-4{fill:#575756}
        </style>
    </defs>
    <title>
        Contact_buhgalter
    </title>
    <g id="Layer_2" data-name="Layer 2">
        <g id="Layer_1-2" data-name="Layer 1">
            <g style="clip-path:url(#clip-path)">
                <g style="opacity:.85">
                    <path class="cls-4" d="M11.5,7A4.5,4.5,0,1,0,16,11.5,4.5,4.5,0,0,0,11.5,7Zm0,8.182A3.682,3.682,0,1,1,15.182,11.5,3.683,3.683,0,0,1,11.5,15.182Z" transform="translate(0 0)"/>
                    <path class="cls-4" d="M21.85,5H1.15A1.188,1.188,0,0,0,0,6.219V16.781A1.188,1.188,0,0,0,1.15,18h20.7A1.188,1.188,0,0,0,23,16.781V6.219A1.188,1.188,0,0,0,21.85,5Zm0,.813a.394.394,0,0,1,.383.406V8.631a3.169,3.169,0,0,1-2.659-2.818ZM.767,6.219a.394.394,0,0,1,.383-.406H3.426A3.17,3.17,0,0,1,.767,8.631ZM1.15,17.188a.4.4,0,0,1-.383-.407V14.369a3.17,3.17,0,0,1,2.659,2.819Zm3.047,0a3.961,3.961,0,0,0-3.43-3.636v-4.1A3.96,3.96,0,0,0,4.2,5.813H18.8a3.959,3.959,0,0,0,3.43,3.635v4.1a3.96,3.96,0,0,0-3.43,3.636Zm18.036-.407a.4.4,0,0,1-.383.407H19.574a3.169,3.169,0,0,1,2.659-2.819Z" transform="translate(0 0)"/>
                    <path class="cls-4" d="M9.371,2.3l-.5-.5H14.85a.384.384,0,0,1,.383.384v.768H16V2.19a1.152,1.152,0,0,0-1.15-1.151H8.875l.5-.5L8.829,0,7.408,1.423,8.829,2.845Z" transform="translate(0 0)"/>
                    <path class="cls-4" d="M14.629,20.7l.5.5H9.15a.383.383,0,0,1-.383-.384v-.767H8v.767a1.151,1.151,0,0,0,1.15,1.151h5.975l-.5.5.542.543,1.421-1.422-1.421-1.423Z" transform="translate(0 0)"/>
                    <path class="cls-4" d="M8,18.288h.767v.767H8Z" transform="translate(0 0)"/>
                    <path class="cls-4" d="M15.233,3.721H16v.767h-.767Z" transform="translate(0 0)"/>
                </g>
            </g>
        </g>
    </g>
</svg>
