<svg xmlns="http://www.w3.org/2000/svg" xmlns:xlink="http://www.w3.org/1999/xlink" width="19" height="19" viewBox="0 0 19 19">
    <defs>
        <clipPath id="clip-path" transform="translate(-2 -2)">
            <rect width="23" height="23" style="fill:none"/>
        </clipPath>
    </defs>
    <title>
        Contact_tel
    </title>
    <g id="Layer_2" data-name="Layer 2">
        <g id="Layer_1-2" data-name="Layer 1">
            <g style="clip-path:url(#clip-path)">
                <g style="opacity:.9">
                    <path d="M12.846,16.379l.205.113a1.19,1.19,0,0,0,1.524-.314l1.109-1.426a.391.391,0,0,1,.524-.085l3.81,2.539a.39.39,0,0,1,.118.525l-.955,1.592a1.539,1.539,0,0,1-.905.7c-1.907.524-5.246.08-10.314-4.988S2.452,6.631,2.976,4.725a1.53,1.53,0,0,1,.7-.9L5.27,2.865a.39.39,0,0,1,.525.118l2.54,3.81a.392.392,0,0,1-.085.525L6.824,8.427A1.188,1.188,0,0,0,6.51,9.95l.113.205a13.34,13.34,0,0,0,2.734,3.49A13.423,13.423,0,0,0,12.846,16.379ZM8.678,11.733A10.136,10.136,0,0,1,7.332,9.77l-.117-.212a.386.386,0,0,1,.1-.493l1.427-1.11a1.2,1.2,0,0,0,.261-1.609l-.959-1.44L7.241,3.7l-.773-1.16a1.2,1.2,0,0,0-1.615-.363l-1.591.957A2.33,2.33,0,0,0,2.2,4.512c-.581,2.113-.15,5.754,5.194,11.1C11.64,19.856,14.809,21,16.993,21a5.691,5.691,0,0,0,1.5-.2,2.34,2.34,0,0,0,1.383-1.066l.956-1.592a1.2,1.2,0,0,0-.363-1.613L16.656,14a1.2,1.2,0,0,0-1.61.261l-1.109,1.426a.388.388,0,0,1-.494.105l-.211-.117a12.685,12.685,0,0,1-3.3-2.6c-.189-.189-.36-.365-.52-.535Z" transform="translate(-2 -2)" style="fill:#5ba3d9"/>
                </g>
            </g>
        </g>
    </g>
</svg>
