<svg xmlns="http://www.w3.org/2000/svg" width="23" height="23" viewBox="0 0 23 23">
  <g>
    <g opacity=".85">
      <g opacity=".85">
        <path
          d="M11.5 7.005a4.505 4.505 0 0 1 4.5 4.5 4.5 4.5 0 1 1-4.5-4.5zm0 8.182a3.683 3.683 0 1 0-.001-7.363 3.683 3.683 0 0 0 .001 7.363z"/>
      </g>
      <g opacity=".85">
        <path
          d="M21.85 5.005c.634.001 1.15.546 1.15 1.218v10.563c0 .673-.516 1.218-1.15 1.22H1.15C.515 18.003 0 17.458 0 16.785V6.223c0-.672.515-1.217 1.15-1.218zm-2.276.812c.177 1.472 1.27 2.631 2.66 2.82V6.222c0-.224-.173-.406-.384-.406zM.766 8.637c1.39-.189 2.483-1.348 2.66-2.82H1.15c-.212 0-.383.182-.384.406zm2.66 8.555c-.177-1.47-1.27-2.63-2.66-2.818v2.412c.001.224.172.406.384.406zm15.376 0c.185-1.92 1.62-3.44 3.431-3.635V9.453c-1.812-.196-3.246-1.715-3.43-3.636H4.196C4.012 7.738 2.58 9.257.767 9.453v4.104c1.812.195 3.245 1.714 3.43 3.635zm3.431-2.818c-1.389.188-2.482 1.347-2.659 2.818h2.276c.211 0 .383-.182.383-.406z"/>
      </g>
      <g opacity=".85">
        <path
          d="M9.371 2.308l-.496-.496h5.975c.211 0 .383.172.383.384v.767H16v-.767a1.153 1.153 0 0 0-1.15-1.152H8.875l.496-.496L8.83.005 7.41 1.428l1.42 1.422z"/>
      </g>
      <g opacity=".85">
        <path
          d="M14.629 20.703l.496.496H9.15a.384.384 0 0 1-.383-.384v-.767H8v.767a1.153 1.153 0 0 0 1.15 1.152h5.975l-.496.496.542.542 1.42-1.422-1.42-1.423z"/>
      </g>
      <g opacity=".85">
        <path d="M8 18.292h.767v.767H8z"/>
      </g>
      <g opacity=".85">
        <path d="M15.233 3.726H16v.767h-.767z"/>
      </g>
    </g>
  </g>
</svg>
