<svg xmlns="http://www.w3.org/2000/svg" width="19" height="19" viewBox="0 0 19 19">
  <g>
    <g opacity=".9">
      <g opacity=".9">
        <path
          d="M11.051 14.497a1.189 1.189 0 0 0 1.523-.314l1.11-1.426a.392.392 0 0 1 .524-.085l3.81 2.539a.39.39 0 0 1 .118.525l-.956 1.592a1.525 1.525 0 0 1-.904.702c-1.908.525-5.246.082-10.314-4.987C.894 7.975.452 4.636.975 2.73c.11-.38.36-.704.702-.904L3.27.87a.391.391 0 0 1 .525.118l2.54 3.81a.39.39 0 0 1-.085.524l-1.426 1.11a1.187 1.187 0 0 0-.314 1.523l.112.205c.404.74.906 1.66 2.735 3.49 1.828 1.828 2.75 2.33 3.49 2.734zm-4.373-4.76a10.185 10.185 0 0 1-1.347-1.962l-.116-.212a.385.385 0 0 1 .104-.493l1.427-1.11a1.201 1.201 0 0 0 .261-1.61l-.959-1.44-.807-1.21L4.468.54A1.197 1.197 0 0 0 2.853.177l-1.59.957A2.33 2.33 0 0 0 .195 2.517C-.384 4.63.046 8.27 5.39 13.616c4.25 4.246 7.418 5.389 9.602 5.389a5.61 5.61 0 0 0 1.498-.195 2.336 2.336 0 0 0 1.383-1.066l.956-1.592a1.198 1.198 0 0 0-.363-1.613l-3.81-2.54a1.204 1.204 0 0 0-1.61.262l-1.109 1.426a.386.386 0 0 1-.494.105l-.21-.116c-.696-.38-1.56-.851-3.306-2.597-.189-.19-.36-.365-.52-.534z"/>
      </g>
    </g>
  </g>
</svg>
