<svg xmlns="http://www.w3.org/2000/svg" width="28" height="35" viewBox="0 0 28 35">
  <defs>
    <style>.cls-2,.cls-3{fill:#fff;}.cls-2{opacity:0.5;}</style>
  </defs>
  <title>file_PPT_small</title>
  <g id="Layer_2" data-name="Layer 2">
    <g id="Layer_1-2" data-name="Layer 1">
      <path class="cls-1"
            d="M2.8,0A2.8,2.8,0,0,0,0,2.8V32.2A2.8,2.8,0,0,0,2.8,35H25.2A2.8,2.8,0,0,0,28,32.2V7.923a.539.539,0,0,0-.158-.381L20.458.158A.539.539,0,0,0,20.077,0Z"/>
      <polygon class="cls-2" points="28 7.7 20.3 0 20.3 7.7 28 7.7"/>
      <path class="cls-3" d="M14,10.5v4.2H9.8A4.2,4.2,0,1,0,14,10.5Z"/>
      <path class="cls-3" d="M12.6,9.8a3.5,3.5,0,0,0-3.5,3.5h3.5Z"/>
      <path class="cls-3"
            d="M6.171,29.715a.559.559,0,0,1,.115-.382.417.417,0,0,1,.329-.13.447.447,0,0,1,.34.13.541.541,0,0,1,.122.382.526.526,0,0,1-.124.376.441.441,0,0,1-.338.132A.446.446,0,0,1,6.3,30.1.514.514,0,0,1,6.171,29.715Z"/>
      <path class="cls-3"
            d="M10.374,30.188a1.781,1.781,0,0,1-.735-.148,1.374,1.374,0,0,1-.558-.457H9.035a5.561,5.561,0,0,1,.046.685v1.7H8.457V25.992h.507l.087.565h.03a1.453,1.453,0,0,1,.56-.49,1.723,1.723,0,0,1,.733-.15,1.524,1.524,0,0,1,1.266.561,2.466,2.466,0,0,1,.445,1.571,2.45,2.45,0,0,1-.453,1.577A1.526,1.526,0,0,1,10.374,30.188Zm-.09-3.741a1.109,1.109,0,0,0-.914.35,1.806,1.806,0,0,0-.289,1.113v.139a2.065,2.065,0,0,0,.289,1.243,1.1,1.1,0,0,0,.929.374.968.968,0,0,0,.837-.433,2.053,2.053,0,0,0,.3-1.191,1.982,1.982,0,0,0-.3-1.183A1,1,0,0,0,10.284,26.447Z"/>
      <path class="cls-3"
            d="M15.229,30.188a1.788,1.788,0,0,1-.735-.148,1.372,1.372,0,0,1-.557-.457h-.046a5.561,5.561,0,0,1,.046.685v1.7h-.624V25.992h.506l.087.565h.031a1.45,1.45,0,0,1,.559-.49,1.723,1.723,0,0,1,.733-.15,1.524,1.524,0,0,1,1.266.561,2.466,2.466,0,0,1,.445,1.571,2.45,2.45,0,0,1-.453,1.577A1.523,1.523,0,0,1,15.229,30.188Zm-.089-3.741a1.107,1.107,0,0,0-.914.35,1.792,1.792,0,0,0-.289,1.113v.139a2.058,2.058,0,0,0,.289,1.243,1.1,1.1,0,0,0,.928.374.967.967,0,0,0,.837-.433,2.053,2.053,0,0,0,.3-1.191,1.981,1.981,0,0,0-.3-1.183A1,1,0,0,0,15.14,26.447Z"/>
      <path class="cls-3"
            d="M19.5,29.674a2.084,2.084,0,0,0,.32-.025,2.119,2.119,0,0,0,.244-.05v.477a1.147,1.147,0,0,1-.3.08,2.171,2.171,0,0,1-.356.032q-1.2,0-1.2-1.259V26.478h-.591v-.3l.591-.26.263-.88h.361v.955h1.2v.486h-1.2V28.9a.835.835,0,0,0,.177.573A.615.615,0,0,0,19.5,29.674Z"/>
    </g>
  </g>
</svg>
