<svg xmlns="http://www.w3.org/2000/svg" width="40" height="50" viewBox="0 0 40 50"><defs><style>.cls-1{fill:#ea1f21;}.cls-2,.cls-3{fill:#fff;}.cls-2{opacity:0.5;}</style></defs><title>file_PDFcolor</title><g id="Layer_2" data-name="Layer 2"><g id="Layer_1-2" data-name="Layer 1"><path class="cls-1" d="M4,0A4,4,0,0,0,0,4V46a4,4,0,0,0,4,4H36a4,4,0,0,0,4-4V11.508a1.226,1.226,0,0,0-.359-.867L29.359.359A1.226,1.226,0,0,0,28.492,0Z"/><polygon class="cls-2" points="40 11 29 0 29 11 40 11"/><path class="cls-3" d="M8.816,42.45a.8.8,0,0,1,.164-.545.594.594,0,0,1,.47-.186.637.637,0,0,1,.487.186.767.767,0,0,1,.174.545.753.753,0,0,1-.177.537A.7.7,0,0,1,9,43.006.732.732,0,0,1,8.816,42.45Z"/><path class="cls-3" d="M14.64,43.126a2.532,2.532,0,0,1-1.05-.212,1.97,1.97,0,0,1-.8-.652h-.064a7.868,7.868,0,0,1,.064.977v2.423H11.9v-8.53h.725l.124.806h.043a2.071,2.071,0,0,1,.8-.7,2.438,2.438,0,0,1,1.048-.215,2.178,2.178,0,0,1,1.807.8,3.526,3.526,0,0,1,.636,2.245,3.5,3.5,0,0,1-.646,2.253A2.179,2.179,0,0,1,14.64,43.126Zm-.129-5.344a1.579,1.579,0,0,0-1.3.5,2.566,2.566,0,0,0-.414,1.59v.2a2.943,2.943,0,0,0,.414,1.775,1.569,1.569,0,0,0,1.326.535,1.381,1.381,0,0,0,1.2-.618,2.928,2.928,0,0,0,.432-1.7,2.823,2.823,0,0,0-.432-1.69A1.425,1.425,0,0,0,14.511,37.782Z"/><path class="cls-3" d="M22.729,42.229H22.68a2.094,2.094,0,0,1-1.848.9,2.185,2.185,0,0,1-1.8-.789,3.469,3.469,0,0,1-.642-2.245,3.532,3.532,0,0,1,.644-2.261,2.168,2.168,0,0,1,1.794-.806,2.14,2.14,0,0,1,1.837.87h.07l-.038-.424-.021-.414v-2.4h.891v8.357h-.724Zm-1.784.151a1.624,1.624,0,0,0,1.324-.5,2.508,2.508,0,0,0,.411-1.6v-.188a2.958,2.958,0,0,0-.416-1.786,1.583,1.583,0,0,0-1.329-.535,1.365,1.365,0,0,0-1.2.61,3.029,3.029,0,0,0-.417,1.722,2.9,2.9,0,0,0,.414,1.7A1.4,1.4,0,0,0,20.945,42.38Z"/><path class="cls-3" d="M28.233,37.825h-1.5v5.194h-.891V37.825H24.79v-.4l1.053-.322v-.328q0-2.169,1.9-2.169a3.877,3.877,0,0,1,1.1.188l-.231.714a2.957,2.957,0,0,0-.881-.167.856.856,0,0,0-.746.336,1.867,1.867,0,0,0-.243,1.077v.381h1.5Z"/><path class="cls-3" d="M26.359,21.28a13.412,13.412,0,0,0-2.327.249A22.177,22.177,0,0,1,20.5,16.286c.927-3.9.463-4.454.259-4.715-.218-.277-.525-.727-.874-.727a3.389,3.389,0,0,0-.7.119,1.331,1.331,0,0,0-.787.842c-.49,1.146.183,3.1.875,4.605a46.643,46.643,0,0,1-2.626,7.453c-2.628,1.2-4.023,2.385-4.149,3.513a1.66,1.66,0,0,0,.773,1.554,1.109,1.109,0,0,0,.67.226h0c.607,0,1.219-.464,1.929-1.461a19.64,19.64,0,0,0,1.651-2.946,33.226,33.226,0,0,1,6.12-1.957,4.609,4.609,0,0,0,2.919,1.584,1.838,1.838,0,0,0,1.539-.825,1.4,1.4,0,0,0,.271-1.5C28.1,21.534,27.445,21.28,26.359,21.28Zm-12.4,6.706c-.324-.249-.3-.417-.3-.48.042-.385.646-1.069,2.128-1.9C14.663,27.678,14.06,27.953,13.956,27.986ZM19.641,12.1c.03-.01.724.763.066,2.229A1.662,1.662,0,0,1,19.641,12.1Zm-1.433,11.11a49.426,49.426,0,0,0,1.853-5.244,23.75,23.75,0,0,0,2.65,3.843A34.647,34.647,0,0,0,18.208,23.206Zm8.943-.333a1.043,1.043,0,0,1-.839.306c-.369,0-.507-.22-1.072-.654A9.906,9.906,0,0,1,26.5,22.45c.616,0,.73.091.815.136A1.071,1.071,0,0,1,27.151,22.873Z"/></g></g></svg>