<svg xmlns="http://www.w3.org/2000/svg" width="28" height="35" viewBox="0 0 28 35">
  <defs>
    <style>.cls-2,.cls-3{fill:#fff;}.cls-2{opacity:0.5;}</style>
  </defs>
  <title>file_PDF_small</title>
  <g id="Layer_2" data-name="Layer 2">
    <g id="Layer_1-2" data-name="Layer 1">
      <path class="cls-1"
            d="M2.8,0A2.8,2.8,0,0,0,0,2.8V32.2A2.8,2.8,0,0,0,2.8,35H25.2A2.8,2.8,0,0,0,28,32.2V8.056a.857.857,0,0,0-.251-.607l-7.2-7.2A.857.857,0,0,0,19.944,0Z"/>
      <polygon class="cls-2" points="28 7.7 20.3 0 20.3 7.7 28 7.7"/>
      <path class="cls-3"
            d="M6.171,29.715a.559.559,0,0,1,.115-.382.417.417,0,0,1,.329-.13.447.447,0,0,1,.34.13.541.541,0,0,1,.122.382.526.526,0,0,1-.124.376.441.441,0,0,1-.338.132A.446.446,0,0,1,6.3,30.1.514.514,0,0,1,6.171,29.715Z"/>
      <path class="cls-3"
            d="M10.374,30.188a1.781,1.781,0,0,1-.735-.148,1.374,1.374,0,0,1-.558-.457H9.035a5.561,5.561,0,0,1,.046.685v1.7H8.457V25.992h.507l.087.565h.03a1.453,1.453,0,0,1,.56-.49,1.723,1.723,0,0,1,.733-.15,1.524,1.524,0,0,1,1.266.561,2.466,2.466,0,0,1,.445,1.571,2.45,2.45,0,0,1-.453,1.577A1.526,1.526,0,0,1,10.374,30.188Zm-.09-3.741a1.109,1.109,0,0,0-.914.35,1.806,1.806,0,0,0-.289,1.113v.139a2.065,2.065,0,0,0,.289,1.243,1.1,1.1,0,0,0,.929.374.968.968,0,0,0,.837-.433,2.053,2.053,0,0,0,.3-1.191,1.982,1.982,0,0,0-.3-1.183A1,1,0,0,0,10.284,26.447Z"/>
      <path class="cls-3"
            d="M16.159,29.561h-.034a1.467,1.467,0,0,1-1.293.627,1.532,1.532,0,0,1-1.258-.552,2.431,2.431,0,0,1-.449-1.572,2.474,2.474,0,0,1,.451-1.583,1.518,1.518,0,0,1,1.256-.564,1.5,1.5,0,0,1,1.285.609h.049l-.026-.3-.015-.29V24.263h.624v5.85h-.508Zm-1.248.105a1.137,1.137,0,0,0,.927-.348,1.764,1.764,0,0,0,.287-1.123v-.131a2.069,2.069,0,0,0-.291-1.25,1.106,1.106,0,0,0-.931-.374.953.953,0,0,0-.84.427,2.113,2.113,0,0,0-.292,1.2,2.038,2.038,0,0,0,.29,1.193A.981.981,0,0,0,14.911,29.666Z"/>
      <path class="cls-3"
            d="M20.134,26.478h-1.05v3.635H18.46V26.478h-.736V26.2l.736-.225v-.23q0-1.516,1.327-1.518a2.729,2.729,0,0,1,.768.132l-.162.5a2.038,2.038,0,0,0-.617-.118.6.6,0,0,0-.522.236,1.31,1.31,0,0,0-.17.754v.266h1.05Z"/>
      <path class="cls-3"
            d="M18.452,14.9a9.35,9.35,0,0,0-1.63.174,15.5,15.5,0,0,1-2.469-3.67c.649-2.731.324-3.118.181-3.3s-.367-.509-.612-.509a2.386,2.386,0,0,0-.493.083.932.932,0,0,0-.55.59c-.343.8.127,2.169.612,3.223A32.669,32.669,0,0,1,11.653,16.7c-1.839.842-2.816,1.67-2.905,2.459a1.164,1.164,0,0,0,.541,1.088.785.785,0,0,0,.47.158h0c.424,0,.853-.325,1.35-1.022a13.818,13.818,0,0,0,1.156-2.063,23.216,23.216,0,0,1,4.284-1.369,3.226,3.226,0,0,0,2.043,1.108,1.29,1.29,0,0,0,1.078-.578.982.982,0,0,0,.189-1.048C19.672,15.074,19.211,14.9,18.452,14.9ZM9.769,19.59c-.227-.174-.214-.292-.209-.336.03-.269.453-.748,1.49-1.331C10.264,19.375,9.842,19.567,9.769,19.59ZM13.748,8.467c.021-.007.508.534.047,1.561A1.165,1.165,0,0,1,13.748,8.467Zm-1,7.777a34.488,34.488,0,0,0,1.3-3.671A16.6,16.6,0,0,0,15.9,15.264,24.185,24.185,0,0,0,12.745,16.244Zm6.261-.233a.732.732,0,0,1-.587.214c-.259,0-.356-.153-.751-.458a7.121,7.121,0,0,1,.879-.052c.431,0,.51.064.57.1A.756.756,0,0,1,19.006,16.011Z"/>
    </g>
  </g>
</svg>
