<svg xmlns="http://www.w3.org/2000/svg" width="28" height="35" viewBox="0 0 28 35"><defs><style>.cls-1{fill:#40aaf0;}.cls-2,.cls-3{fill:#fff;}.cls-2{opacity:0.5;}</style></defs><title>file_DOC_small</title><g id="Layer_2" data-name="Layer 2"><g id="Layer_1-2" data-name="Layer 1"><path class="cls-1" d="M2.8,0A2.8,2.8,0,0,0,0,2.8V32.2A2.8,2.8,0,0,0,2.8,35H25.2A2.8,2.8,0,0,0,28,32.2V7.7L20.3,0Z"/><polygon class="cls-2" points="28 7.7 20.3 0 20.3 7.7 28 7.7"/><path class="cls-3" d="M14.11,19.378l-.135-4.5-.008-.5.021-1.436q-.178.446-.369.9t-2.48,5.541H9.259l-.338-7.939h1.587l.093,4.637q-.015.624-.08,1.759h.043q.476-1.264.784-1.952l1.995-4.444h1.823l.137,4.335.007.381-.022,1.68h.043q.122-.358.409-1.138c.192-.519.343-.91.456-1.174S16.91,13.9,18,11.439h1.751l-3.718,7.939Z"/><path class="cls-3" d="M5.537,29.715a.559.559,0,0,1,.115-.382.418.418,0,0,1,.329-.13.447.447,0,0,1,.34.13.541.541,0,0,1,.122.382.526.526,0,0,1-.124.376.441.441,0,0,1-.338.132.448.448,0,0,1-.318-.119A.514.514,0,0,1,5.537,29.715Z"/><path class="cls-3" d="M10.549,29.561h-.034a1.467,1.467,0,0,1-1.293.627,1.532,1.532,0,0,1-1.258-.552,2.431,2.431,0,0,1-.449-1.572,2.474,2.474,0,0,1,.451-1.583,1.518,1.518,0,0,1,1.256-.564,1.5,1.5,0,0,1,1.285.609h.049l-.027-.3-.014-.29V24.263h.624v5.85h-.508ZM9.3,29.666a1.138,1.138,0,0,0,.927-.348,1.764,1.764,0,0,0,.287-1.123v-.131a2.069,2.069,0,0,0-.291-1.25,1.107,1.107,0,0,0-.931-.374.955.955,0,0,0-.841.427,2.121,2.121,0,0,0-.291,1.2,2.046,2.046,0,0,0,.289,1.193A.984.984,0,0,0,9.3,29.666Z"/><path class="cls-3" d="M16.149,28.049a2.282,2.282,0,0,1-.507,1.574,1.789,1.789,0,0,1-1.4.565,1.857,1.857,0,0,1-.981-.259,1.716,1.716,0,0,1-.662-.744,2.592,2.592,0,0,1-.233-1.136,2.272,2.272,0,0,1,.5-1.57,1.781,1.781,0,0,1,1.4-.562,1.745,1.745,0,0,1,1.374.575A2.269,2.269,0,0,1,16.149,28.049Zm-3.139,0a1.959,1.959,0,0,0,.315,1.2,1.254,1.254,0,0,0,1.86,0,1.952,1.952,0,0,0,.318-1.205,1.92,1.92,0,0,0-.318-1.194,1.12,1.12,0,0,0-.938-.408,1.1,1.1,0,0,0-.926.4A1.936,1.936,0,0,0,13.01,28.049Z"/><path class="cls-3" d="M19.049,30.188a1.759,1.759,0,0,1-1.386-.55,2.266,2.266,0,0,1-.49-1.559,2.337,2.337,0,0,1,.5-1.6,1.793,1.793,0,0,1,1.419-.564,2.807,2.807,0,0,1,.595.064,1.963,1.963,0,0,1,.465.151l-.191.53a2.981,2.981,0,0,0-.451-.138,2.041,2.041,0,0,0-.433-.054q-1.256,0-1.256,1.6a1.908,1.908,0,0,0,.307,1.166,1.065,1.065,0,0,0,.907.407,2.794,2.794,0,0,0,1.057-.222v.553A2.261,2.261,0,0,1,19.049,30.188Z"/></g></g></svg>