<svg xmlns="http://www.w3.org/2000/svg" width="28" height="35" viewBox="0 0 28 35">
  <defs>
    <style>.cls-2,.cls-3{fill:#fff;}.cls-2{opacity:0.5;}</style>
  </defs>
  <title>file_XLS_small</title>
  <g id="Layer_2" data-name="Layer 2">
    <g id="Layer_1-2" data-name="Layer 1">
      <path class="cls-1"
            d="M2.8,0A2.8,2.8,0,0,0,0,2.8V32.2A2.8,2.8,0,0,0,2.8,35H25.2A2.8,2.8,0,0,0,28,32.2V7.7L20.3,0Z"/>
      <polygon class="cls-2" points="28 7.7 20.3 0 20.3 7.7 28 7.7"/>
      <path class="cls-3"
            d="M13.885,16.6,11.7,19.378H9.758l3.409-4.084-1.658-3.855h1.759L14.3,14.116l2.06-2.677h1.967L15.019,15.38l1.78,4H15.033Z"/>
      <path class="cls-3"
            d="M7.571,29.715a.554.554,0,0,1,.116-.382.415.415,0,0,1,.329-.13.447.447,0,0,1,.339.13.537.537,0,0,1,.123.382.526.526,0,0,1-.124.376.443.443,0,0,1-.338.132A.449.449,0,0,1,7.7,30.1.514.514,0,0,1,7.571,29.715Z"/>
      <path class="cls-3"
            d="M10.934,28,9.5,25.992h.711L11.3,27.571l1.083-1.579h.7L11.651,28l1.508,2.109h-.707L11.3,28.444l-1.165,1.669H9.426Z"/>
      <path class="cls-3" d="M14.784,30.113H14.16v-5.85h.624Z"/>
      <path class="cls-3"
            d="M18.888,28.989a1.033,1.033,0,0,1-.429.887,2.011,2.011,0,0,1-1.2.312,2.611,2.611,0,0,1-1.278-.259V29.35a3.112,3.112,0,0,0,.636.237,2.651,2.651,0,0,0,.657.087,1.493,1.493,0,0,0,.751-.156.537.537,0,0,0,.055-.888,3.26,3.26,0,0,0-.814-.4,4.491,4.491,0,0,1-.818-.374,1.123,1.123,0,0,1-.361-.363A.955.955,0,0,1,15.966,27a.924.924,0,0,1,.41-.8,1.907,1.907,0,0,1,1.124-.292,3.3,3.3,0,0,1,1.3.271l-.222.507a2.993,2.993,0,0,0-1.124-.255,1.3,1.3,0,0,0-.67.139.431.431,0,0,0-.225.384.459.459,0,0,0,.085.281.839.839,0,0,0,.272.223,6.334,6.334,0,0,0,.722.3,2.692,2.692,0,0,1,.991.538A.946.946,0,0,1,18.888,28.989Z"/>
    </g>
  </g>
</svg>
