<svg xmlns="http://www.w3.org/2000/svg" width="40" height="50" viewBox="0 0 40 50"><defs><style>.cls-1{fill:#40aaf0;}.cls-2,.cls-3{fill:#fff;}.cls-2{opacity:0.5;}</style></defs><title>file_DOC</title><g id="Layer_2" data-name="Layer 2"><g id="Layer_1-2" data-name="Layer 1"><path class="cls-1" d="M4,0A4,4,0,0,0,0,4V46a4,4,0,0,0,4,4H36a4,4,0,0,0,4-4V11L29,0Z"/><polygon class="cls-2" points="40 11 29 0 29 11 40 11"/><path class="cls-3" d="M20.158,27.682l-.2-6.43-.01-.717.031-2.051q-.257.636-.528,1.282t-3.543,7.916H13.227l-.482-11.341h2.266l.133,6.624q-.021.892-.113,2.512h.062q.677-1.8,1.117-2.789l2.851-6.347h2.605l.194,6.193.011.544-.031,2.4H21.9q.176-.513.585-1.625t.651-1.677q.24-.564,2.579-5.834h2.5L22.906,27.682Z"/><path class="cls-3" d="M7.91,42.45a.8.8,0,0,1,.164-.545.594.594,0,0,1,.47-.186.633.633,0,0,1,.486.186.768.768,0,0,1,.175.545.749.749,0,0,1-.178.537.633.633,0,0,1-.483.188.639.639,0,0,1-.454-.169A.736.736,0,0,1,7.91,42.45Z"/><path class="cls-3" d="M14.88,42.229h-.048a2.094,2.094,0,0,1-1.848.9,2.184,2.184,0,0,1-1.8-.789,3.469,3.469,0,0,1-.643-2.245,3.532,3.532,0,0,1,.645-2.261,2.168,2.168,0,0,1,1.794-.806,2.141,2.141,0,0,1,1.837.87h.07l-.038-.424-.021-.414v-2.4h.891v8.357H15ZM13.1,42.38a1.627,1.627,0,0,0,1.324-.5,2.514,2.514,0,0,0,.411-1.6v-.188a2.957,2.957,0,0,0-.417-1.786,1.581,1.581,0,0,0-1.329-.535,1.364,1.364,0,0,0-1.2.61,3.029,3.029,0,0,0-.417,1.722,2.9,2.9,0,0,0,.414,1.7A1.4,1.4,0,0,0,13.1,42.38Z"/><path class="cls-3" d="M22.7,40.07a3.249,3.249,0,0,1-.724,2.248,2.556,2.556,0,0,1-2,.808,2.652,2.652,0,0,1-1.4-.37,2.447,2.447,0,0,1-.945-1.064,3.691,3.691,0,0,1-.333-1.622,3.236,3.236,0,0,1,.72-2.242,2.544,2.544,0,0,1,2-.8,2.492,2.492,0,0,1,1.963.822A3.234,3.234,0,0,1,22.7,40.07Zm-4.484,0a2.794,2.794,0,0,0,.451,1.719,1.791,1.791,0,0,0,2.656,0,2.785,2.785,0,0,0,.453-1.722,2.74,2.74,0,0,0-.453-1.7,1.6,1.6,0,0,0-1.341-.583,1.57,1.57,0,0,0-1.321.575A2.766,2.766,0,0,0,18.217,40.07Z"/><path class="cls-3" d="M26.667,43.126a2.513,2.513,0,0,1-1.979-.786,3.239,3.239,0,0,1-.7-2.227,3.338,3.338,0,0,1,.712-2.282,2.559,2.559,0,0,1,2.028-.806,4.016,4.016,0,0,1,.848.091,2.813,2.813,0,0,1,.666.215l-.274.757a4.24,4.24,0,0,0-.644-.2,2.943,2.943,0,0,0-.618-.078q-1.794,0-1.794,2.289a2.724,2.724,0,0,0,.438,1.665,1.525,1.525,0,0,0,1.3.58,3.966,3.966,0,0,0,1.509-.317v.789A3.216,3.216,0,0,1,26.667,43.126Z"/></g></g></svg>