<svg xmlns="http://www.w3.org/2000/svg" width="28" height="35" viewBox="0 0 28 35">
  <defs>
    <style>.cls-2,.cls-3{fill:#fff;}.cls-2{opacity:0.5;}</style>
  </defs>
  <title>file_JPG_small</title>
  <g id="Layer_2" data-name="Layer 2">
    <g id="Layer_1-2" data-name="Layer 1">
      <path class="cls-1"
            d="M2.8,0A2.8,2.8,0,0,0,0,2.8V32.2A2.8,2.8,0,0,0,2.8,35H25.2A2.8,2.8,0,0,0,28,32.2V7.7L20.3,0Z"/>
      <polygon class="cls-2" points="28 7.7 20.3 0 20.3 7.7 28 7.7"/>
      <path class="cls-3"
            d="M6.872,29.715a.559.559,0,0,1,.115-.382.417.417,0,0,1,.329-.13.447.447,0,0,1,.34.13.541.541,0,0,1,.122.382.526.526,0,0,1-.124.376.441.441,0,0,1-.338.132A.446.446,0,0,1,7,30.1.514.514,0,0,1,6.872,29.715Z"/>
      <path class="cls-3"
            d="M8.638,31.963a1.49,1.49,0,0,1-.579-.094v-.508a1.787,1.787,0,0,0,.51.076A.537.537,0,0,0,9,31.277a.731.731,0,0,0,.138-.487v-4.8h.624v4.753Q9.762,31.963,8.638,31.963Zm.447-7.087a.416.416,0,0,1,.1-.314.365.365,0,0,1,.263-.1.371.371,0,0,1,.26.1.508.508,0,0,1,0,.626.361.361,0,0,1-.26.1.356.356,0,0,1-.263-.1A.418.418,0,0,1,9.085,24.876Z"/>
      <path class="cls-3"
            d="M13.114,30.188a1.788,1.788,0,0,1-.735-.148,1.381,1.381,0,0,1-.558-.457h-.046a5.371,5.371,0,0,1,.046.685v1.7H11.2V25.992H11.7l.087.565h.03a1.453,1.453,0,0,1,.56-.49,1.723,1.723,0,0,1,.733-.15,1.524,1.524,0,0,1,1.266.561,2.466,2.466,0,0,1,.445,1.571,2.45,2.45,0,0,1-.453,1.577A1.526,1.526,0,0,1,13.114,30.188Zm-.09-3.741a1.11,1.11,0,0,0-.914.35,1.806,1.806,0,0,0-.289,1.113v.139a2.065,2.065,0,0,0,.289,1.243,1.1,1.1,0,0,0,.929.374.967.967,0,0,0,.837-.433,2.053,2.053,0,0,0,.3-1.191,1.981,1.981,0,0,0-.3-1.183A1,1,0,0,0,13.024,26.447Z"/>
      <path class="cls-3"
            d="M19.419,25.992v.4l-.763.09a1.3,1.3,0,0,1,.188.343,1.342,1.342,0,0,1,.083.48,1.222,1.222,0,0,1-.414.967,1.674,1.674,0,0,1-1.136.36,1.913,1.913,0,0,1-.346-.03.614.614,0,0,0-.4.53.27.27,0,0,0,.139.25,1,1,0,0,0,.478.081h.729a1.632,1.632,0,0,1,1.028.282.978.978,0,0,1,.359.82,1.168,1.168,0,0,1-.549,1.043,2.93,2.93,0,0,1-1.6.359,2.183,2.183,0,0,1-1.246-.3.97.97,0,0,1-.439-.849.953.953,0,0,1,.241-.651,1.226,1.226,0,0,1,.677-.372.657.657,0,0,1-.265-.222.581.581,0,0,1-.108-.349.664.664,0,0,1,.121-.4,1.279,1.279,0,0,1,.379-.327,1.1,1.1,0,0,1-.52-.447,1.315,1.315,0,0,1-.2-.722,1.332,1.332,0,0,1,.407-1.043,1.658,1.658,0,0,1,1.15-.367,2.1,2.1,0,0,1,.583.075Zm-3.286,4.813a.561.561,0,0,0,.282.508,1.56,1.56,0,0,0,.809.172,2.263,2.263,0,0,0,1.163-.234.72.72,0,0,0,.378-.638.5.5,0,0,0-.207-.464,1.615,1.615,0,0,0-.779-.129h-.748a.979.979,0,0,0-.661.2A.722.722,0,0,0,16.133,30.805Zm.339-3.492a.84.84,0,0,0,.244.654.978.978,0,0,0,.68.221.8.8,0,0,0,.914-.887.819.819,0,0,0-.925-.929.917.917,0,0,0-.677.237A.961.961,0,0,0,16.472,27.313Z"/>
      <polygon class="cls-3" points="7.7 19.6 11.2 16.1 14.7 19.6 7.7 19.6"/>
      <polygon class="cls-3" points="11.2 19.6 16.1 14.7 21 19.6 11.2 19.6"/>
      <circle class="cls-3" cx="11.2" cy="11.9" r="1.75"/>
    </g>
  </g>
</svg>
