<svg xmlns="http://www.w3.org/2000/svg" width="40" height="50" viewBox="0 0 40 50"><defs><style>.cls-1{fill:#40aaf0;}.cls-2,.cls-3{fill:#fff;}.cls-2{opacity:0.5;}</style></defs><title>file_PPT</title><g id="Layer_2" data-name="Layer 2"><g id="Layer_1-2" data-name="Layer 1"><path class="cls-1" d="M4,0A4,4,0,0,0,0,4V46a4,4,0,0,0,4,4H36a4,4,0,0,0,4-4V11.319a.771.771,0,0,0-.226-.545L29.226.226A.771.771,0,0,0,28.681,0Z"/><polygon class="cls-2" points="40 11 29 0 29 11 40 11"/><path class="cls-3" d="M20,15v6H14a6,6,0,1,0,6-6Z"/><path class="cls-3" d="M18,14a5,5,0,0,0-5,5h5Z"/><path class="cls-3" d="M8.816,42.45a.8.8,0,0,1,.164-.545.594.594,0,0,1,.47-.186.637.637,0,0,1,.487.186.767.767,0,0,1,.174.545.753.753,0,0,1-.177.537A.7.7,0,0,1,9,43.006.732.732,0,0,1,8.816,42.45Z"/><path class="cls-3" d="M14.64,43.126a2.532,2.532,0,0,1-1.05-.212,1.97,1.97,0,0,1-.8-.652h-.064a7.868,7.868,0,0,1,.064.977v2.423H11.9v-8.53h.725l.124.806h.043a2.071,2.071,0,0,1,.8-.7,2.438,2.438,0,0,1,1.048-.215,2.178,2.178,0,0,1,1.807.8,3.526,3.526,0,0,1,.636,2.245,3.5,3.5,0,0,1-.646,2.253A2.179,2.179,0,0,1,14.64,43.126Zm-.129-5.344a1.579,1.579,0,0,0-1.3.5,2.566,2.566,0,0,0-.414,1.59v.2a2.943,2.943,0,0,0,.414,1.775,1.569,1.569,0,0,0,1.326.535,1.381,1.381,0,0,0,1.2-.618,2.928,2.928,0,0,0,.432-1.7,2.823,2.823,0,0,0-.432-1.69A1.425,1.425,0,0,0,14.511,37.782Z"/><path class="cls-3" d="M21.4,43.126a2.539,2.539,0,0,1-1.05-.212,1.976,1.976,0,0,1-.8-.652h-.064a7.868,7.868,0,0,1,.064.977v2.423h-.891v-8.53h.725l.123.806h.043a2.066,2.066,0,0,1,.8-.7,2.433,2.433,0,0,1,1.047-.215,2.175,2.175,0,0,1,1.807.8,3.52,3.52,0,0,1,.637,2.245,3.5,3.5,0,0,1-.648,2.253A2.176,2.176,0,0,1,21.4,43.126Zm-.129-5.344a1.579,1.579,0,0,0-1.3.5,2.573,2.573,0,0,0-.414,1.59v.2a2.943,2.943,0,0,0,.414,1.775,1.571,1.571,0,0,0,1.327.535,1.378,1.378,0,0,0,1.194-.618,2.927,2.927,0,0,0,.433-1.7,2.823,2.823,0,0,0-.433-1.69A1.421,1.421,0,0,0,21.269,37.782Z"/><path class="cls-3" d="M27.318,42.391a2.949,2.949,0,0,0,.457-.035,2.89,2.89,0,0,0,.349-.073v.682a1.635,1.635,0,0,1-.427.116,3.251,3.251,0,0,1-.508.045q-1.707,0-1.708-1.8v-3.5h-.843V37.4l.843-.371.376-1.257h.516v1.364h1.708v.693H26.373V41.29a1.193,1.193,0,0,0,.252.816A.879.879,0,0,0,27.318,42.391Z"/></g></g></svg>