<svg xmlns="http://www.w3.org/2000/svg" width="40" height="50" viewBox="0 0 40 50">
  <defs>
    <style>.cls-1{fill:#009c57;}.cls-2,.cls-3{fill:#fff;}.cls-2{opacity:0.5;}</style>
  </defs>
  <title>file_XLScolor</title>
  <g id="Layer_2" data-name="Layer 2">
    <g id="Layer_1-2" data-name="Layer 1">
      <path class="cls-1" d="M4,0A4,4,0,0,0,0,4V46a4,4,0,0,0,4,4H36a4,4,0,0,0,4-4V11L29,0Z"/>
      <polygon class="cls-2" points="40 11 29 0 29 11 40 11"/>
      <path class="cls-3"
            d="M19.836,23.713l-3.128,3.969H13.94l4.871-5.835-2.369-5.506h2.512l1.477,3.825,2.943-3.825h2.809L21.456,21.97,24,27.682H21.477Z"/>
      <path class="cls-3"
            d="M10.816,42.45a.8.8,0,0,1,.164-.545.594.594,0,0,1,.47-.186.637.637,0,0,1,.487.186.767.767,0,0,1,.174.545.753.753,0,0,1-.177.537.7.7,0,0,1-.937.019A.732.732,0,0,1,10.816,42.45Z"/>
      <path class="cls-3"
            d="M15.443,40.006,13.4,37.132h1.015l1.553,2.256,1.547-2.256h1L16.47,40.006l2.153,3.013h-1.01l-1.648-2.385L14.3,43.019H13.29Z"/>
      <path class="cls-3" d="M20.77,43.019h-.892V34.662h.892Z"/>
      <path class="cls-3"
            d="M26.451,41.413a1.475,1.475,0,0,1-.612,1.268,2.881,2.881,0,0,1-1.719.445,3.735,3.735,0,0,1-1.826-.37v-.827a4.387,4.387,0,0,0,.91.338,3.777,3.777,0,0,0,.938.124,2.136,2.136,0,0,0,1.074-.223.767.767,0,0,0,.077-1.268,4.674,4.674,0,0,0-1.162-.577,6.247,6.247,0,0,1-1.169-.535,1.6,1.6,0,0,1-.515-.518,1.348,1.348,0,0,1-.17-.693,1.322,1.322,0,0,1,.586-1.136,2.732,2.732,0,0,1,1.606-.416,4.693,4.693,0,0,1,1.858.387l-.316.725a4.263,4.263,0,0,0-1.607-.366,1.854,1.854,0,0,0-.956.2.614.614,0,0,0-.322.548.671.671,0,0,0,.121.4,1.187,1.187,0,0,0,.39.317,8.659,8.659,0,0,0,1.031.435,3.844,3.844,0,0,1,1.415.768A1.356,1.356,0,0,1,26.451,41.413Z"/>
    </g>
  </g>
</svg>
