<svg xmlns="http://www.w3.org/2000/svg" width="40" height="50" viewBox="0 0 40 50"><defs><style>.cls-1{fill:#40aaf0;}.cls-2,.cls-3{fill:#fff;}.cls-2{opacity:0.5;}</style></defs><title>file_JPG</title><g id="Layer_2" data-name="Layer 2"><g id="Layer_1-2" data-name="Layer 1"><path class="cls-1" d="M4,0A4,4,0,0,0,0,4V46a4,4,0,0,0,4,4H36a4,4,0,0,0,4-4V11L29,0Z"/><polygon class="cls-2" points="40 11 29 0 29 11 40 11"/><path class="cls-3" d="M9.816,42.45a.8.8,0,0,1,.164-.545.593.593,0,0,1,.47-.186.636.636,0,0,1,.486.186.767.767,0,0,1,.174.545.752.752,0,0,1-.176.537.706.706,0,0,1-.938.019A.736.736,0,0,1,9.816,42.45Z"/><path class="cls-3" d="M12.158,45.662a2.135,2.135,0,0,1-.827-.135V44.8a2.6,2.6,0,0,0,.731.108.767.767,0,0,0,.614-.229,1.044,1.044,0,0,0,.2-.7V37.132h.892v6.789Q13.764,45.663,12.158,45.662ZM12.8,35.537a.592.592,0,0,1,.15-.448.556.556,0,0,1,.747,0,.583.583,0,0,1,.156.446.591.591,0,0,1-.156.449.548.548,0,0,1-.747,0A.606.606,0,0,1,12.8,35.537Z"/><path class="cls-3" d="M18.373,43.126a2.536,2.536,0,0,1-1.05-.212,1.976,1.976,0,0,1-.8-.652h-.064a7.868,7.868,0,0,1,.064.977v2.423h-.891v-8.53h.724l.124.806h.043a2.071,2.071,0,0,1,.8-.7,2.441,2.441,0,0,1,1.048-.215,2.177,2.177,0,0,1,1.807.8,3.526,3.526,0,0,1,.636,2.245,3.5,3.5,0,0,1-.647,2.253A2.176,2.176,0,0,1,18.373,43.126Zm-.129-5.344a1.583,1.583,0,0,0-1.306.5,2.573,2.573,0,0,0-.413,1.59v.2a2.951,2.951,0,0,0,.413,1.775,1.573,1.573,0,0,0,1.328.535,1.379,1.379,0,0,0,1.194-.618,2.92,2.92,0,0,0,.433-1.7,2.816,2.816,0,0,0-.433-1.69A1.421,1.421,0,0,0,18.244,37.782Z"/><path class="cls-3" d="M27.2,37.132V37.7l-1.09.129A1.93,1.93,0,0,1,26.5,39a1.741,1.741,0,0,1-.591,1.381,2.383,2.383,0,0,1-1.622.515,2.657,2.657,0,0,1-.494-.043.879.879,0,0,0-.57.758.384.384,0,0,0,.2.357,1.451,1.451,0,0,0,.682.115h1.042a2.338,2.338,0,0,1,1.469.4,1.4,1.4,0,0,1,.513,1.171,1.674,1.674,0,0,1-.784,1.491,4.207,4.207,0,0,1-2.288.513,3.131,3.131,0,0,1-1.781-.43,1.389,1.389,0,0,1-.626-1.214,1.363,1.363,0,0,1,.344-.929,1.75,1.75,0,0,1,.967-.532.936.936,0,0,1-.379-.317.843.843,0,0,1-.153-.5.945.945,0,0,1,.172-.564,1.828,1.828,0,0,1,.543-.468,1.588,1.588,0,0,1-.745-.639,1.879,1.879,0,0,1-.287-1.031,1.907,1.907,0,0,1,.58-1.49,2.366,2.366,0,0,1,1.644-.524,3.02,3.02,0,0,1,.833.107Zm-4.694,6.875a.8.8,0,0,0,.4.725,2.217,2.217,0,0,0,1.154.247,3.235,3.235,0,0,0,1.663-.335,1.029,1.029,0,0,0,.54-.911.721.721,0,0,0-.3-.663,2.3,2.3,0,0,0-1.112-.185H23.792a1.406,1.406,0,0,0-.946.29A1.037,1.037,0,0,0,22.508,44.007Zm.483-4.989a1.2,1.2,0,0,0,.349.934,1.392,1.392,0,0,0,.973.317A1.137,1.137,0,0,0,25.618,39,1.17,1.17,0,0,0,24.3,37.675a1.307,1.307,0,0,0-.966.338A1.363,1.363,0,0,0,22.991,39.018Z"/><polygon class="cls-3" points="11 28 16 23 21 28 11 28"/><polygon class="cls-3" points="16 28 23 21 30 28 16 28"/><circle class="cls-3" cx="16" cy="17" r="2.5"/></g></g></svg>