<svg xmlns="http://www.w3.org/2000/svg" width="18" height="18" viewBox="0 0 18 18">
  <title>fund-icon__more</title>
  <g id="Layer_2" data-name="Layer 2">
    <g id="Layer_1-2" data-name="Layer 1">
      <path class="cls-1" d="M9,.75A8.25,8.25,0,1,1,.75,9,8.259,8.259,0,0,1,9,.75M9,0a9,9,0,1,0,9,9A9,9,0,0,0,9,0Z"/>
      <path class="cls-1"
            d="M8.73,13.975c.03-.675.045-2.22.045-3.15v-.7c0-.825-.015-1.29-.045-1.891L7.5,8.1V7.57l2.265-.9.225.15L9.945,8.845v1.98c0,.93.015,2.475.045,3.15Zm2.31-.526v.526H7.59v-.526l1.65-.3h.3ZM8.355,4.03a.934.934,0,0,1,.99-.945.946.946,0,1,1,0,1.89A.943.943,0,0,1,8.355,4.03Z"/>
    </g>
  </g>
</svg>
