<svg xmlns="http://www.w3.org/2000/svg" width="30" height="30" viewBox="0 0 30 30">
    <title>
        Icon-HEADER_VK
    </title>
    <g id="Layer_2" data-name="Layer 2">
        <g id="Layer_1-2" data-name="Layer 1">
            <circle cx="15" cy="15" r="15"/>
            <path d="M17.965,19.778a6.436,6.436,0,0,1-.852.267c-.178.049-.363-.032-.48.053H11.785a11.346,11.346,0,0,1-.053-1.811V11.894a10.906,10.906,0,0,1,.053-1.758c2.181.106,5.228-.337,6.66.692a2.609,2.609,0,0,1,.639,2.184,2.334,2.334,0,0,1-1.225,1.545c.106.23.378.144.586.267a2.988,2.988,0,0,1,1.012.9,3.718,3.718,0,0,1,.266.64v.479C20.052,18.166,18.8,19.406,17.965,19.778Zm-1.6-6.18.053-.372a1.126,1.126,0,0,0-.053-.746c-.065-.125-.237-.205-.32-.32a13.735,13.735,0,0,0-1.7-.107v1.972C15.141,14.041,16.084,14.1,16.367,13.6Zm.373,2.5c-.042-.01-.838-.255-.853-.266a5.657,5.657,0,0,0-1.545.053V18.18a6.649,6.649,0,0,0,2.025-.106c.288-.111.414-.374.639-.533a2.516,2.516,0,0,0,0-1.119C16.953,16.318,16.807,16.211,16.74,16.1Z" style="fill:#fff"/>
        </g>
    </g>
</svg>
