<svg xmlns="http://www.w3.org/2000/svg" width="30" height="30" viewBox="0 0 30 30">
    <title>
        Icon-HEADER_Youtube
    </title>
    <g id="Layer_2" data-name="Layer 2">
        <g id="Layer_1-2" data-name="Layer 1">
            <circle cx="15" cy="15" r="15"/>
            <path d="M21.8,12.022a2.3,2.3,0,0,0-1.918-1.856,60.564,60.564,0,0,0-9.768,0A2.3,2.3,0,0,0,8.2,12.022a22.494,22.494,0,0,0,0,5.956,2.3,2.3,0,0,0,1.918,1.856,60.564,60.564,0,0,0,9.768,0A2.3,2.3,0,0,0,21.8,17.978,22.494,22.494,0,0,0,21.8,12.022ZM13.39,16.829V13.171L17.123,15Z" style="fill:#fff;fill-rule:evenodd"/>
        </g>
    </g>
</svg>
