<svg xmlns="http://www.w3.org/2000/svg" width="30" height="30" viewBox="0 0 30 30">
    <title>
        Icon-HEADER_OK
    </title>
    <g id="Layer_2" data-name="Layer 2">
        <g id="Layer_1-2" data-name="Layer 1">
            <circle cx="15" cy="15" r="15"/>
            <path d="M11.8,11.859v.164h.012v.106h.012v.083h.012v.07h.012v.071h.011V12.4h.012v.059h.012v.047H11.9v.047h.011V12.6h.012v.035h.012v.047h.012v.036h.011v.035h.012v.035h.012l.012.071H12v.023h.012v.036h.012v.023h.012v.035h.011V13h.012v.035h.012l.024.071h.011v.023h.012v.024h.012v.023h.012v.036l.023.011v.024h.012v.023h.012v.024H12.2v.024h.012v.023h.012v.024l.023.011.012.047.024.012.011.047h.012l.012.036.024.011v.024h.011l.012.035.024.012v.023l.023.012.012.035.035.024v.024l.036.023v.024l.047.035v.023l.058.048v.023l.106.094v.024l.094.082.024.035h.023l.095.106h.023l.047.059h.024l.035.047H13.1l.023.035h.024l.023.036h.024l.023.035h.024l.012.024.035.011v.012h.023l.012.024.035.011v.012l.047.012.012.023.047.012.012.024.047.011v.012h.024v.012h.023v.012h.024v.012h.023v.011h.024v.012l.047.012v.012h.023v.011h.024v.012l.071.024v.011h.035v.012h.023V14.8l.059.012v.011h.035v.012h.024v.012h.035v.012h.036v.012h.035v.011h.035v.012h.035v.012H14.2v.012h.036v.011h.047v.012h.047v.012h.047v.012l.106.011v.012h.07V15h.071v.012h.082v.011h.106v.012h.177a.869.869,0,0,0,.282.012v-.012h.177v-.012h.105v-.011h.083V15h.07v-.012h.071v-.012l.106-.011v-.012l.141-.024v-.011l.082-.012v-.012h.036v-.012h.035v-.011h.035v-.012l.071-.012v-.012h.023v-.012h.036v-.011l.059-.012v-.012h.023v-.012h.035v-.011l.071-.024v-.012h.023v-.011h.024v-.012l.059-.012.012-.023h.023v-.012H16.7v-.012h.023v-.012h.024v-.012h.023v-.011h.024l.012-.024.047-.012.011-.023.047-.012v-.012l.036-.011.011-.024h.024v-.012l.035-.011.012-.024h.024l.023-.035H17.1l.011-.024h.024l.035-.047h.024l.012-.023.035-.012.047-.059.035-.012.083-.094h.023l.094-.106.059-.047v-.023l.094-.083v-.023l.059-.047v-.024l.047-.035v-.024l.035-.023v-.024l.036-.023v-.024l.023-.012V13.6l.024-.012v-.023l.023-.012v-.024l.024-.011v-.024l.023-.012v-.023l.024-.012.023-.071.024-.011.023-.071.024-.012.024-.07h.011v-.024h.012l.024-.071h.011v-.035h.012v-.023h.012l.012-.047h.011v-.036h.012v-.023h.012l.153-.483v-.058h.012v-.047h.011v-.071h.012v-.071h.012l.023-.211v-.118a1.561,1.561,0,0,0,.012-.377h-.012v-.153h-.011v-.105H18.44v-.071h-.012v-.071h-.012v-.07h-.011V11h-.012v-.059l-.13-.424h-.011v-.023H18.24v-.035h-.012v-.024h-.012V10.4H18.2v-.024h-.012l-.012-.059h-.012l-.023-.07h-.012v-.024h-.012V10.2h-.011v-.024H18.1v-.023h-.012v-.024h-.012v-.023l-.023-.012-.024-.071-.023-.011-.012-.048-.024-.011-.011-.036h-.012l-.012-.047-.024-.011V9.835l-.035-.024V9.788l-.023-.012V9.753l-.036-.024V9.706l-.035-.024V9.658l-.035-.023V9.611l-.035-.023V9.576l-.024-.012V9.541l-.082-.071V9.447L17.5,9.353l-.106-.118h-.024l-.07-.082h-.024l-.012-.024h-.011l-.024-.035H17.2l-.024-.035h-.023l-.024-.036H17.11l-.023-.035h-.024l-.011-.024h-.024l-.023-.035h-.024l-.012-.023-.035-.012V8.882l-.047-.012-.012-.023-.047-.012-.012-.024-.07-.023-.012-.024H16.71V8.753h-.023V8.741h-.024V8.729H16.64V8.717h-.024V8.706h-.023V8.694l-.071-.024V8.659l-.059-.012V8.635H16.44V8.623h-.035V8.611h-.024V8.6h-.035a3.308,3.308,0,0,0-1.412-.236c-.03.027-.095,0-.141.012v.012h-.106V8.4H14.6v.011h-.07v.012h-.059c-.061.019-.141.039-.2.059h-.047v.012h-.035v.012h-.036v.011l-.117.024v.012h-.024v.011l-.07.012v.012h-.024V8.6h-.035v.011h-.024v.012h-.035a3.45,3.45,0,0,0-1.8,1.836l-.012.07H12v.024h-.011l-.012.07h-.012v.036h-.012v.035h-.011v.035h-.012l-.012.082H11.91v.048c-.02.058-.04.138-.058.2v.07H11.84l-.024.259H11.8v.165a1.138,1.138,0,0,0-.011.306Zm1.953-.212v-.13h.012v-.07h.012v-.059h.012v-.047h.012v-.035h.011l.024-.106h.012v-.024h.011v-.035h.012l.024-.071h.011l.012-.047.024-.011.011-.048.024-.011v-.024L14,10.917v-.023l.048-.035v-.024l.058-.047v-.024l.024-.011.059-.071h.023l.047-.059h.024l.035-.047h.024l.011-.023.036-.012v-.012l.047-.012.012-.023.047-.012V10.47l.07-.023v-.012H14.6v-.012h.024v-.011L14.7,10.4v-.012h.035v-.012h.035v-.012h.047v-.011h.059v-.012h.071v-.012h.117l.118-.012v.012h.141v.012h.071v.012h.059v.011H15.5v.012h.035v.012h.035V10.4h.036v.012h.035v.011h.023v.012H15.7v.012l.07.023v.012l.047.012.012.023.047.012.012.024h.023l.024.035h.023l.024.035h.024l.047.059h.023l.012.024.07.058v.024l.059.047v.024l.036.023v.024l.035.023v.024l.023.011.012.048.024.011.012.047h.011l.024.071h.012v.035h.011V11.2h.012v.035h.012v.035h.012v.036h.011v.035h.012v.047a1.138,1.138,0,0,1,.012.577l-.012.105h-.012v.036h-.011v.035H16.44v.035h-.012v.036h-.012l-.011.047h-.012l-.035.106-.024.011-.012.047H16.31l-.011.036-.024.011v.024l-.023.012v.023l-.036.024v.023l-.023.012a.427.427,0,0,1-.165.165l-.012.023h-.023l-.036.047h-.023l-.012.024H15.9l-.012.023-.035.012v.012l-.071.024v.011h-.024v.012h-.023v.012l-.071.023v.012h-.035V13h-.023v.012l-.083.011v.012h-.035v.012H15.44v.012l-.141.011a1.053,1.053,0,0,1-.471-.023h-.047v-.012h-.035v-.012l-.083-.011V13H14.64v-.012H14.6v-.012l-.07-.023v-.012H14.51v-.012h-.023v-.011h-.024v-.012H14.44v-.012h-.024v-.012l-.035-.012-.012-.023h-.023l-.012-.024H14.31l-.035-.047h-.024l-.011-.023a.427.427,0,0,1-.165-.165l-.023-.012v-.023l-.036-.024v-.023l-.023-.012V12.47l-.024-.011-.012-.036h-.011l-.012-.047-.024-.011-.035-.106h-.012l-.011-.047H13.84v-.036h-.012v-.035h-.012v-.035h-.011V12.07h-.012v-.047h-.012v-.058h-.012v-.071h-.012v-.153h-.011C13.735,11.7,13.755,11.674,13.757,11.647Zm5.118,4.447v-.118h-.011v-.058h-.012v-.047H18.84v-.036h-.012l-.012-.07h-.011l-.012-.047h-.012v-.024h-.012v-.023h-.011v-.024h-.012v-.024l-.024-.011v-.024l-.035-.023v-.024l-.035-.023v-.024l-.047-.035-.059-.071h-.024l-.035-.047h-.024l-.011-.023h-.024l-.012-.024h-.023v-.012h-.024v-.011h-.023v-.012h-.024v-.012H18.3v-.012h-.024v-.012l-.212-.058h-.105v-.012l-.271.023v.012l-.153.035v.012l-.071.024v.012H17.44v.011l-.047.012-.012.024-.047.011-.012.024H17.3v.012h-.024l-.012.023H17.24V15.4h-.024v.012h-.023v.011h-.024l-.011.024h-.024v.012H17.11v.012h-.023v.011h-.024v.012H17.04v.012h-.024v.012h-.023v.011h-.024v.012l-.07.024v.011h-.036v.012H16.84V15.6l-.047.012v.011h-.036v.012h-.023v.012l-.059.012v.012l-.07.011v.012h-.024v.012l-.071.012v.011h-.035v.012H16.44v.012h-.035v.012h-.036v.011l-.082.012V15.8l-.094.012v.012h-.036v.011H16.1v.012h-.047v.012h-.059v.012h-.059v.011h-.059v.012h-.07v.012h-.083v.012h-.094v.011H15.51v.012h-.164v.012h-.2l-.506-.024v-.011h-.094v-.012h-.083c-.055-.016-.134-.031-.188-.047h-.059v-.012l-.106-.012v-.011l-.129-.024v-.012h-.035v-.012H13.9v-.011h-.036v-.012h-.035v-.012h-.035v-.012h-.036v-.011h-.035v-.012l-.07-.012v-.012h-.024v-.011h-.035v-.012h-.024v-.012h-.035v-.012H13.51v-.012h-.035v-.011l-.047-.012v-.012h-.035v-.012h-.024v-.011l-.047-.012v-.012H13.3v-.012h-.024v-.011h-.023v-.012h-.024v-.012H13.2v-.012h-.023v-.011h-.024v-.012h-.023v-.012H13.11v-.012h-.023l-.012-.023-.07-.024-.012-.023-.047-.012-.012-.024-.047-.011-.012-.024-.071-.023v-.012l-.07-.024v-.012H12.7v-.011h-.036a.909.909,0,0,0-.353-.059c-.025.021-.067,0-.106.012l-.211.058v.012l-.047.012v.012h-.024v.012H11.9v.011h-.024v.012h-.023l-.012.024h-.024l-.012.023h-.023l-.035.047h-.024l-.035.047-.071.059v.024l-.047.035v.023l-.023.012v.024l-.024.011v.024H11.51v.024H11.5v.023h-.011v.024h-.012v.023h-.012v.024h-.012l-.011.07a.878.878,0,0,0,0,.6l.011.071h.012l.024.07H11.5V16.6h.012l.012.047.024.012v.023l.023.012v.024l.035.023v.024l.1.082.035.047h.023l.036.047h.023l.012.024.047.011.012.024.047.012.012.023.047.012.011.024h.024v.011h.023l.012.024h.024v.012h.023v.011h.024v.012h.023l.012.024h.024v.011h.023v.012h.024V17.2h.023v.012h.024v.012h.023v.011h.024v.012h.023v.012h.024v.012H12.4v.011h.024v.012h.024v.012l.047.012v.011l.047.012v.012h.023v.012H12.6v.011l.047.012V17.4h.024v.012h.035v.012l.047.011v.012h.036v.012h.023v.012l.059.011v.012h.035v.012h.024v.012l.071.011v.012h.023v.012l.106.023v.012h.035V17.6H13.2v.012h.036v.012h.035v.011h.035v.012l.071.012v.012h.047v.011h.035v.012h.047v.012h.047v.012l.224.047v.012c-.027.015-.038.037-.059.058l-.141.142-.306.294-.118.129-.682.671-.271.282a2.156,2.156,0,0,0-.494.565v.035a.842.842,0,0,0-.059.553l.012.106h.012v.035h.012v.024H11.7v.035h.011l.024.071h.012V20.8h.011l.012.047.024.012v.024l.023.011.012.036.047.035v.023L11.9,21l.047.059h.023l.035.047h.024l.023.035.048.012.011.024.047.011V21.2l.071.024v.012h.035v.011h.024v.012h.035v.012l.106.012a.835.835,0,0,0,.553-.059h.035v-.012l.047-.012v-.012h.024l.012-.023.047-.012.023-.035h.024l.023-.036h.024l.329-.341.353-.341.588-.6.353-.341.071-.082a1.2,1.2,0,0,0,.188-.189c.061.017.112.1.153.142l.047.035.306.317,1.282,1.271.118.129h.024l.023.036H17.1l.023.035.047.012.012.023H17.2V21.2l.047.012v.012h.035v.012h.023v.011h.036v.012h.035v.012h.035v.012h.059a.788.788,0,0,0,.294.023v-.012h.083v-.011H17.9v-.012h.047v-.012l.07-.012v-.011l.071-.024V21.2h.024v-.012h.023v-.011l.047-.012.012-.024h.023l.024-.035h.023l.036-.047h.023l.012-.024.059-.047v-.023l.047-.035.012-.036.023-.011v-.024l.024-.012.011-.047h.012v-.023h.012l.024-.071h.011v-.035h.012v-.024h.012l.023-.141a.672.672,0,0,0,.024-.282h-.012v-.083h-.012v-.047h-.011v-.047h-.012v-.035h-.012v-.035h-.012v-.024h-.011v-.035h-.012l-.012-.047h-.012v-.024l-.023-.012-.012-.047-.024-.011v-.024l-.047-.035a2.916,2.916,0,0,0-.341-.353l-.364-.377-.6-.588c-.113-.118-.227-.235-.341-.353l-.082-.07-.141-.142c-.021-.021-.032-.043-.059-.058.025-.025.057-.011.094-.024v-.012h.047v-.012h.047v-.011l.13-.024v-.012l.082-.011v-.012h.035v-.012h.035v-.012h.036v-.011h.035v-.012h.035V17.6H17.1v-.012h.035v-.012l.106-.023a6.648,6.648,0,0,0,.871-.412h.023v-.012h.024v-.011h.023v-.012H18.2l.011-.024.047-.011.012-.024.047-.012.012-.023L18.381,17l.012-.024.047-.011.023-.036h.024l.023-.035h.024l.035-.047.1-.082v-.024l.035-.023v-.024l.023-.012v-.023l.024-.012.012-.047h.011v-.024h.012l.024-.07h.011l.059-.212v-.118h.012v-.082Z" style="fill:#fff"/>
        </g>
    </g>
</svg>
