<svg xmlns="http://www.w3.org/2000/svg" width="30" height="30" viewBox="0 0 30 30">
    <title>
        Icon-HEADER_FB
    </title>
    <g id="Layer_2" data-name="Layer 2">
        <g id="Layer_1-2" data-name="Layer 1">
            <circle cx="15" cy="15" r="15" />
            <path d="M18.045,12.89a7.226,7.226,0,0,1-2.03-.085,5.283,5.283,0,0,1,.169-1.861,5.321,5.321,0,0,1,1.861-.169v-2.2l-.761-.084s-.031.073-.17.084H15.338c-1.98.586-2.061,1.7-2.03,4.229a4.614,4.614,0,0,0-1.353.085v2.2h1.353v4.482a7.726,7.726,0,0,0,.085,2.115,9.393,9.393,0,0,0,2.622-.085V15.089a4.527,4.527,0,0,0,1.861-.169Q17.96,13.9,18.045,12.89Z" style="fill:#fff"/>
        </g>
    </g>
</svg>
