<svg xmlns="http://www.w3.org/2000/svg" width="30" height="30" viewBox="0 0 30 30">
    <title>
        Icon-HEADER_TW
    </title>
    <g id="Layer_2" data-name="Layer 2">
        <g id="Layer_1-2" data-name="Layer 1">
            <circle cx="15" cy="15" r="15"/>
            <path d="M20.419,11.748c.067.014.035-.035.253-.056a.126.126,0,0,0,.07-.014,1.8,1.8,0,0,1,.687-.2.028.028,0,0,0,.028-.014.339.339,0,0,1,.154-.029.082.082,0,0,0,.028.043.38.38,0,0,0-.014.056l-.056.042v.028a5.283,5.283,0,0,0-.451.508c-.091.092-.654.471-.642.585.015.148-.015.2-.028,1a.308.308,0,0,1-.014.112,8.68,8.68,0,0,0-.166.884,7.2,7.2,0,0,1-.323.983,7.024,7.024,0,0,1-4.234,4.008,7.308,7.308,0,0,1-3.762.162,6.717,6.717,0,0,1-.75-.2,6.52,6.52,0,0,1-.632-.241,2,2,0,0,1-.538-.272H10l-.014-.028-.112-.056a.112.112,0,0,1,0-.07v-.028a3.56,3.56,0,0,1,.6-.015,4.151,4.151,0,0,0,1.148-.2,5.464,5.464,0,0,0,.553-.2,6.741,6.741,0,0,1,.838-.441l.028-.042.056-.014.014-.028A.029.029,0,0,0,13.142,18a.18.18,0,0,1,.084-.042l.014-.056a.342.342,0,0,0-.2-.028c-.031-.027-.1-.014-.141-.042a3.381,3.381,0,0,0-.452-.122,2.436,2.436,0,0,1-.5-.264,1.892,1.892,0,0,1-.79-.9l-.028-.014a.5.5,0,0,0-.056-.127.029.029,0,0,0-.014-.028.343.343,0,0,1-.028-.168.177.177,0,0,1,.112-.028,3.81,3.81,0,0,0,.771-.014l.07-.014v-.042c-.024,0-.026-.053-.154-.07a.348.348,0,0,1-.112-.028A.027.027,0,0,1,11.7,16a.029.029,0,0,1-.029-.014.029.029,0,0,1-.028-.014.05.05,0,0,1-.041-.014,2.633,2.633,0,0,0-.357-.193,2.507,2.507,0,0,1-.376-.3,2.563,2.563,0,0,1-.355-.436c-.1-.151-.142-.359-.245-.5a.029.029,0,0,0-.014-.028,4.382,4.382,0,0,1-.126-.8.228.228,0,0,1,.084-.014c.031,0,.126.076.157.091-.01,0,.761.254.783.189a.048.048,0,0,0,0-.042c0-.071-.037.007-.141-.14h-.028c-.081,0-.307-.351-.352-.425a4.185,4.185,0,0,1-.3-.5,2.511,2.511,0,0,1,.062-2.01c.043-.079.017-.151.141-.154.021.014,0,.035.084.1v.028a.057.057,0,0,1,.028.028l.07.057v.028a9.861,9.861,0,0,0,1.629,1.327,7.1,7.1,0,0,0,1.614.707,3.544,3.544,0,0,0,1.623.209c-.044-.233-.107-.225.014-1.065a2.373,2.373,0,0,1,1.175-1.579,2.485,2.485,0,0,1,1.357-.32,2.519,2.519,0,0,1,.714.145,1.325,1.325,0,0,1,.582.309h.028l.014.028h.028l.014.028.042.014.056.07h.028a.774.774,0,0,0,.169.169c.147.019.006-.033.448-.1a1.984,1.984,0,0,0,.506-.175c.094-.042.291-.19.392-.19h.028l.014-.028h.028a.567.567,0,0,0,.084-.07l.042.014a.109.109,0,0,1,0,.084l-.014.07L21.3,10.6a.1.1,0,0,1-.014.042,2.616,2.616,0,0,1-.771.982c-.008.005-.019,0-.028,0l-.014.028a.027.027,0,0,0-.028.014l-.029.014Z" style="fill:#fff;fill-rule:evenodd"/>
        </g>
    </g>
</svg>
