<svg xmlns="http://www.w3.org/2000/svg" viewBox="0 0 20 20"><defs><style>.cls-1{fill:none;}.cls-2{fill:#8f8e8e;}</style></defs><title>ic_photo</title><g id="Layer_2" data-name="Layer 2"><g id="Layer_24" data-name="Layer 24"><rect class="cls-1" width="20" height="20"/><path class="cls-2" d="M16.667,6H2.333A.338.338,0,0,0,2,6.343V17.657A.338.338,0,0,0,2.333,18H16.667A.338.338,0,0,0,17,17.657V6.343A.338.338,0,0,0,16.667,6Zm-.334,11.314H2.667V6.686H16.333Z"/><path class="cls-2" d="M16.818,14.62,13.14,11.831a.36.36,0,0,0-.232-.07.349.349,0,0,0-.224.084L9.55,14.609,8.033,13.387a.379.379,0,0,0-.434-.014L2.211,17.044l.111.6L7.79,13.919l3.3,2.658a.375.375,0,0,0,.452,0,.224.224,0,0,0,0-.364L10,14.974l2.933-2.588L16.482,15.1Z"/><path class="cls-2" d="M6,12.505A2.392,2.392,0,0,1,6,7.723a2.392,2.392,0,0,1,0,4.782ZM6,8.391a1.724,1.724,0,1,0,1.675,1.723A1.7,1.7,0,0,0,6,8.391Z"/></g></g></svg>