<svg xmlns="http://www.w3.org/2000/svg" viewBox="0 0 20 20"><defs><style>.cls-1{fill:none;}.cls-2{fill:#8f8e8e;}</style></defs><title>ic_video</title><g id="Layer_2" data-name="Layer 2"><g id="Layer_24" data-name="Layer 24"><rect class="cls-1" width="20" height="20"/><path class="cls-2" d="M12.342,11.718,7.575,8.633A.389.389,0,0,0,7.2,8.611a.343.343,0,0,0-.2.3v6.17a.341.341,0,0,0,.2.3.385.385,0,0,0,.17.039.377.377,0,0,0,.208-.061l4.767-3.085a.331.331,0,0,0,0-.564ZM7.733,14.431V9.569L11.489,12Z"/><path class="cls-2" d="M16.667,6H2.333A.338.338,0,0,0,2,6.343V17.657A.338.338,0,0,0,2.333,18H16.667A.338.338,0,0,0,17,17.657V6.343A.338.338,0,0,0,16.667,6Zm-.334,11.314H2.667V6.686H16.333Z"/></g></g></svg>