<svg xmlns="http://www.w3.org/2000/svg" width="40" height="40" viewBox="0 0 40 40"><defs><style>.cls-1{fill:#3a5896;}.cls-2{fill:#fff;}</style></defs><title>ICON_article_FB</title><g id="Layer_2" data-name="Layer 2"><g id="Layer_1-2" data-name="Layer 1"><circle class="cls-1" cx="20" cy="20" r="20"/><path class="cls-2" d="M24.06,17.186a9.628,9.628,0,0,1-2.707-.112,7.049,7.049,0,0,1,.226-2.481,7.074,7.074,0,0,1,2.481-.226V11.435l-1.015-.113s-.041.1-.226.113H20.451c-2.64.781-2.749,2.271-2.706,5.639a6.183,6.183,0,0,0-1.805.112v2.932h1.805V26.1a10.333,10.333,0,0,0,.112,2.82,12.524,12.524,0,0,0,3.5-.113V20.118a6,6,0,0,0,2.481-.225Q23.947,18.54,24.06,17.186Z"/></g></g></svg>