<svg xmlns="http://www.w3.org/2000/svg" viewBox="0 0 64 64"><defs><style>.cls-1{fill:#40aaf0;}.cls-2{fill:none;}</style></defs><title>icon-project</title><g id="Layer_2" data-name="Layer 2"><g id="Layer_1-2" data-name="Layer 1"><path class="cls-1" d="M11.68,13.538c1.048.553,1.85.978,2.467,1.306,1.977,1.049,2.043,1.088,2.161,1.075a.616.616,0,0,0,.632-.472.6.6,0,0,0-.309-.694l-4.373-2.308a.618.618,0,1,0-.578,1.093Zm35.848,7.188a.618.618,0,0,0,.617.618H53.09a.618.618,0,0,0,0-1.236H48.145A.618.618,0,0,0,47.528,20.726Zm-37.118.618h4.944a.618.618,0,1,0,0-1.236H10.41a.618.618,0,1,0,0,1.236Zm37.036-5.5,4.372-2.309a.617.617,0,0,0,.259-.835.623.623,0,0,0-.548-.33.619.619,0,0,0-.287.071l-4.373,2.309a.619.619,0,0,0-.258.836A.62.62,0,0,0,47.446,15.847ZM33.179,32.9l.067-.01c.253-.028.508-.066.778-.115.087-.014.157-.027.227-.041.262-.051.532-.116.827-.2l.065-.017.082-.022c.3-.085.608-.187.918-.3a12.293,12.293,0,1,0-8.624-.009c.326.121.634.222.941.309.028.009.056.016.083.023l.067.017c.291.079.562.143.827.2.075.015.15.028.225.041.267.048.529.087.779.115l.067.01a.6.6,0,0,0,.061.009c.031,0,.06.005.09.006l.093.006c.207.018.416.033.627.039.311.012.616.012.929,0,.211-.007.42-.022.629-.04.029,0,.06,0,.091-.006s.059,0,.089-.006A.617.617,0,0,0,33.179,32.9ZM21.9,15.673a11.264,11.264,0,0,1,5.493-5.186l.523-.23-.366.438a13.621,13.621,0,0,0-2.6,5.663l-.028.125-.126-.022c-.965-.167-1.911-.368-2.812-.6l-.162-.041Zm-.523,8.856-.041-.115a11.079,11.079,0,0,1-.527-2.153l-.01-.032a10.2,10.2,0,0,1,0-3.048l.015-.051a10.857,10.857,0,0,1,.523-2.143l.041-.116.119.031c1,.26,2.044.484,3.094.666l.128.022-.018.129a20.678,20.678,0,0,0,0,5.962l.018.129-.128.023c-1.05.181-2.091.405-3.094.665Zm6.016,6.385A11.266,11.266,0,0,1,21.9,25.727l-.075-.149.162-.041c.9-.23,1.849-.431,2.812-.6l.126-.022.028.125a13.622,13.622,0,0,0,2.6,5.662l.366.439Zm3.882.894-.162-.036c-2.678-.581-4.354-3.938-5.029-6.886l-.033-.143.145-.019a41.7,41.7,0,0,1,4.943-.368l.136,0Zm0-8.579h-.131a43.288,43.288,0,0,0-5.168.388l-.132.018-.019-.131a19.673,19.673,0,0,1,0-5.61l.019-.131.132.018a42.876,42.876,0,0,0,5.168.388l.131,0Zm0-6.183-.136,0a41.841,41.841,0,0,1-4.943-.367l-.145-.02.033-.143a14.561,14.561,0,0,1,1-2.937c.155-.328.3-.614.459-.879a5.84,5.84,0,0,1,3.575-3.069l.162-.036Zm10.516,8.681A11.265,11.265,0,0,1,36.3,30.914l-.523.23.366-.439a13.635,13.635,0,0,0,2.6-5.662l.028-.125.125.022c.965.167,1.911.367,2.813.6l.163.041Zm.4-8.825.119-.031.041.116a11.013,11.013,0,0,1,.526,2.15l.012.039a10.255,10.255,0,0,1,0,3.043l-.018.055a10.747,10.747,0,0,1-.521,2.14l-.041.115-.119-.031c-1-.26-2.045-.484-3.093-.665l-.13-.023.02-.129a20.87,20.87,0,0,0,0-5.962l-.02-.129.13-.022C40.148,17.387,41.189,17.163,42.193,16.9Zm-5.9-6.415a11.263,11.263,0,0,1,5.493,5.186l.076.15-.163.041c-.9.229-1.848.43-2.813.6l-.125.022-.028-.125a13.628,13.628,0,0,0-2.6-5.663l-.367-.438Zm-3.882-.894.162.036A5.84,5.84,0,0,1,36.151,12.7c.154.265.3.551.446.851A14.731,14.731,0,0,1,37.6,16.514l.033.143-.145.02a41.841,41.841,0,0,1-4.943.367l-.136,0Zm0,8.579.131,0a42.907,42.907,0,0,0,5.168-.388l.132-.018.019.131a19.673,19.673,0,0,1,0,5.61l-.019.131-.132-.018a43.32,43.32,0,0,0-5.168-.388h-.131Zm.162,13.6-.162.036V24.354l.136,0a41.7,41.7,0,0,1,4.943.368l.145.019-.033.143C36.931,27.834,35.255,31.191,32.576,31.772ZM29.058,45.544a1.26,1.26,0,0,0-1.393-1.107l-.552.064-.036-.117c-.112-.363-.211-.7-.305-1.021a10.942,10.942,0,0,0-2.294-4.7l-1.614-1.839a6.521,6.521,0,0,0-1.7-1.285c-.878-.443-1.6-.81-2.192-1.112-2.632-1.34-2.789-1.42-3.425-1.42a2.262,2.262,0,0,0-1.231.368l-.142.091-.071-.153-3.124-6.706a2.781,2.781,0,0,0-2.546-2.093,2.518,2.518,0,0,0-2.041.96,3,3,0,0,0-.437,2.638l3.5,11.025a5.5,5.5,0,0,0,2.61,3.337c.723.366,1.3.657,1.8.9,2.611,1.307,2.611,1.307,3.308,2.089l.178.2-.149.092a1.267,1.267,0,0,0-.587,1.211l.662,5.8c.163,1.424.244,2.132.252,2.2a2.048,2.048,0,0,0,2,1.844h8.64a1.983,1.983,0,0,0,1.515-.592,1.85,1.85,0,0,0,.443-1.437c-.009-.089-.716-6.28-.721-6.321ZM14.317,42.222c-.472-.236-1.018-.509-1.656-.831l-.007,0a4.254,4.254,0,0,1-2.009-2.571l-.01-.036L7.15,27.792c-.093-.376-.3-1.6.853-1.98.571-.158,1.34-.072,1.812,1.216.019.053.2.433,1.348,2.9l2.148,4.61-.026.06A2.292,2.292,0,0,0,14.4,37.74c.9.453,1.582.8,2.109,1.068,1.689.857,1.722.878,1.848.87a.614.614,0,0,0,.626-.478.6.6,0,0,0-.32-.694l-3.7-1.87c-.519-.261-.6-.558-.631-.655a1.421,1.421,0,0,1,.274-1.21,1.212,1.212,0,0,1,.948-.529,1.491,1.491,0,0,1,.66.179l4.4,2.22a5.258,5.258,0,0,1,1.334,1l.245.279c2.5,2.843,2.5,2.843,3.393,5.785l.286.936-7.055.8-.051-.058c-.151-.168-.285-.32-.4-.457C17.261,43.694,17.261,43.694,14.317,42.222Zm3.515,4.583.146-.017c.935-.108,8.843-1.01,9.7-1.108l.146-.016.266,2.327-.147.017-9.7,1.108-.147.016Zm10.9,8.607a.757.757,0,0,1-.579.17H19.54a.8.8,0,0,1-.792-.749l-.51-4.472.146-.017,9.7-1.107.146-.017.647,5.667A.7.7,0,0,1,28.734,55.412ZM57.268,25.454a2.5,2.5,0,0,0-2.03-.942,2.768,2.768,0,0,0-2.537,2.07l-3.519,6.9-.137-.091a2.371,2.371,0,0,0-2.48-.077c-.8.4-1.482.744-2.063,1.034-3.383,1.686-3.383,1.686-4.911,3.458-.211.246-.452.523-.733.843a10.221,10.221,0,0,0-1.8,3.116L36.216,44.5l-.3-.035a3.221,3.221,0,0,0-.4-.036,1.255,1.255,0,0,0-1.248,1.114l-.028,0c0,.21-.052.7-.183,1.845-.293,2.567-.838,7.344-.847,7.429A1.929,1.929,0,0,0,33.7,56.27c.552.574,1.124.573,2.814.554.3,0,.627-.006.995-.006h6.3a2.047,2.047,0,0,0,2-1.845l.914-8.007a1.264,1.264,0,0,0-.587-1.211l-.148-.092.233-.262c.63-.711.63-.711,3.327-2.064.475-.237,1.033-.517,1.7-.851l.032-.017a5.511,5.511,0,0,0,2.6-3.32L54,38.8c2.37-6.805,3.691-10.6,3.72-10.693A3.053,3.053,0,0,0,57.268,25.454ZM44.582,54.833a.8.8,0,0,1-.781.748l-7.433,0h-.561c-.962,0-1.071-.021-1.215-.172-.191-.2-.191-.2.159-3.208.087-.742.2-1.671.327-2.838l.017-.147.146.017,9.7,1.107.146.017Zm.649-5.7-.146-.016-9.7-1.108-.146-.017.265-2.327,10,1.141ZM56.524,27.773l0,.012c0,.013-.205.59-.513,1.474-.983,2.825-3.286,9.44-3.328,9.574a4.258,4.258,0,0,1-2,2.554l-3.6,1.818a5.473,5.473,0,0,0-1.547,1.118l-1,1.126-7.056-.8.052-.17c.1-.311.181-.6.262-.871a9.644,9.644,0,0,1,2.012-4.14c.23-.263.434-.5.619-.711a7.389,7.389,0,0,1,2.313-2.111c1-.5,1.78-.9,2.4-1.215,2.327-1.181,2.334-1.185,2.655-1.185h0a1.3,1.3,0,0,1,1.012.616,1.6,1.6,0,0,1,.213,1.125c-.028.1-.115.394-.631.654l-3.706,1.87a.622.622,0,0,0-.273.831.63.63,0,0,0,.83.273l3.707-1.87A2.3,2.3,0,0,0,50.2,36.31a2.622,2.622,0,0,0-.148-1.692l-.026-.063,3.793-7.436c.01-.019.023-.053.04-.1.149-.383.608-1.545,1.8-1.213A1.536,1.536,0,0,1,56.524,27.773Z"/><rect class="cls-2" width="64" height="64"/></g></g></svg>