<svg xmlns="http://www.w3.org/2000/svg" width="40" height="40" viewBox="0 0 40 40"><defs><style>.cls-1{fill:#fb6719;}.cls-2{fill:#fff;}</style></defs><title>ICON_article_OK</title><g id="Layer_2" data-name="Layer 2"><g id="Layer_1-2" data-name="Layer 1"><circle class="cls-1" cx="20" cy="20" r="20"/><path class="cls-2" d="M15.739,15.812v.219h.016v.141h.016v.11h.015v.094H15.8v.094h.016v.063h.015v.079h.016v.062h.016v.063h.015V16.8H15.9v.047h.016v.063h.015v.047h.016V17h.016v.047h.015l.016.094h.016v.031h.015v.047h.016v.032h.016V17.3h.016v.031h.015v.047H16.1l.031.094h.016v.032h.016v.031h.015v.031h.016v.047l.032.016v.032h.015v.031h.016v.031h.015v.032h.016v.031H16.3v.032l.031.015.016.063.031.016.016.062h.016l.015.047.032.016v.031h.015l.016.047.031.016v.032l.032.015.016.047.047.032v.031l.047.031v.032l.062.047v.031l.079.063v.031l.141.126v.031l.126.11.031.047h.031l.126.141h.031l.063.079h.031l.047.062h.032l.031.048h.032l.031.047h.031l.032.047h.031l.016.031.047.016v.015h.031l.016.032.047.015v.016l.063.016.015.031.063.016.016.031.062.016v.016h.032v.015h.031v.016h.032v.016h.031v.015h.031v.016l.063.016v.015h.032v.016h.031v.016l.094.031V19.7h.047v.016h.031v.015l.079.016v.016h.047v.015h.031V19.8h.047v.016h.047v.015h.047v.016h.048v.016h.047v.016h.062v.015h.047v.016h.063v.016h.063v.015h.063v.016l.141.016v.015h.094V20H19.5v.016h.11v.015h.141v.016h.235a1.2,1.2,0,0,0,.377.016v-.016H20.6v-.016h.141v-.015h.11V20h.094v-.016h.094v-.015l.141-.016v-.016l.189-.031V19.89l.11-.015v-.016h.047v-.016h.047v-.016h.047v-.015l.094-.016V19.78h.031v-.015h.047v-.016l.079-.016v-.015H21.9V19.7h.047v-.016l.094-.031v-.016h.032v-.016h.031v-.015l.079-.016.015-.031h.032v-.016h.031v-.016H22.3v-.015h.032V19.5h.031v-.016h.031l.016-.031.063-.016.015-.031.063-.016v-.016l.047-.015.016-.032h.031V19.31l.047-.016.016-.031h.031l.032-.047H22.8l.016-.032h.031l.047-.063h.032l.015-.031.048-.016L23.049,19l.047-.016.11-.125h.032l.125-.141.079-.063V18.62l.125-.11v-.032l.078-.062v-.032l.063-.047v-.031l.047-.032v-.031l.047-.031V18.18l.032-.015v-.032l.031-.016v-.031l.031-.016v-.031l.032-.016v-.031l.031-.016v-.031l.031-.016.032-.094.031-.015.032-.095.031-.015.031-.1h.016v-.031h.016l.031-.094h.016v-.047h.015v-.031h.016l.016-.063h.016V17.3H24.3V17.27h.016l.2-.643v-.078h.016v-.063h.015v-.094h.016V16.3h.016c.01-.094.02-.188.031-.282v-.157a2.128,2.128,0,0,0,.016-.5h-.016v-.2H24.6v-.142h-.015v-.094h-.016v-.094h-.016v-.094H24.54v-.063h-.016v-.078l-.173-.565h-.015v-.031H24.32v-.047H24.3v-.032h-.015v-.047h-.016v-.031h-.016l-.016-.079h-.015l-.032-.094h-.015v-.031h-.016V13.6h-.016v-.032h-.015v-.031h-.016v-.031H24.1v-.032l-.031-.016-.032-.094-.031-.015-.016-.063-.031-.016-.016-.047h-.015l-.016-.063-.031-.015v-.032l-.047-.031v-.031l-.032-.016V13l-.047-.032v-.031l-.047-.032v-.031l-.047-.031v-.032l-.047-.031v-.016l-.031-.015v-.032l-.11-.094V12.6l-.141-.126-.142-.157h-.031l-.094-.11h-.031l-.016-.031H23l-.031-.047h-.032l-.031-.047h-.031l-.032-.047h-.031l-.032-.047h-.031l-.016-.031H22.7l-.031-.047h-.032l-.015-.032-.047-.015v-.016l-.063-.016L22.5,11.8l-.062-.016-.016-.031-.094-.032-.016-.031h-.031V11.67h-.032v-.016h-.031v-.015h-.031v-.016h-.032v-.016h-.031v-.015l-.094-.032v-.015l-.079-.016v-.016H21.92V11.5h-.047v-.016h-.032v-.016h-.047a4.391,4.391,0,0,0-1.882-.313c-.04.035-.126,0-.188.015v.016h-.141V11.2h-.11v.015h-.095v.016H19.3c-.082.025-.188.052-.267.078h-.062v.016h-.047v.016h-.047v.016l-.157.031V11.4h-.032v.015l-.094.016v.016h-.031v.015h-.047v.016h-.032V11.5h-.047a4.6,4.6,0,0,0-2.4,2.447l-.016.094h-.015v.031H15.99l-.016.094h-.015v.047h-.016v.047h-.016v.048h-.015l-.016.109H15.88v.063c-.026.079-.053.185-.078.267v.094h-.016c-.01.115-.021.23-.031.345h-.016v.22a1.515,1.515,0,0,0-.015.408Zm2.6-.283v-.172h.016v-.094h.016v-.079h.015v-.063h.016v-.047h.016l.031-.141h.016V14.9h.015v-.047H18.5l.031-.1h.016l.016-.062.031-.016.016-.063.031-.015v-.032l.032-.015v-.032l.062-.047v-.031l.079-.063v-.031l.031-.016.079-.094h.031l.063-.079h.031L19.1,14.1h.031l.016-.032.047-.015v-.016l.063-.016.016-.031.062-.016v-.015l.095-.032v-.016h.047V13.9H19.5v-.016l.094-.016v-.015h.047v-.016h.047v-.016h.063V13.8h.078v-.016h.094v-.016h.157l.157-.016v.016h.189v.016h.094V13.8H20.6v.015h.063v.016h.047v.016h.047v.015h.047v.016h.047V13.9h.032v.015h.047v.016l.094.032v.015l.062.016.016.031.063.016.015.031h.032l.031.047h.032l.031.047h.031l.063.079h.031l.016.031.094.079v.031l.079.063v.031l.047.032v.031l.047.031V14.6l.031.015.016.063.031.016.016.062h.016l.031.1h.016V14.9h.015v.031H21.9v.047h.016v.047h.016v.047h.015v.047h.016v.063a1.505,1.505,0,0,1,.015.769l-.015.141h-.016v.047h-.015v.047H21.92v.047H21.9v.047h-.016l-.015.063h-.016c-.016.047-.031.094-.047.141l-.031.016-.016.063h-.016l-.015.047-.032.015v.032l-.031.015v.032l-.047.031v.031l-.032.016a.322.322,0,0,0-.094.126.3.3,0,0,0-.125.094l-.016.031h-.031l-.047.063h-.032l-.015.031H21.2l-.016.032-.047.015v.016l-.094.031v.016H21.01v.016h-.031v.015l-.094.032v.016h-.048v.015h-.031v.016l-.11.016v.015h-.047V17.4h-.063v.016l-.188.015a1.405,1.405,0,0,1-.627-.031h-.063V17.38h-.047v-.015l-.11-.016v-.016H19.52v-.015h-.047V17.3l-.095-.032v-.015h-.031v-.016h-.031v-.016h-.032v-.015h-.031v-.016h-.031v-.016l-.047-.015-.016-.032h-.032l-.015-.031h-.031l-.048-.063H19L18.986,17a.309.309,0,0,0-.125-.094.315.315,0,0,0-.094-.126l-.032-.016v-.031l-.047-.031v-.032l-.031-.015v-.032l-.032-.015-.015-.047h-.016l-.016-.063-.031-.016-.047-.141h-.016l-.015-.063h-.016v-.047h-.016v-.047h-.015v-.047h-.016v-.047H18.39v-.063h-.015v-.078h-.016v-.094h-.016v-.2h-.015C18.313,15.6,18.34,15.566,18.343,15.529Zm6.824,5.93V21.3h-.016v-.078h-.015v-.063H25.12v-.047H25.1l-.015-.1h-.016l-.016-.062h-.015v-.032h-.016v-.031H25.01v-.031h-.016v-.032l-.031-.015v-.032l-.047-.031v-.032l-.047-.031v-.031l-.063-.047-.078-.094H24.7l-.047-.063h-.031l-.016-.032h-.031l-.016-.031h-.031v-.016h-.032v-.015h-.031v-.016H24.43v-.016H24.4v-.015h-.031V20.3l-.282-.079h-.142V20.2l-.36.031v.016l-.2.047v.016l-.1.031v.016h-.031v.015l-.063.016-.015.031-.063.016-.016.032h-.031v.015h-.031l-.016.032h-.031v.015h-.032v.016h-.031v.016h-.032l-.015.031h-.032v.016h-.031v.015h-.032v.016h-.031v.016H22.72v.015h-.032v.016h-.031v.016h-.031v.015l-.094.032v.016h-.048v.015h-.031V20.8l-.063.016v.015h-.047v.016h-.031v.016l-.078.015v.016l-.094.016v.015h-.032v.016l-.094.016v.015h-.047v.016H21.92V21h-.047v.015h-.047v.016l-.11.016v.016l-.126.015V21.1h-.047v.016h-.078v.015H21.4v.016h-.078v.016h-.079v.016h-.078v.015h-.094v.016h-.11v.016h-.126v.015H20.68v.016h-.219v.016h-.267l-.674-.032v-.015h-.126v-.016h-.11c-.073-.022-.179-.041-.251-.063h-.078v-.016l-.141-.015V21.1l-.173-.031v-.016h-.047v-.016h-.063v-.016h-.047V21h-.047v-.016H18.39v-.016h-.047v-.015H18.3v-.016l-.094-.016V20.91h-.031v-.016h-.047v-.016h-.032v-.015h-.047v-.016h-.031v-.016h-.047v-.015L17.9,20.8v-.016h-.047v-.015h-.032v-.016l-.062-.016v-.016h-.032v-.015H17.7V20.69h-.031v-.016h-.032v-.015h-.031v-.016h-.031v-.016h-.032v-.015h-.031V20.6H17.48V20.58h-.031l-.016-.031-.094-.031-.016-.032-.062-.015-.016-.032-.063-.016-.015-.031-.094-.031v-.016l-.095-.031V20.3h-.047v-.016h-.047a1.224,1.224,0,0,0-.47-.078c-.033.029-.09,0-.142.015l-.282.079v.016l-.063.015v.016H15.9v.016h-.031v.015h-.032v.016H15.8l-.016.031h-.031l-.016.032h-.031l-.047.063h-.032l-.047.062-.094.079v.031l-.062.047v.032l-.032.015v.032l-.031.015v.032h-.016v.031h-.016v.031h-.015v.032H15.3v.031h-.016v.031h-.015l-.016.1a1.176,1.176,0,0,0,0,.8l.016.094h.015l.032.094h.015v.031h.016l.016.063.031.016v.031l.032.016v.031l.046.032v.031l.126.11.047.063h.031l.048.062h.031l.016.032.062.015.016.032.063.015.015.032.063.015.016.032h.031v.015h.032l.015.032h.032v.016h.031v.015h.031v.016h.032l.016.031h.031V22.9h.031v.016h.032v.015h.031v.016h.031v.016h.032v.015h.031V23h.031v.016h.032v.016h.031v.015h.032v.016H16.6v.016l.063.015v.016l.062.016v.015h.032v.016h.047v.016l.063.015V23.2H16.9v.016h.047v.016l.063.015v.016h.047v.016h.031v.015l.079.016v.016h.047v.015h.031v.016l.094.016v.015h.032V23.4l.141.031v.016h.047v.016h.047v.015h.047V23.5H17.7v.016h.047v.015l.094.016v.016H17.9v.015h.047v.016h.063v.016h.062v.016l.3.062V23.7c-.037.021-.051.05-.079.079l-.188.188-.408.392-.157.173-.91.894c-.12.125-.24.251-.361.376a2.875,2.875,0,0,0-.658.753V26.6a1.111,1.111,0,0,0-.079.737l.016.142h.016v.047h.015v.031H15.6v.047h.016l.031.094h.016v.032h.015l.016.062.032.016v.031l.031.016.016.047.062.047v.032l.032.015.062.079h.032l.047.062h.031l.032.047.062.016.016.031.063.016v.016l.094.031v.016h.047v.016h.031v.015h.047v.016l.142.016a1.111,1.111,0,0,0,.737-.079h.047v-.015l.063-.016v-.016h.031l.016-.031.063-.016.031-.047h.031l.032-.047h.031l.439-.455.471-.455.784-.8.471-.455.094-.109a1.616,1.616,0,0,0,.251-.252c.08.022.149.134.2.189l.063.047.407.423,1.71,1.7.157.172h.031l.032.047H22.8l.032.047.062.016.016.031h.031v.016l.063.016V28.3h.047v.016h.032v.016h.047v.015h.047v.016h.047v.016H23.3a1.043,1.043,0,0,0,.392.031v-.015h.11v-.016h.063v-.016h.063v-.016l.094-.015v-.016l.094-.031v-.016h.031v-.016h.032v-.016l.062-.015.016-.032h.032l.031-.047h.031l.047-.062h.032l.015-.032.079-.062v-.032l.063-.047.015-.047.032-.016v-.031l.031-.016.016-.062H24.7V27.7h.016c.01-.031.021-.063.032-.094h.015v-.047h.016V27.53h.016l.031-.189a.907.907,0,0,0,.031-.376h-.015v-.11h-.016v-.063h-.016V26.73h-.015v-.047h-.016v-.048h-.016V26.6h-.015v-.047h-.016l-.016-.063H24.7v-.031l-.031-.016-.016-.063-.031-.015v-.032l-.063-.047a3.961,3.961,0,0,0-.455-.47l-.486-.5-.8-.784-.455-.471-.11-.094c-.062-.063-.125-.126-.188-.188-.028-.029-.042-.058-.079-.079.034-.032.076-.014.126-.031v-.016h.063v-.016h.063v-.015l.172-.032v-.016l.11-.015v-.016h.047v-.016h.047v-.015h.047V23.5H22.7v-.016h.047v-.015H22.8v-.016h.047v-.016l.142-.031a8.722,8.722,0,0,0,1.16-.549h.032v-.016h.031v-.015h.031v-.016h.032l.016-.032.062-.015.016-.032.063-.015.015-.032.063-.015.016-.032.063-.015.031-.047h.031l.032-.047h.031l.047-.063.126-.11v-.031l.047-.032v-.031l.031-.016v-.031l.031-.016.016-.063h.016V22.1h.016l.031-.094h.016l.078-.283v-.156h.016v-.11Z"/></g></g></svg>