<svg xmlns="http://www.w3.org/2000/svg" viewBox="0 0 64 64"><defs><style>.cls-1{fill:#40aaf0;}.cls-2,.cls-3,.cls-4{fill:none;}.cls-2,.cls-3{stroke:#40aaf0;stroke-linejoin:round;stroke-width:1.35px;}.cls-2{stroke-linecap:round;}</style></defs><title>icon-center </title><g id="Layer_2" data-name="Layer 2"><g id="Layer_1-2" data-name="Layer 1"><path class="cls-1" d="M34.685,55.386l2.435,2.167a2.826,2.826,0,0,0,1.887.712h.016a2.84,2.84,0,0,0,2.032-.848l.373-.385a2.586,2.586,0,0,0,.622-1.081l.062-.206,1.066.947a2.883,2.883,0,0,0,3.939-.14l.371-.384A2.582,2.582,0,0,0,48.2,54.7l.02-.152.149.037a2.931,2.931,0,0,0,.693.095,2.852,2.852,0,0,0,2.041-.849l.372-.384a2.58,2.58,0,0,0,.741-1.806,2.627,2.627,0,0,0-.077-.6L52.1,50.9l.151-.019a2.768,2.768,0,0,0,1.669-.812l.373-.385a2.58,2.58,0,0,0-.144-3.753l-.811-.72,6.821-6.4a2.987,2.987,0,0,0,.784-2.044A2.94,2.94,0,0,0,60.3,34.9l-4.119-4.564a3.089,3.089,0,0,0-2.412-1.1,3.045,3.045,0,0,0-1.571.423l-3.631,1.769a3.515,3.515,0,0,1-1.7.4h-.039a3.243,3.243,0,0,1-1.319-.254l-3.544-1.652a4.271,4.271,0,0,0-1.792-.361,4.566,4.566,0,0,0-2.526.7l-.478.323-1.48-.709a5.311,5.311,0,0,0-2.25-.443,5.531,5.531,0,0,0-2.067.364l-2.414.991a4.694,4.694,0,0,1-1.666.278h-.051a4.7,4.7,0,0,1-1.664-.278l-3.421-1.439a3.97,3.97,0,0,0-2.845.039,3.429,3.429,0,0,0-1.273.842l-4.283,5.181a2.539,2.539,0,0,0,.26,3.735L19.139,42.6,17.074,44.67a2.578,2.578,0,0,0,.095,3.753l.395.362a2.775,2.775,0,0,0,1.228.638l.176.044-.09.157a2.565,2.565,0,0,0-.344,1.26,2.6,2.6,0,0,0,.858,1.922l.262.239h0l.135.124a2.913,2.913,0,0,0,3.01.522l.146-.058.038.152a2.62,2.62,0,0,0,.767,1.286l.4.362a2.837,2.837,0,0,0,1.918.734h.01a2.868,2.868,0,0,0,1.539-.448l.149-.095.055.169a2.6,2.6,0,0,0,.721,1.139l.4.364a2.833,2.833,0,0,0,1.917.734h.008a2.856,2.856,0,0,0,2.013-.824Zm4.372,1.522a1.5,1.5,0,0,1-.994-.371l-2.5-2.23.05-.095a2.578,2.578,0,0,0,.313-1.2,2.607,2.607,0,0,0-.858-1.922l-.4-.362a2.829,2.829,0,0,0-1.917-.735.192.192,0,0,0-.084.007.7.7,0,0,1-.079.008l-.145.008,0-.179a5.119,5.119,0,0,0-.877-1.95l-.376-.338a2.8,2.8,0,0,0-1.4-.688l-.161-.029.056-.152a2.557,2.557,0,0,0,.164-.879,2.611,2.611,0,0,0-.857-1.922l-.4-.363a2.837,2.837,0,0,0-1.917-.735.478.478,0,0,0-.148.013l-.1.01-.143.012-.005-.145a2.587,2.587,0,0,0-.849-1.838l-.395-.363a2.836,2.836,0,0,0-1.917-.734h-.008a2.852,2.852,0,0,0-2.014.824l-1.022,1.026-.094-.064L14.927,38.1a1.344,1.344,0,0,1-.511-1.051,1.324,1.324,0,0,1,.363-.914l4.284-5.18a2.165,2.165,0,0,1,.79-.518,2.882,2.882,0,0,1,1.014-.192h0a2.13,2.13,0,0,1,.8.146L25.1,31.83a6.62,6.62,0,0,0,4.427,0l2.414-.991a4.143,4.143,0,0,1,1.545-.262h.026a4.05,4.05,0,0,1,1.629.31l.859.413-2.66,1.8a2.578,2.578,0,0,0-1.156,2.131,2.544,2.544,0,0,0,.538,1.554l.325.42a3.1,3.1,0,0,0,2.435,1.145A3.042,3.042,0,0,0,37,37.95l1.474-.85a2.64,2.64,0,0,1,1.279-.3h.029a2.746,2.746,0,0,1,1.5.415l4.073,2.809a40.679,40.679,0,0,1,3.216,2.524l4.715,4.194a1.381,1.381,0,0,1,.467,1.033h0a1.382,1.382,0,0,1-.392.96l-.372.384a1.517,1.517,0,0,1-2.066.073L44.75,43.694l-.893.92L50.463,50.5a1.376,1.376,0,0,1,.076,2l-.37.383a1.514,1.514,0,0,1-2.065.074l-6.176-5.493-.892.921,5.46,4.857a1.374,1.374,0,0,1,.063,1.977l-.372.384a1.519,1.519,0,0,1-2.067.074l-5.46-4.849-.891.922,2.7,2.4A1.361,1.361,0,0,1,40.5,56.08l-.371.385A1.481,1.481,0,0,1,39.057,56.908Zm-8.2-.129a1.491,1.491,0,0,1-1.008-.385l-.4-.363a1.372,1.372,0,0,1-.049-1.993l2.245-2.256a1.516,1.516,0,0,1,2.067-.047l.4.362a1.377,1.377,0,0,1,.049,1.995l-2.247,2.255A1.478,1.478,0,0,1,30.856,56.779Zm-4.787-1.863a1.493,1.493,0,0,1-1.008-.384l-.4-.362a1.369,1.369,0,0,1-.454-1.023,1.352,1.352,0,0,1,.325-.878l3.71-3.726a1.532,1.532,0,0,1,1.992.013l.4.362a1.375,1.375,0,0,1,.049,1.994l-3.558,3.573A1.479,1.479,0,0,1,26.069,54.916Zm-4.357-2.265a1.493,1.493,0,0,1-1.009-.383l-.4-.363a1.379,1.379,0,0,1-.05-1.994c1.82-1.821,5.28-5.288,5.358-5.371a1.545,1.545,0,0,1,2.028-.018l.4.365a1.365,1.365,0,0,1,.454,1.02,1.387,1.387,0,0,1-.4.973l-5.319,5.341A1.485,1.485,0,0,1,21.712,52.651Zm-2.224-4.383h0a1.489,1.489,0,0,1-1.007-.385l-.395-.359a1.373,1.373,0,0,1-.05-1.995l3.987-4a1.516,1.516,0,0,1,2.066-.048l.4.363a2.37,2.37,0,0,1,.453,1.022,1.37,1.37,0,0,1-.262.8c-.057.06-4.318,4.332-4.318,4.332A1.529,1.529,0,0,1,19.488,48.268Zm32.891-3.914-2.945-2.619a41.366,41.366,0,0,0-3.342-2.624L42.019,36.3a4.093,4.093,0,0,0-2.3-.653,4.04,4.04,0,0,0-1.977.488l-1.471.851a1.674,1.674,0,0,1-.837.216h-.007a1.733,1.733,0,0,1-1.367-.636l-.323-.418a1.32,1.32,0,0,1,.318-1.928l4.355-2.942a3.305,3.305,0,0,1,1.738-.465.254.254,0,0,1,.039,0,2.886,2.886,0,0,1,1.2.234L44.93,32.7a4.579,4.579,0,0,0,1.914.384,4.856,4.856,0,0,0,2.438-.6l3.632-1.77a1.67,1.67,0,0,1,.857-.224h0a1.758,1.758,0,0,1,1.359.611l4.119,4.564a1.757,1.757,0,0,1,.372,1.106,1.775,1.775,0,0,1-.456,1.218l0,.005Z"/><path class="cls-2" d="M39.063,8.554a6.4,6.4,0,0,1,3.173,1.354,7.444,7.444,0,0,0,4.189,1.178c1.636.049,1.441.049,1.441.049"/><path class="cls-3" d="M42.823,18.154a3.26,3.26,0,0,0,.578,2.184,2.7,2.7,0,0,0,.908.732,1.133,1.133,0,0,1,.524.691h3.179a1.133,1.133,0,0,1,.524-.691,2.7,2.7,0,0,0,.914-.732,3.26,3.26,0,0,0,.578-2.184Z"/><line class="cls-2" x1="46.483" y1="12.456" x2="48.992" y2="18.081"/><polyline class="cls-2" points="46.483 9.908 46.483 12.456 43.686 18.154"/><path class="cls-2" d="M34.879,8.554a6.4,6.4,0,0,0-3.174,1.354,7.439,7.439,0,0,1-4.189,1.178c-1.636.049-1.44.049-1.44.049"/><path class="cls-3" d="M31.118,18.154a3.26,3.26,0,0,1-.578,2.184,2.678,2.678,0,0,1-.908.732,1.134,1.134,0,0,0-.523.691h-3.18a1.134,1.134,0,0,0-.523-.691,2.691,2.691,0,0,1-.914-.732,3.26,3.26,0,0,1-.578-2.184Z"/><polyline class="cls-2" points="27.459 9.908 27.459 12.456 30.233 18.154"/><line class="cls-2" x1="27.459" y1="12.456" x2="24.927" y2="18.081"/><path class="cls-3" d="M39.063,8.554a2.092,2.092,0,1,1-2.092-2.092A2.092,2.092,0,0,1,39.063,8.554Z"/><path class="cls-2" d="M34.465,24.085a2.513,2.513,0,0,1,5.012,0"/><line class="cls-2" x1="36.971" y1="5.266" x2="36.971" y2="6.462"/><line class="cls-2" x1="36.971" y1="10.646" x2="36.971" y2="21.761"/><line class="cls-2" x1="31.798" y1="24.342" x2="41.825" y2="24.342"/><rect class="cls-4" width="64" height="64"/></g></g></svg>