<svg xmlns="http://www.w3.org/2000/svg" xmlns:xlink="http://www.w3.org/1999/xlink" viewBox="0 0 64 64"><defs><style>.cls-1,.cls-2,.cls-4{fill:none;}.cls-2,.cls-4{stroke:#40aaf0;stroke-linecap:round;stroke-linejoin:round;}.cls-2{stroke-width:1.4px;}.cls-3{clip-path:url(#clip-path);}.cls-4{stroke-width:1.2px;}</style><clipPath id="clip-path"><path class="cls-1" d="M3.685,8.95V57.562H60.652V8.95ZM61.534,28.1a1.734,1.734,0,0,1-1.584,1.028H55.7C54.848,48.251,39.913,58.55,25.836,58.55a1.736,1.736,0,0,1,0-3.471c7.064,0,14.362-9.667,14.847-25.955H36.392a1.736,1.736,0,0,1-1.337-2.841L46.361,12.615a1.734,1.734,0,0,1,1.3-.629,1.7,1.7,0,0,1,1.326.577L61.241,26.23A1.732,1.732,0,0,1,61.534,28.1Z"/></clipPath></defs><title>icon-grants</title><g id="Layer_2" data-name="Layer 2"><g id="Layer_1-2" data-name="Layer 1"><path class="cls-2" d="M8.5,43.63A21.322,21.322,0,0,1,25.783,9.819c5.888,0,12.046,2.094,15.781,6.787"/><path class="cls-2" d="M37.889,29.894c.029.6,0,.63,0,1.246,0,.719-.008,1.969-.047,2.669"/><path class="cls-2" d="M25.783,9.819c4.629,0,9.317,5.014,11.194,12.315"/><path class="cls-2" d="M16.256,44.3A32.75,32.75,0,0,1,13.677,31.14c0-11.775,5.42-21.321,12.106-21.321"/><line class="cls-2" x1="25.783" y1="9.819" x2="25.783" y2="41.239"/><line class="cls-2" x1="7.325" y1="20.47" x2="37.829" y2="20.47"/><line class="cls-2" x1="7.325" y1="41.199" x2="19.167" y2="41.199"/><line class="cls-2" x1="4.462" y1="31.199" x2="38.75" y2="31.199"/><g class="cls-3"><path class="cls-4" d="M28.529,46.536c0,1.155-2.288,2.091-5.111,2.091s-5.11-.936-5.11-2.091,2.288-2.09,5.11-2.09S28.529,45.382,28.529,46.536Z"/><path class="cls-4" d="M28.529,46.536v2.711c0,1.154-2.288,2.091-5.111,2.091s-5.11-.937-5.11-2.091V46.536"/><path class="cls-4" d="M28.529,51.9v2.71c0,1.155-2.288,2.091-5.111,2.091s-5.11-.936-5.11-2.091V51.9"/><path class="cls-4" d="M28.529,49.366v2.711c0,1.154-2.288,2.09-5.111,2.09s-5.11-.936-5.11-2.09V49.366"/><path class="cls-4" d="M41.671,38.488c0,1.154-2.283,2.084-5.106,2.084s-5.116-.93-5.116-2.084S33.738,36.4,36.56,36.4,41.671,37.333,41.671,38.488Z"/><path class="cls-4" d="M41.671,46.581v2.71c0,1.155-2.288,2.091-5.111,2.091-2.808,0-5.111-.951-5.111-2.091v-2.71"/><path class="cls-4" d="M41.671,43.922v2.711c0,1.155-2.288,2.091-5.111,2.091-2.808,0-5.111-.952-5.111-2.091V43.922"/><path class="cls-4" d="M41.671,41.264v2.711c0,1.154-2.288,2.09-5.111,2.09-2.808,0-5.111-.951-5.111-2.09V41.264"/><path class="cls-4" d="M41.671,38.606v2.71c0,1.155-2.288,2.091-5.111,2.091-2.808,0-5.111-.951-5.111-2.091v-2.71"/><path class="cls-4" d="M41.671,49.239V51.95c0,1.154-2.288,2.09-5.111,2.09-2.808,0-5.111-.951-5.111-2.09V49.239"/><path class="cls-4" d="M41.671,51.9v2.71c0,1.139-2.274,2.091-5.111,2.091s-5.111-.936-5.111-2.091V51.9"/><path class="cls-4" d="M15.285,49.366c0,1.155-2.288,2.091-5.11,2.091s-5.111-.936-5.111-2.091,2.288-2.09,5.111-2.09S15.285,48.211,15.285,49.366Z"/><path class="cls-4" d="M15.285,49.366v2.711c0,1.154-2.288,2.09-5.11,2.09s-5.111-.936-5.111-2.09V49.366"/><path class="cls-4" d="M15.285,51.9v2.71c0,1.155-2.288,2.091-5.11,2.091s-5.111-.936-5.111-2.091V51.9"/></g><path class="cls-2" d="M25.836,56.814c14.773,0,28.169-11.227,28.169-29.425H59.95L47.7,13.721,36.392,27.389h6.053c0,18.2-8.221,29.425-16.609,29.425"/><rect class="cls-1" width="64" height="64"/></g></g></svg>