<svg xmlns="http://www.w3.org/2000/svg" width="40" height="40" viewBox="0 0 40 40"><defs><style>.cls-1{fill:#c82200;}.cls-2{fill:#fff;fill-rule:evenodd;}</style></defs><title>ICON_article_Youtube</title><g id="Layer_2" data-name="Layer 2"><g id="Layer_1-2" data-name="Layer 1"><circle class="cls-1" cx="20" cy="20" r="20"/><path class="cls-2" d="M29.07,16.029a3.061,3.061,0,0,0-2.558-2.474,80.675,80.675,0,0,0-13.024,0,3.061,3.061,0,0,0-2.558,2.474,30.082,30.082,0,0,0,0,7.942,3.061,3.061,0,0,0,2.558,2.474,80.675,80.675,0,0,0,13.024,0,3.06,3.06,0,0,0,2.558-2.474A30.082,30.082,0,0,0,29.07,16.029Zm-11.217,6.41V17.561L22.831,20Z"/></g></g></svg>