<svg xmlns="http://www.w3.org/2000/svg" width="40" height="40" viewBox="0 0 40 40"><defs><style>.cls-1{fill:#4e6e91;}.cls-2{fill:#fff;}</style></defs><title>ICON_article_VK</title><g id="Layer_2" data-name="Layer 2"><g id="Layer_1-2" data-name="Layer 1"><circle class="cls-1" cx="20" cy="20" r="20"/><path class="cls-2" d="M23.953,26.371a8.493,8.493,0,0,1-1.136.355c-.237.066-.484-.042-.639.071H15.713a15.048,15.048,0,0,1-.071-2.415V15.858a14.62,14.62,0,0,1,.071-2.344c2.908.142,6.971-.449,8.88.923a3.477,3.477,0,0,1,.852,2.913,3.113,3.113,0,0,1-1.634,2.06c.143.306.5.191.782.355a3.978,3.978,0,0,1,1.349,1.207,4.908,4.908,0,0,1,.356.853v.639C26.736,24.221,25.072,25.875,23.953,26.371Zm-2.131-8.24.072-.5a1.5,1.5,0,0,0-.072-.994c-.086-.166-.315-.274-.426-.427a18.455,18.455,0,0,0-2.273-.142V18.7C20.188,18.722,21.446,18.8,21.822,18.131Zm.5,3.339c-.057-.014-1.118-.341-1.137-.355a7.463,7.463,0,0,0-2.06.071V24.24a8.805,8.805,0,0,0,2.7-.142c.384-.148.553-.5.853-.71a3.369,3.369,0,0,0,0-1.492C22.6,21.757,22.409,21.615,22.32,21.47Z"/></g></g></svg>