<svg xmlns="http://www.w3.org/2000/svg" width="205" height="30" viewBox="0 0 205 30"><defs><style>.cls-1{fill:#40aaf0;}.cls-2,.cls-3{fill:#fff;}.cls-2{fill-rule:evenodd;}</style></defs><title>Icons-HEADER-ALL</title><g id="Layer_2" data-name="Layer 2"><g id="Layer_1-2" data-name="Layer 1"><circle class="cls-1" cx="190" cy="15" r="15"/><path class="cls-2" d="M196.8,12.022a2.3,2.3,0,0,0-1.918-1.856,60.564,60.564,0,0,0-9.768,0,2.3,2.3,0,0,0-1.918,1.856,22.494,22.494,0,0,0,0,5.956,2.3,2.3,0,0,0,1.918,1.856,60.564,60.564,0,0,0,9.768,0,2.3,2.3,0,0,0,1.918-1.856A22.494,22.494,0,0,0,196.8,12.022Zm-8.412,4.807V13.171L192.123,15Z"/><circle class="cls-1" cx="85" cy="15" r="15"/><path class="cls-3" d="M87.965,19.778a6.436,6.436,0,0,1-.852.267c-.178.049-.363-.032-.48.053H81.785a11.346,11.346,0,0,1-.053-1.811V11.894a10.906,10.906,0,0,1,.053-1.758c2.181.106,5.228-.337,6.66.692a2.609,2.609,0,0,1,.639,2.184,2.334,2.334,0,0,1-1.225,1.545c.106.23.378.144.586.267a2.988,2.988,0,0,1,1.012.9,3.718,3.718,0,0,1,.266.64v.479C90.052,18.166,88.8,19.406,87.965,19.778Zm-1.6-6.18.053-.372a1.126,1.126,0,0,0-.053-.746c-.065-.125-.237-.205-.32-.32a13.735,13.735,0,0,0-1.7-.107v1.972C85.141,14.041,86.084,14.1,86.367,13.6Zm.373,2.5c-.042-.01-.838-.255-.853-.266a5.657,5.657,0,0,0-1.545.053V18.18a6.649,6.649,0,0,0,2.025-.106c.288-.111.414-.374.639-.533a2.516,2.516,0,0,0,0-1.119C86.953,16.318,86.807,16.211,86.74,16.1Z"/><circle class="cls-1" cx="15" cy="15" r="15"/><path class="cls-3" d="M18.045,12.89a7.226,7.226,0,0,1-2.03-.085,5.283,5.283,0,0,1,.169-1.861,5.321,5.321,0,0,1,1.861-.169v-2.2l-.761-.084s-.031.073-.17.084H15.338c-1.98.586-2.061,1.7-2.03,4.229a4.614,4.614,0,0,0-1.353.085v2.2h1.353v4.482a7.726,7.726,0,0,0,.085,2.115,9.393,9.393,0,0,0,2.622-.085V15.089a4.527,4.527,0,0,0,1.861-.169Q17.96,13.9,18.045,12.89Z"/><circle class="cls-1" cx="120" cy="15" r="15"/><path class="cls-3" d="M116.8,11.859v.164h.012v.106h.012v.083h.012v.07h.012v.071h.011V12.4h.012v.059h.012v.047h.012v.047h.011V12.6h.012v.035h.012v.047h.012v.036h.011v.035h.012v.035h.012l.012.071H117v.023h.012v.036h.012v.023h.012v.035h.011V13h.012v.035h.012l.024.071h.011v.023h.012v.024h.012v.023h.012v.036l.023.011v.024h.012v.023h.012v.024h.011v.024h.012v.023h.012v.024l.023.011.012.047.024.012.011.047h.012l.012.036.024.011v.024h.011l.012.035.024.012v.023l.023.012.012.035.035.024v.024l.036.023v.024l.047.035v.023l.058.048v.023l.106.094v.024l.094.082.024.035h.023l.095.106h.023l.047.059h.024l.035.047h.024l.023.035h.024l.023.036h.024l.023.035h.024l.012.024.035.011v.012h.023l.012.024.035.011v.012l.047.012.012.023.047.012.012.024.047.011v.012h.024v.012h.023v.012h.024v.012h.023v.011h.024v.012l.047.012v.012h.023v.011h.024v.012l.071.024v.011h.035v.012h.023V14.8l.059.012v.011h.035v.012h.024v.012h.035v.012h.036v.012h.035v.011h.035v.012h.035v.012h.047v.012h.036v.011h.047v.012h.047v.012h.047v.012l.106.011v.012h.07V15h.071v.012h.082v.011h.106v.012h.177a.869.869,0,0,0,.282.012v-.012h.177v-.012h.105v-.011h.083V15h.07v-.012h.071v-.012l.106-.011v-.012l.141-.024v-.011l.082-.012v-.012h.036v-.012h.035v-.011h.035v-.012l.071-.012v-.012h.023v-.012h.036v-.011l.059-.012v-.012h.023v-.012h.035v-.011l.071-.024v-.012h.023v-.011h.024v-.012l.059-.012.012-.023h.023v-.012h.024v-.012h.023v-.012h.024v-.012h.023v-.011h.024l.012-.024.047-.012.011-.023.047-.012v-.012l.036-.011.011-.024h.024v-.012l.035-.011.012-.024h.024l.023-.035h.024l.011-.024h.024l.035-.047h.024l.012-.023.035-.012.047-.059.035-.012.083-.094h.023l.094-.106.059-.047v-.023l.094-.083v-.023l.059-.047v-.024l.047-.035v-.024l.035-.023v-.024l.036-.023v-.024l.023-.012V13.6l.024-.012v-.023l.023-.012v-.024l.024-.011v-.024l.023-.012v-.023l.024-.012.023-.071.024-.011.023-.071.024-.012.024-.07h.011v-.024h.012l.024-.071h.011v-.035h.012v-.023h.012l.012-.047h.011v-.036h.012v-.023h.012l.153-.483v-.058h.012v-.047h.011v-.071h.012v-.071h.012l.023-.211v-.118a1.561,1.561,0,0,0,.012-.377h-.012v-.153h-.011v-.105h-.012v-.071h-.012v-.071h-.012v-.07h-.011V11h-.012v-.059l-.13-.424h-.011v-.023h-.012v-.035h-.012v-.024h-.012V10.4h-.011v-.024h-.012l-.012-.059h-.012l-.023-.07h-.012v-.024h-.012V10.2h-.011v-.024H123.1v-.023h-.012v-.024h-.012v-.023l-.023-.012-.024-.071-.023-.011-.012-.048-.024-.011-.011-.036h-.012l-.012-.047-.024-.011V9.835l-.035-.024V9.788l-.023-.012V9.753l-.036-.024V9.706l-.035-.024V9.658l-.035-.023V9.611l-.035-.023V9.576l-.024-.012V9.541l-.082-.071V9.447l-.106-.094-.106-.118h-.024l-.07-.082h-.024l-.012-.024h-.011l-.024-.035h-.023l-.024-.035h-.023l-.024-.036h-.024l-.023-.035h-.024l-.011-.024h-.024l-.023-.035h-.024l-.012-.023-.035-.012V8.882l-.047-.012-.012-.023-.047-.012-.012-.024-.07-.023-.012-.024h-.024V8.753h-.023V8.741h-.024V8.729h-.023V8.717h-.024V8.706h-.023V8.694l-.071-.024V8.659l-.059-.012V8.635h-.023V8.623h-.035V8.611h-.024V8.6h-.035a3.308,3.308,0,0,0-1.412-.236c-.03.027-.095,0-.141.012v.012h-.106V8.4H119.6v.011h-.07v.012h-.059c-.061.019-.141.039-.2.059h-.047v.012h-.035v.012h-.036v.011l-.117.024v.012h-.024v.011l-.07.012v.012h-.024V8.6h-.035v.011h-.024v.012h-.035a3.45,3.45,0,0,0-1.8,1.836l-.012.07H117v.024h-.011l-.012.07h-.012v.036h-.012v.035h-.011v.035h-.012l-.012.082h-.012v.048c-.02.058-.04.138-.058.2v.07h-.012l-.024.259H116.8v.165a1.138,1.138,0,0,0-.011.306Zm1.953-.212v-.13h.012v-.07h.012v-.059h.012v-.047h.012v-.035h.011l.024-.106h.012v-.024h.011v-.035h.012l.024-.071h.011l.012-.047.024-.011.011-.048.024-.011v-.024l.023-.012v-.023l.048-.035v-.024l.058-.047v-.024l.024-.011.059-.071h.023l.047-.059h.024l.035-.047h.024l.011-.023.036-.012v-.012l.047-.012.012-.023.047-.012V10.47l.07-.023v-.012h.035v-.012h.024v-.011l.071-.012v-.012h.035v-.012h.035v-.012h.047v-.011h.059v-.012h.071v-.012h.117l.118-.012v.012h.141v.012h.071v.012h.059v.011h.047v.012h.035v.012h.035V10.4h.036v.012h.035v.011h.023v.012h.036v.012l.07.023v.012l.047.012.012.023.047.012.012.024h.023l.024.035h.023l.024.035h.024l.047.059h.023l.012.024.07.058v.024l.059.047v.024l.036.023v.024l.035.023v.024l.023.011.012.048.024.011.012.047h.011l.024.071h.012v.035h.011V11.2h.012v.035h.012v.035h.012v.036h.011v.035h.012v.047a1.138,1.138,0,0,1,.012.577l-.012.105h-.012v.036h-.011v.035h-.012v.035h-.012v.036h-.012l-.011.047h-.012l-.035.106-.024.011-.012.047h-.012l-.011.036-.024.011v.024l-.023.012v.023l-.036.024v.023l-.023.012a.427.427,0,0,1-.165.165l-.012.023h-.023l-.036.047h-.023l-.012.024H120.9l-.012.023-.035.012v.012l-.071.024v.011h-.024v.012h-.023v.012l-.071.023v.012h-.035V13h-.023v.012l-.083.011v.012h-.035v.012h-.047v.012l-.141.011a1.053,1.053,0,0,1-.471-.023h-.047v-.012h-.035v-.012l-.083-.011V13h-.023v-.012H119.6v-.012l-.07-.023v-.012h-.024v-.012h-.023v-.011h-.024v-.012h-.023v-.012h-.024v-.012l-.035-.012-.012-.023h-.023l-.012-.024h-.024l-.035-.047h-.024l-.011-.023a.427.427,0,0,1-.165-.165l-.023-.012v-.023l-.036-.024v-.023l-.023-.012V12.47l-.024-.011-.012-.036h-.011l-.012-.047-.024-.011-.035-.106h-.012l-.011-.047h-.012v-.036h-.012v-.035h-.012v-.035h-.011V12.07h-.012v-.047h-.012v-.058h-.012v-.071h-.012v-.153h-.011C118.735,11.7,118.755,11.674,118.757,11.647Zm5.118,4.447v-.118h-.011v-.058h-.012v-.047h-.012v-.036h-.012l-.012-.07h-.011l-.012-.047h-.012v-.024h-.012v-.023h-.011v-.024h-.012v-.024l-.024-.011v-.024l-.035-.023v-.024l-.035-.023v-.024l-.047-.035-.059-.071h-.024l-.035-.047h-.024l-.011-.023h-.024l-.012-.024h-.023v-.012h-.024v-.011h-.023v-.012h-.024v-.012H123.3v-.012h-.024v-.012l-.212-.058h-.105v-.012l-.271.023v.012l-.153.035v.012l-.071.024v.012h-.023v.011l-.047.012-.012.024-.047.011-.012.024H122.3v.012h-.024l-.012.023h-.023V15.4h-.024v.012h-.023v.011h-.024l-.011.024h-.024v.012h-.024v.012h-.023v.011h-.024v.012h-.023v.012h-.024v.012h-.023v.011h-.024v.012l-.07.024v.011h-.036v.012h-.023V15.6l-.047.012v.011h-.036v.012h-.023v.012l-.059.012v.012l-.07.011v.012h-.024v.012l-.071.012v.011h-.035v.012h-.035v.012h-.035v.012h-.036v.011l-.082.012V15.8l-.094.012v.012h-.036v.011H121.1v.012h-.047v.012h-.059v.012h-.059v.011h-.059v.012h-.07v.012h-.083v.012h-.094v.011h-.118v.012h-.164v.012h-.2l-.506-.024v-.011h-.094v-.012h-.083c-.055-.016-.134-.031-.188-.047h-.059v-.012l-.106-.012v-.011l-.129-.024v-.012h-.035v-.012H118.9v-.011h-.036v-.012h-.035v-.012h-.035v-.012h-.036v-.011h-.035v-.012l-.07-.012v-.012h-.024v-.011h-.035v-.012h-.024v-.012h-.035v-.012h-.024v-.012h-.035v-.011l-.047-.012v-.012h-.035v-.012h-.024v-.011l-.047-.012v-.012H118.3v-.012h-.024v-.011h-.023v-.012h-.024v-.012H118.2v-.012h-.023v-.011h-.024v-.012h-.023v-.012h-.024v-.012h-.023l-.012-.023-.07-.024-.012-.023-.047-.012-.012-.024-.047-.011-.012-.024-.071-.023v-.012l-.07-.024v-.012H117.7v-.011h-.036a.909.909,0,0,0-.353-.059c-.025.021-.067,0-.106.012l-.211.058v.012l-.047.012v.012h-.024v.012H116.9v.011h-.024v.012h-.023l-.012.024h-.024l-.012.023h-.023l-.035.047h-.024l-.035.047-.071.059v.024l-.047.035v.023l-.023.012v.024l-.024.011v.024h-.012v.024H116.5v.023h-.011v.024h-.012v.023h-.012v.024h-.012l-.011.07a.878.878,0,0,0,0,.6l.011.071h.012l.024.07h.011V16.6h.012l.012.047.024.012v.023l.023.012v.024l.035.023v.024l.095.082.035.047h.023l.036.047h.023l.012.024.047.011.012.024.047.012.012.023.047.012.011.024h.024v.011h.023l.012.024h.024v.012h.023v.011h.024v.012h.023l.012.024h.024v.011h.023v.012h.024V17.2h.023v.012h.024v.012h.023v.011h.024v.012h.023v.012h.024v.012h.023v.011h.024v.012h.024v.012l.047.012v.011l.047.012v.012h.023v.012h.035v.011l.047.012V17.4h.024v.012h.035v.012l.047.011v.012h.036v.012h.023v.012l.059.011v.012h.035v.012h.024v.012l.071.011v.012h.023v.012l.106.023v.012h.035V17.6h.035v.012h.036v.012h.035v.011h.035v.012l.071.012v.012h.047v.011h.035v.012h.047v.012h.047v.012l.224.047v.012c-.027.015-.038.037-.059.058l-.141.142-.306.294-.118.129-.682.671-.271.282a2.156,2.156,0,0,0-.494.565v.035a.842.842,0,0,0-.059.553l.012.106h.012v.035h.012v.024h.012v.035h.011l.024.071h.012V20.8h.011l.012.047.024.012v.024l.023.011.012.036.047.035v.023L116.9,21l.047.059h.023l.035.047h.024l.023.035.048.012.011.024.047.011V21.2l.071.024v.012h.035v.011h.024v.012h.035v.012l.106.012a.835.835,0,0,0,.553-.059h.035v-.012l.047-.012v-.012h.024l.012-.023.047-.012.023-.035h.024l.023-.036h.024l.329-.341.353-.341.588-.6.353-.341.071-.082a1.2,1.2,0,0,0,.188-.189c.061.017.112.1.153.142l.047.035.306.317,1.282,1.271.118.129h.024l.023.036h.024l.023.035.047.012.012.023h.024V21.2l.047.012v.012h.035v.012h.023v.011h.036v.012h.035v.012h.035v.012h.059a.788.788,0,0,0,.294.023v-.012h.083v-.011h.047v-.012h.047v-.012l.07-.012v-.011l.071-.024V21.2h.024v-.012h.023v-.011l.047-.012.012-.024h.023l.024-.035h.023l.036-.047h.023l.012-.024.059-.047v-.023l.047-.035.012-.036.023-.011v-.024l.024-.012.011-.047h.012v-.023h.012l.024-.071h.011v-.035h.012v-.024h.012l.023-.141a.672.672,0,0,0,.024-.282h-.012v-.083h-.012v-.047h-.011v-.047h-.012v-.035h-.012v-.035h-.012v-.024h-.011v-.035h-.012l-.012-.047h-.012v-.024l-.023-.012-.012-.047-.024-.011v-.024l-.047-.035a2.916,2.916,0,0,0-.341-.353l-.364-.377-.6-.588c-.113-.118-.227-.235-.341-.353l-.082-.07-.141-.142c-.021-.021-.032-.043-.059-.058.025-.025.057-.011.094-.024v-.012h.047v-.012h.047v-.011l.13-.024v-.012l.082-.011v-.012h.035v-.012h.035v-.012h.036v-.011h.035v-.012h.035V17.6h.036v-.012h.035v-.012l.106-.023a6.648,6.648,0,0,0,.871-.412h.023v-.012h.024v-.011h.023v-.012h.024l.011-.024.047-.011.012-.024.047-.012.012-.023.047-.012.012-.024.047-.011.023-.036h.024l.023-.035h.024l.035-.047.095-.082v-.024l.035-.023v-.024l.023-.012v-.023l.024-.012.012-.047h.011v-.024h.012l.024-.07h.011l.059-.212v-.118h.012v-.082Z"/><circle class="cls-1" cx="50" cy="15" r="15"/><path class="cls-2" d="M55.419,11.748c.067.014.035-.035.253-.056a.126.126,0,0,0,.07-.014,1.8,1.8,0,0,1,.687-.2.028.028,0,0,0,.028-.014.339.339,0,0,1,.154-.029.082.082,0,0,0,.028.043.38.38,0,0,0-.014.056l-.056.042v.028a5.283,5.283,0,0,0-.451.508c-.091.092-.654.471-.642.585.015.148-.015.2-.028,1a.308.308,0,0,1-.014.112,8.68,8.68,0,0,0-.166.884,7.2,7.2,0,0,1-.323.983,7.024,7.024,0,0,1-4.234,4.008,7.308,7.308,0,0,1-3.762.162,6.717,6.717,0,0,1-.75-.2,6.52,6.52,0,0,1-.632-.241,2,2,0,0,1-.538-.272H45l-.014-.028-.112-.056a.112.112,0,0,1,0-.07v-.028a3.56,3.56,0,0,1,.6-.015,4.151,4.151,0,0,0,1.148-.2,5.464,5.464,0,0,0,.553-.2,6.741,6.741,0,0,1,.838-.441l.028-.042.056-.014.014-.028A.029.029,0,0,0,48.142,18a.18.18,0,0,1,.084-.042l.014-.056a.342.342,0,0,0-.2-.028c-.031-.027-.1-.014-.141-.042a3.381,3.381,0,0,0-.452-.122,2.436,2.436,0,0,1-.5-.264,1.892,1.892,0,0,1-.79-.9l-.028-.014a.5.5,0,0,0-.056-.127.029.029,0,0,0-.014-.028.343.343,0,0,1-.028-.168.177.177,0,0,1,.112-.028,3.81,3.81,0,0,0,.771-.014l.07-.014v-.042c-.024,0-.026-.053-.154-.07a.348.348,0,0,1-.112-.028A.027.027,0,0,1,46.7,16a.029.029,0,0,1-.029-.014.029.029,0,0,1-.028-.014.05.05,0,0,1-.041-.014,2.633,2.633,0,0,0-.357-.193,2.507,2.507,0,0,1-.376-.3,2.563,2.563,0,0,1-.355-.436c-.1-.151-.142-.359-.245-.5a.029.029,0,0,0-.014-.028,4.382,4.382,0,0,1-.126-.8.228.228,0,0,1,.084-.014c.031,0,.126.076.157.091-.01,0,.761.254.783.189a.048.048,0,0,0,0-.042c0-.071-.037.007-.141-.14h-.028c-.081,0-.307-.351-.352-.425a4.185,4.185,0,0,1-.3-.5,2.511,2.511,0,0,1,.062-2.01c.043-.079.017-.151.141-.154.021.014,0,.035.084.1v.028a.057.057,0,0,1,.028.028l.07.057v.028a9.861,9.861,0,0,0,1.629,1.327,7.1,7.1,0,0,0,1.614.707,3.544,3.544,0,0,0,1.623.209c-.044-.233-.107-.225.014-1.065a2.373,2.373,0,0,1,1.175-1.579,2.485,2.485,0,0,1,1.357-.32,2.519,2.519,0,0,1,.714.145,1.325,1.325,0,0,1,.582.309h.028l.014.028h.028l.014.028.042.014.056.07h.028a.774.774,0,0,0,.169.169c.147.019.006-.033.448-.1a1.984,1.984,0,0,0,.506-.175c.094-.042.291-.19.392-.19h.028l.014-.028h.028a.567.567,0,0,0,.084-.07l.042.014a.109.109,0,0,1,0,.084l-.014.07L56.3,10.6a.1.1,0,0,1-.014.042,2.616,2.616,0,0,1-.771.982c-.008.005-.019,0-.028,0l-.014.028a.027.027,0,0,0-.028.014l-.029.014Z"/><circle class="cls-1" cx="155" cy="15" r="15"/><path class="cls-3" d="M147.63,14.956l13.141-5.6a.258.258,0,0,1,.357.271l-1.534,11.5-5.55-3.691a.454.454,0,0,1-.063-.7l4.813-5.021a.125.125,0,0,0-.159-.191l-6.654,4.409A.446.446,0,0,1,151.6,16Z"/></g></g></svg>