<svg xmlns="http://www.w3.org/2000/svg" width="40" height="40" viewBox="0 0 40 40"><defs><style>.cls-1{fill:#54abec;}.cls-2{fill:#fff;fill-rule:evenodd;}</style></defs><title>ICON_article_TW</title><g id="Layer_2" data-name="Layer 2"><g id="Layer_1-2" data-name="Layer 1"><circle class="cls-1" cx="20" cy="20" r="20"/><path class="cls-2" d="M27.226,15.664c.088.019.046-.047.337-.075a.165.165,0,0,0,.093-.019,2.417,2.417,0,0,1,.916-.261.038.038,0,0,0,.038-.019.451.451,0,0,1,.205-.037.108.108,0,0,0,.038.056.341.341,0,0,0-.019.074l-.075.057v.037a7.074,7.074,0,0,0-.6.678c-.121.122-.871.627-.856.78.02.2-.02.269-.038,1.328a.426.426,0,0,1-.018.149,11.748,11.748,0,0,0-.221,1.179,9.753,9.753,0,0,1-.43,1.311,9.368,9.368,0,0,1-5.646,5.343,9.754,9.754,0,0,1-5.016.217,8.834,8.834,0,0,1-1-.261,8.419,8.419,0,0,1-.844-.321,2.614,2.614,0,0,1-.717-.363h-.038l-.018-.037-.15-.075a.167.167,0,0,1,0-.094v-.037a4.943,4.943,0,0,1,.8-.019,5.494,5.494,0,0,0,1.53-.263,7.477,7.477,0,0,0,.737-.271,9.147,9.147,0,0,1,1.117-.588l.038-.056.074-.018.019-.038A.037.037,0,0,0,17.522,24a.246.246,0,0,1,.113-.056l.018-.075a.456.456,0,0,0-.261-.038c-.041-.035-.128-.018-.187-.056a4.491,4.491,0,0,0-.6-.162,3.3,3.3,0,0,1-.662-.351,2.538,2.538,0,0,1-1.054-1.207l-.037-.018a.679.679,0,0,0-.075-.169.037.037,0,0,0-.019-.037.477.477,0,0,1-.037-.225.24.24,0,0,1,.15-.037,5.064,5.064,0,0,0,1.028-.019l.093-.018v-.056c-.032.005-.035-.071-.205-.094a.435.435,0,0,1-.15-.037.037.037,0,0,1-.037-.019.038.038,0,0,1-.038-.019.037.037,0,0,1-.037-.018.07.07,0,0,1-.056-.018,3.477,3.477,0,0,0-.476-.258,3.4,3.4,0,0,1-.974-.988c-.129-.2-.189-.478-.326-.662a.038.038,0,0,0-.019-.038,5.738,5.738,0,0,1-.168-1.065.294.294,0,0,1,.112-.019c.041,0,.167.1.208.121-.012-.006,1.015.339,1.045.253a.061.061,0,0,0,0-.056c-.005-.1-.049.008-.187-.187h-.038c-.108,0-.41-.468-.469-.568a5.648,5.648,0,0,1-.4-.66,3.342,3.342,0,0,1,.083-2.68c.056-.106.022-.2.187-.205.028.018,0,.046.112.13v.038a.068.068,0,0,1,.037.037l.094.075v.038a13.175,13.175,0,0,0,2.172,1.77,9.45,9.45,0,0,0,2.151.942,4.732,4.732,0,0,0,2.165.279c-.059-.311-.143-.3.018-1.421a3.167,3.167,0,0,1,1.567-2.1,3.308,3.308,0,0,1,1.81-.426,3.367,3.367,0,0,1,.952.194,1.763,1.763,0,0,1,.776.411h.037l.019.038h.037l.019.037.056.019.075.093h.037a1.042,1.042,0,0,0,.224.225c.2.026.01-.044.6-.131a2.628,2.628,0,0,0,.674-.233c.125-.057.388-.253.522-.253h.038l.018-.038h.038a.768.768,0,0,0,.112-.093l.056.018a.145.145,0,0,1,0,.113l-.019.093-.037.019a.124.124,0,0,1-.019.056A3.479,3.479,0,0,1,27.357,15.5c-.01.007-.025,0-.038,0l-.018.037a.038.038,0,0,0-.038.019l-.037.018Z"/></g></g></svg>