<svg xmlns="http://www.w3.org/2000/svg" width="40" height="320" viewBox="0 0 40 320"><defs><style>.cls-1{fill:#c82200;}.cls-2,.cls-4{fill:#fff;}.cls-2{fill-rule:evenodd;}.cls-3{fill:#4e6e91;}.cls-5{fill:#3a5896;}.cls-6{fill:#fb6719;}.cls-7{fill:#54abec;}.cls-8{fill:#478bff;}</style></defs><title>ICONS_article-ALL</title><g id="Layer_2" data-name="Layer 2"><g id="Layer_1-2" data-name="Layer 1"><circle class="cls-1" cx="20" cy="300" r="20"/><path class="cls-2" d="M29.07,296.029a3.061,3.061,0,0,0-2.558-2.474,80.675,80.675,0,0,0-13.024,0,3.061,3.061,0,0,0-2.558,2.474,30.082,30.082,0,0,0,0,7.942,3.061,3.061,0,0,0,2.558,2.474,80.675,80.675,0,0,0,13.024,0,3.06,3.06,0,0,0,2.558-2.474A30.082,30.082,0,0,0,29.07,296.029Zm-11.217,6.41v-4.878L22.831,300Z"/><circle class="cls-3" cx="20" cy="122" r="20"/><path class="cls-4" d="M23.953,128.371a8.493,8.493,0,0,1-1.136.355c-.237.066-.484-.042-.639.071H15.713a15.048,15.048,0,0,1-.071-2.415v-8.524a14.62,14.62,0,0,1,.071-2.344c2.908.142,6.971-.449,8.88.923a3.477,3.477,0,0,1,.852,2.913,3.113,3.113,0,0,1-1.634,2.06c.143.306.5.191.782.355a3.978,3.978,0,0,1,1.349,1.207,4.908,4.908,0,0,1,.356.853v.639C26.736,126.221,25.072,127.875,23.953,128.371Zm-2.131-8.24.072-.5a1.5,1.5,0,0,0-.072-.994c-.086-.166-.315-.274-.426-.427a18.455,18.455,0,0,0-2.273-.142V120.7C20.188,120.722,21.446,120.8,21.822,120.131Zm.5,3.339c-.057-.014-1.118-.341-1.137-.355a7.463,7.463,0,0,0-2.06.071v3.054a8.805,8.805,0,0,0,2.7-.142c.384-.148.553-.5.853-.71a3.369,3.369,0,0,0,0-1.492C22.6,123.757,22.409,123.615,22.32,123.47Z"/><circle class="cls-5" cx="20" cy="20" r="20"/><path class="cls-4" d="M24.06,17.186a9.628,9.628,0,0,1-2.707-.112,7.049,7.049,0,0,1,.226-2.481,7.074,7.074,0,0,1,2.481-.226V11.435l-1.015-.113s-.041.1-.226.113H20.451c-2.64.781-2.749,2.271-2.706,5.639a6.183,6.183,0,0,0-1.805.112v2.932h1.805V26.1a10.333,10.333,0,0,0,.112,2.82,12.524,12.524,0,0,0,3.5-.113V20.118a6,6,0,0,0,2.481-.225Q23.947,18.54,24.06,17.186Z"/><circle class="cls-6" cx="20" cy="173" r="20"/><path class="cls-4" d="M15.739,168.812v.219h.016v.141h.016v.11h.015v.094H15.8v.094h.016v.063h.015v.079h.016v.062h.016v.063h.015v.063H15.9v.047h.016v.063h.015v.047h.016V170h.016v.047h.015l.016.094h.016v.031h.015v.047h.016v.032h.016v.047h.016v.031h.015v.047H16.1l.031.094h.016v.032h.016v.031h.015v.031h.016v.047l.032.016v.032h.015v.031h.016v.031h.015v.032h.016v.031H16.3v.032l.031.015.016.063.031.016.016.062h.016l.015.047.032.016v.031h.015l.016.047.031.016v.032l.032.015.016.047.047.032v.031l.047.031v.032l.062.047v.031l.079.063v.031l.141.126v.031l.126.11.031.047h.031l.126.141h.031l.063.079h.031l.047.062h.032l.031.048h.032l.031.047h.031l.032.047h.031l.016.031.047.016v.015h.031l.016.032.047.015v.016l.063.016.015.031.063.016.016.031.062.016v.016h.032v.015h.031v.016h.032v.016h.031v.015h.031v.016l.063.016v.015h.032v.016h.031v.016l.094.031v.016h.047v.016h.031v.015l.079.016v.016h.047v.015h.031v.016h.047v.016h.047v.015h.047v.016h.048v.016h.047v.016h.062v.015h.047v.016h.063v.016h.063v.015h.063v.016l.141.016v.015h.094V173H19.5v.016h.11v.015h.141v.016h.235a1.2,1.2,0,0,0,.377.016v-.016H20.6v-.016h.141v-.015h.11V173h.094v-.016h.094v-.015l.141-.016v-.016l.189-.031v-.016l.11-.015v-.016h.047v-.016h.047v-.016h.047v-.015l.094-.016v-.016h.031v-.015h.047v-.016l.079-.016v-.015H21.9V172.7h.047v-.016l.094-.031v-.016h.032v-.016h.031v-.015l.079-.016.015-.031h.032v-.016h.031v-.016H22.3v-.015h.032V172.5h.031v-.016h.031l.016-.031.063-.016.015-.031.063-.016v-.016l.047-.015.016-.032h.031v-.015l.047-.016.016-.031h.031l.032-.047H22.8l.016-.032h.031l.047-.063h.032l.015-.031.048-.016.062-.078.047-.016.11-.125h.032l.125-.141.079-.063v-.031l.125-.11v-.032l.078-.062v-.032l.063-.047v-.031l.047-.032v-.031l.047-.031v-.032l.032-.015v-.032l.031-.016v-.031l.031-.016v-.031l.032-.016v-.031l.031-.016v-.031l.031-.016.032-.094.031-.015.032-.095.031-.015.031-.095h.016v-.031h.016l.031-.094h.016v-.047h.015v-.031h.016l.016-.063h.016V170.3H24.3v-.032h.016l.2-.643v-.078h.016v-.063h.015v-.094h.016V169.3h.016c.01-.094.02-.188.031-.282v-.157a2.128,2.128,0,0,0,.016-.5h-.016v-.2H24.6v-.142h-.015v-.094h-.016v-.094h-.016v-.094H24.54v-.063h-.016v-.078l-.173-.565h-.015v-.031H24.32v-.047H24.3v-.032h-.015v-.047h-.016v-.031h-.016l-.016-.079h-.015l-.032-.094h-.015v-.031h-.016V166.6h-.016v-.032h-.015v-.031h-.016v-.031H24.1v-.032l-.031-.016-.032-.094-.031-.015-.016-.063-.031-.016-.016-.047h-.015l-.016-.063-.031-.015v-.032l-.047-.031v-.031l-.032-.016V166l-.047-.032v-.031l-.047-.032v-.031l-.047-.031v-.032l-.047-.031v-.016l-.031-.015v-.032l-.11-.094V165.6l-.141-.126-.142-.157h-.031l-.094-.11h-.031l-.016-.031H23l-.031-.047h-.032l-.031-.047h-.031l-.032-.047h-.031l-.032-.047h-.031l-.016-.031H22.7l-.031-.047h-.032l-.015-.032-.047-.015v-.016l-.063-.016L22.5,164.8l-.062-.016-.016-.031-.094-.032-.016-.031h-.031v-.016h-.032v-.016h-.031v-.015h-.031v-.016h-.032v-.016h-.031v-.015l-.094-.032v-.015l-.079-.016v-.016H21.92V164.5h-.047v-.016h-.032v-.016h-.047a4.391,4.391,0,0,0-1.882-.313c-.04.035-.126,0-.188.015v.016h-.141v.016h-.11v.015h-.095v.016H19.3c-.082.025-.188.052-.267.078h-.062v.016h-.047v.016h-.047v.016l-.157.031v.016h-.032v.015l-.094.016v.016h-.031v.015h-.047v.016h-.032v.016h-.047a4.6,4.6,0,0,0-2.4,2.447l-.016.094h-.015v.031H15.99l-.016.094h-.015v.047h-.016v.047h-.016v.048h-.015l-.016.109H15.88v.063c-.026.079-.053.185-.078.267v.094h-.016c-.01.115-.021.23-.031.345h-.016v.22a1.515,1.515,0,0,0-.015.408Zm2.6-.283v-.172h.016v-.094h.016v-.079h.015v-.063h.016v-.047h.016l.031-.141h.016V167.9h.015v-.047H18.5l.031-.095h.016l.016-.062.031-.016.016-.063.031-.015v-.032l.032-.015v-.032l.062-.047v-.031l.079-.063v-.031l.031-.016.079-.094h.031l.063-.079h.031l.047-.062h.031l.016-.032.047-.015v-.016l.063-.016.016-.031.062-.016v-.015l.095-.032v-.016h.047V166.9H19.5v-.016l.094-.016v-.015h.047v-.016h.047v-.016h.063V166.8h.078v-.016h.094v-.016h.157l.157-.016v.016h.189v.016h.094v.016H20.6v.015h.063v.016h.047v.016h.047v.015h.047v.016h.047v.016h.032v.015h.047v.016l.094.032v.015l.062.016.016.031.063.016.015.031h.032l.031.047h.032l.031.047h.031l.063.079h.031l.016.031.094.079v.031l.079.063v.031l.047.032v.031l.047.031v.032l.031.015.016.063.031.016.016.062h.016l.031.095h.016v.047h.015v.031H21.9v.047h.016v.047h.016v.047h.015v.047h.016v.063a1.505,1.505,0,0,1,.015.769l-.015.141h-.016v.047h-.015v.047H21.92v.047H21.9v.047h-.016l-.015.063h-.016c-.016.047-.031.094-.047.141l-.031.016-.016.063h-.016l-.015.047-.032.015v.032l-.031.015v.032l-.047.031v.031l-.032.016a.322.322,0,0,0-.094.126.3.3,0,0,0-.125.094l-.016.031h-.031l-.047.063h-.032l-.015.031H21.2l-.016.032-.047.015v.016l-.094.031v.016H21.01v.016h-.031v.015l-.094.032v.016h-.048v.015h-.031v.016l-.11.016v.015h-.047v.016h-.063v.016l-.188.015a1.405,1.405,0,0,1-.627-.031h-.063v-.016h-.047v-.015l-.11-.016v-.016H19.52v-.015h-.047V170.3l-.095-.032v-.015h-.031v-.016h-.031v-.016h-.032v-.015h-.031v-.016h-.031v-.016l-.047-.015-.016-.032h-.032l-.015-.031h-.031l-.048-.063H19L18.986,170a.309.309,0,0,0-.125-.094.315.315,0,0,0-.094-.126l-.032-.016v-.031l-.047-.031v-.032l-.031-.015v-.032l-.032-.015-.015-.047h-.016l-.016-.063-.031-.016-.047-.141h-.016l-.015-.063h-.016v-.047h-.016v-.047h-.015v-.047h-.016v-.047H18.39v-.063h-.015v-.078h-.016v-.094h-.016v-.2h-.015C18.313,168.6,18.34,168.566,18.343,168.529Zm6.824,5.93V174.3h-.016v-.078h-.015v-.063H25.12v-.047H25.1l-.015-.095h-.016l-.016-.062h-.015v-.032h-.016v-.031H25.01v-.031h-.016v-.032l-.031-.015v-.032l-.047-.031v-.032l-.047-.031v-.031l-.063-.047-.078-.094H24.7l-.047-.063h-.031l-.016-.032h-.031l-.016-.031h-.031v-.016h-.032v-.015h-.031v-.016H24.43v-.016H24.4v-.015h-.031V173.3l-.282-.079h-.142V173.2l-.36.031v.016l-.2.047v.016l-.1.031v.016h-.031v.015l-.063.016-.015.031-.063.016-.016.032h-.031v.015h-.031l-.016.032h-.031v.015h-.032v.016h-.031v.016h-.032l-.015.031h-.032v.016h-.031v.015h-.032v.016h-.031v.016H22.72v.015h-.032v.016h-.031v.016h-.031v.015l-.094.032v.016h-.048v.015h-.031v.016l-.063.016v.015h-.047v.016h-.031v.016l-.078.015v.016l-.094.016v.015h-.032v.016l-.094.016v.015h-.047v.016H21.92V174h-.047v.015h-.047v.016l-.11.016v.016l-.126.015v.016h-.047v.016h-.078v.015H21.4v.016h-.078v.016h-.079v.016h-.078v.015h-.094v.016h-.11v.016h-.126v.015H20.68v.016h-.219v.016h-.267l-.674-.032v-.015h-.126v-.016h-.11c-.073-.022-.179-.041-.251-.063h-.078v-.016l-.141-.015V174.1l-.173-.031v-.016h-.047v-.016h-.063v-.016h-.047V174h-.047v-.016H18.39v-.016h-.047v-.015H18.3v-.016l-.094-.016v-.015h-.031v-.016h-.047v-.016h-.032v-.015h-.047v-.016h-.031v-.016h-.047v-.015L17.9,173.8v-.016h-.047v-.015h-.032v-.016l-.062-.016v-.016h-.032v-.015H17.7v-.016h-.031v-.016h-.032v-.015h-.031v-.016h-.031v-.016h-.032v-.015h-.031V173.6H17.48v-.016h-.031l-.016-.031-.094-.031-.016-.032-.062-.015-.016-.032-.063-.016-.015-.031-.094-.031v-.016l-.095-.031V173.3h-.047v-.016h-.047a1.224,1.224,0,0,0-.47-.078c-.033.029-.09,0-.142.015l-.282.079v.016l-.063.015v.016H15.9v.016h-.031v.015h-.032v.016H15.8l-.016.031h-.031l-.016.032h-.031l-.047.063h-.032l-.047.062-.094.079v.031l-.062.047v.032l-.032.015v.032l-.031.015v.032h-.016v.031h-.016v.031h-.015v.032H15.3v.031h-.016v.031h-.015l-.016.095a1.176,1.176,0,0,0,0,.8l.016.094h.015l.032.094h.015v.031h.016l.016.063.031.016v.031l.032.016v.031l.046.032v.031l.126.11.047.063h.031l.048.062h.031l.016.032.062.015.016.032.063.015.015.032.063.015.016.032h.031v.015h.032l.015.032h.032v.016h.031v.015h.031v.016h.032l.016.031h.031v.016h.031v.016h.032v.015h.031v.016h.031v.016h.032v.015h.031V176h.031v.016h.032v.016h.031v.015h.032v.016H16.6v.016l.063.015v.016l.062.016v.015h.032v.016h.047v.016l.063.015v.016H16.9v.016h.047v.016l.063.015v.016h.047v.016h.031v.015l.079.016v.016h.047v.015h.031v.016l.094.016v.015h.032v.016l.141.031v.016h.047v.016h.047v.015h.047v.016H17.7v.016h.047v.015l.094.016v.016H17.9v.015h.047v.016h.063v.016h.062v.016l.3.062v.016c-.037.021-.051.05-.079.079-.063.062-.125.125-.188.188l-.408.392-.157.173-.91.894c-.12.125-.24.251-.361.376a2.875,2.875,0,0,0-.658.753v.047a1.111,1.111,0,0,0-.079.737l.016.142h.016v.047h.015v.031H15.6v.047h.016l.031.094h.016v.032h.015l.016.062.032.016v.031l.031.016.016.047.062.047v.032l.032.015.062.079h.032l.047.062h.031l.032.047.062.016.016.031.063.016v.016l.094.031v.016h.047v.016h.031v.015h.047v.016l.142.016a1.111,1.111,0,0,0,.737-.079h.047v-.015l.063-.016v-.016h.031l.016-.031.063-.016.031-.047h.031l.032-.047h.031l.439-.455.471-.455.784-.8.471-.455.094-.109a1.616,1.616,0,0,0,.251-.252c.08.022.149.134.2.189l.063.047.407.423,1.71,1.695.157.172h.031l.032.047H22.8l.032.047.062.016.016.031h.031v.016l.063.016v.015h.047v.016h.032v.016h.047v.015h.047v.016h.047v.016H23.3a1.043,1.043,0,0,0,.392.031v-.015h.11v-.016h.063v-.016h.063v-.016l.094-.015v-.016l.094-.031v-.016h.031v-.016h.032v-.016l.062-.015.016-.032h.032l.031-.047h.031l.047-.062h.032l.015-.032.079-.062v-.032l.063-.047.015-.047.032-.016v-.031l.031-.016.016-.062H24.7V180.7h.016c.01-.031.021-.063.032-.094h.015v-.047h.016v-.031h.016l.031-.189a.907.907,0,0,0,.031-.376h-.015v-.11h-.016v-.063h-.016v-.062h-.015v-.047h-.016v-.048h-.016V179.6h-.015v-.047h-.016l-.016-.063H24.7v-.031l-.031-.016-.016-.063-.031-.015v-.032l-.063-.047a3.961,3.961,0,0,0-.455-.47l-.486-.5-.8-.784-.455-.471-.11-.094c-.062-.063-.125-.126-.188-.188-.028-.029-.042-.058-.079-.079.034-.032.076-.014.126-.031v-.016h.063v-.016h.063v-.015l.172-.032v-.016l.11-.015v-.016h.047v-.016h.047v-.015h.047V176.5H22.7v-.016h.047v-.015H22.8v-.016h.047v-.016l.142-.031a8.722,8.722,0,0,0,1.16-.549h.032v-.016h.031v-.015h.031v-.016h.032l.016-.032.062-.015.016-.032.063-.015.015-.032.063-.015.016-.032.063-.015.031-.047h.031l.032-.047h.031l.047-.063.126-.11v-.031l.047-.032v-.031l.031-.016v-.031l.031-.016.016-.063h.016V175.1h.016l.031-.094h.016l.078-.283v-.156h.016v-.11Z"/><circle class="cls-7" cx="20" cy="71" r="20"/><path class="cls-2" d="M27.226,66.664c.088.019.046-.047.337-.075a.165.165,0,0,0,.093-.019,2.417,2.417,0,0,1,.916-.261.038.038,0,0,0,.038-.019.451.451,0,0,1,.205-.037.108.108,0,0,0,.038.056.341.341,0,0,0-.019.074l-.075.057v.037a7.074,7.074,0,0,0-.6.678c-.121.122-.871.627-.856.78.02.2-.02.269-.038,1.328a.426.426,0,0,1-.018.149,11.748,11.748,0,0,0-.221,1.179,9.753,9.753,0,0,1-.43,1.311,9.368,9.368,0,0,1-5.646,5.343,9.754,9.754,0,0,1-5.016.217,8.834,8.834,0,0,1-1-.261,8.419,8.419,0,0,1-.844-.321,2.614,2.614,0,0,1-.717-.363h-.038l-.018-.037-.15-.075a.167.167,0,0,1,0-.094v-.037a4.943,4.943,0,0,1,.8-.019,5.494,5.494,0,0,0,1.53-.263,7.477,7.477,0,0,0,.737-.271,9.147,9.147,0,0,1,1.117-.588l.038-.056.074-.018.019-.038A.037.037,0,0,0,17.522,75a.246.246,0,0,1,.113-.056l.018-.075a.456.456,0,0,0-.261-.038c-.041-.035-.128-.018-.187-.056a4.491,4.491,0,0,0-.6-.162,3.3,3.3,0,0,1-.662-.351,2.538,2.538,0,0,1-1.054-1.207l-.037-.018a.679.679,0,0,0-.075-.169.037.037,0,0,0-.019-.037.477.477,0,0,1-.037-.225.24.24,0,0,1,.15-.037,5.064,5.064,0,0,0,1.028-.019l.093-.018v-.056c-.032,0-.035-.071-.205-.094a.435.435,0,0,1-.15-.037.037.037,0,0,1-.037-.019.038.038,0,0,1-.038-.019.037.037,0,0,1-.037-.018.07.07,0,0,1-.056-.018,3.477,3.477,0,0,0-.476-.258,3.4,3.4,0,0,1-.974-.988c-.129-.2-.189-.478-.326-.662a.038.038,0,0,0-.019-.038,5.738,5.738,0,0,1-.168-1.065.294.294,0,0,1,.112-.019c.041,0,.167.1.208.121-.012-.006,1.015.339,1.045.253a.061.061,0,0,0,0-.056c-.005-.095-.049.008-.187-.187h-.038c-.108,0-.41-.468-.469-.568a5.648,5.648,0,0,1-.4-.66,3.342,3.342,0,0,1,.083-2.68c.056-.106.022-.2.187-.2.028.018,0,.046.112.13v.038a.068.068,0,0,1,.037.037l.094.075v.038a13.175,13.175,0,0,0,2.172,1.77,9.45,9.45,0,0,0,2.151.942,4.732,4.732,0,0,0,2.165.279c-.059-.311-.143-.3.018-1.421a3.167,3.167,0,0,1,1.567-2.105,3.308,3.308,0,0,1,1.81-.426,3.367,3.367,0,0,1,.952.194,1.763,1.763,0,0,1,.776.411h.037l.019.038h.037l.019.037.056.019.075.093h.037a1.042,1.042,0,0,0,.224.225c.2.026.01-.044.6-.131a2.628,2.628,0,0,0,.674-.233c.125-.057.388-.253.522-.253h.038l.018-.038h.038a.768.768,0,0,0,.112-.093l.056.018a.145.145,0,0,1,0,.113l-.019.093-.037.019a.124.124,0,0,1-.019.056A3.479,3.479,0,0,1,27.357,66.5c-.01.007-.025,0-.038,0l-.018.037a.038.038,0,0,0-.038.019l-.037.018Z"/><circle class="cls-8" cx="20" cy="224" r="20"/><path class="cls-4" d="M10.173,223.941,27.7,216.476a.343.343,0,0,1,.475.361l-2.044,15.334-7.4-4.921a.605.605,0,0,1-.084-.929l6.417-6.695a.166.166,0,0,0-.211-.254l-8.872,5.878a.591.591,0,0,1-.5.081Z"/></g></g></svg>