<svg xmlns="http://www.w3.org/2000/svg" viewBox="0 0 160 38"><defs><style>.cls-1{fill:#009ef8;}.cls-2{fill:#f6fafd;}</style></defs><title>KNOPKA-KUTSOR</title><g id="Layer_2" data-name="Layer 2"><g id="Layer_1-2" data-name="Layer 1"><path class="cls-1" d="M141,38H19A19,19,0,0,1,0,19H0A19,19,0,0,1,19,0H141a19,19,0,0,1,19,19h0A19,19,0,0,1,141,38Z"/><path class="cls-2" d="M27.579,24.343a3.976,3.976,0,0,1-1.333-.2V23a3.052,3.052,0,0,0,1.292.294,1.948,1.948,0,0,0,1.207-.345,3.522,3.522,0,0,0,.9-1.3l-3.889-7.444h1.285L30,19.893a3.867,3.867,0,0,1,.267.656h.054a7.44,7.44,0,0,1,.267-.725l2.454-5.612h1.23l-3.192,7.15a9.231,9.231,0,0,1-1.036,1.86A2.9,2.9,0,0,1,29,24.073,3.355,3.355,0,0,1,27.579,24.343Z"/><path class="cls-2" d="M37.183,19.824q2.127,0,2.126-1.176,0-1.107-1.723-1.107a4.405,4.405,0,0,0-.957.1,7.363,7.363,0,0,0-1.128.382l-.4-.922a6.133,6.133,0,0,1,2.536-.52,3.457,3.457,0,0,1,2.037.53,1.68,1.68,0,0,1,.745,1.446,1.635,1.635,0,0,1-1.4,1.647v.055a2.538,2.538,0,0,1,1.258.721,1.752,1.752,0,0,1,.4,1.172,1.854,1.854,0,0,1-.837,1.617,4.028,4.028,0,0,1-2.314.578,5.256,5.256,0,0,1-2.5-.486V22.818a5.893,5.893,0,0,0,2.529.588,2.677,2.677,0,0,0,1.487-.338,1.1,1.1,0,0,0,.5-.974q0-1.307-2.126-1.306H36.37v-.964Z"/><path class="cls-2" d="M43.93,16.714v3.138h4.2V16.714h1.135v7.492H48.127V20.829h-4.2v3.377H42.8V16.714Z"/><path class="cls-2" d="M56.556,24.206,56.33,23.14h-.055a3.147,3.147,0,0,1-1.117.953,3.4,3.4,0,0,1-1.391.25,2.506,2.506,0,0,1-1.747-.574,2.1,2.1,0,0,1-.632-1.634q0-2.27,3.63-2.379l1.271-.041V19.25a1.9,1.9,0,0,0-.379-1.3,1.559,1.559,0,0,0-1.214-.421,4.946,4.946,0,0,0-2.119.575l-.348-.869a5.462,5.462,0,0,1,2.536-.642,2.853,2.853,0,0,1,1.985.594,2.484,2.484,0,0,1,.646,1.908v5.113Zm-2.564-.8a2.306,2.306,0,0,0,1.665-.581,2.151,2.151,0,0,0,.605-1.627v-.677l-1.135.048a4.123,4.123,0,0,0-1.952.421,1.266,1.266,0,0,0-.6,1.158,1.167,1.167,0,0,0,.373.937A1.545,1.545,0,0,0,53.992,23.406Z"/><path class="cls-2" d="M65.066,17.685H62.633v6.521H61.5V17.685H59.092v-.971h5.974Z"/><path class="cls-2" d="M67.964,19.81h2.311q2.871,0,2.871,2.113a2.028,2.028,0,0,1-.749,1.7,3.49,3.49,0,0,1-2.19.588H66.83V16.714h1.134Zm0,.978v2.468h2.188a2.516,2.516,0,0,0,1.381-.315,1.058,1.058,0,0,0,.478-.95,1.013,1.013,0,0,0-.441-.912,2.733,2.733,0,0,0-1.452-.291Z"/><path class="cls-2" d="M78.922,19.715a8.373,8.373,0,0,1,.724-3.839,3.246,3.246,0,0,1,2.3-1.719q1.956-.417,3.446-.677l.212,1q-2.373.4-3.391.629a2.223,2.223,0,0,0-1.487,1.067,4.822,4.822,0,0,0-.543,2.29h.082a2.945,2.945,0,0,1,1.093-.9,3.16,3.16,0,0,1,1.4-.328,2.692,2.692,0,0,1,2.153.9,3.676,3.676,0,0,1,.773,2.481,3.939,3.939,0,0,1-.9,2.745,3.2,3.2,0,0,1-2.5.988,2.911,2.911,0,0,1-2.475-1.21A5.66,5.66,0,0,1,78.922,19.715ZM82.4,23.393q2.085,0,2.084-2.66,0-2.536-1.893-2.536a2.429,2.429,0,0,0-1,.216,3.42,3.42,0,0,0-.881.57,3.031,3.031,0,0,0-.619.732,5.365,5.365,0,0,0,.567,2.738A1.9,1.9,0,0,0,82.4,23.393Z"/><path class="cls-2" d="M94.405,20.453a4.131,4.131,0,0,1-.923,2.861,3.249,3.249,0,0,1-2.549,1.029,3.385,3.385,0,0,1-1.785-.472,3.12,3.12,0,0,1-1.2-1.353,4.726,4.726,0,0,1-.424-2.065,4.13,4.13,0,0,1,.916-2.854,3.242,3.242,0,0,1,2.543-1.022,3.171,3.171,0,0,1,2.5,1.046A4.113,4.113,0,0,1,94.405,20.453Zm-5.708,0a3.565,3.565,0,0,0,.574,2.188,2.279,2.279,0,0,0,3.381,0,3.538,3.538,0,0,0,.577-2.191,3.479,3.479,0,0,0-.577-2.17,2.029,2.029,0,0,0-1.706-.742,2,2,0,0,0-1.681.731A3.517,3.517,0,0,0,88.7,20.453Z"/><path class="cls-2" d="M102.259,24.206h-1.148V17.685H98.862a27.211,27.211,0,0,1-.513,3.862,5.393,5.393,0,0,1-.851,2.092,1.624,1.624,0,0,1-1.33.663,1.729,1.729,0,0,1-.587-.082v-.841a1.312,1.312,0,0,0,.341.041q.786,0,1.251-1.661a27.366,27.366,0,0,0,.7-5.045h4.382Z"/><path class="cls-2" d="M106.08,19.81h2.311q2.871,0,2.871,2.113a2.028,2.028,0,0,1-.749,1.7,3.491,3.491,0,0,1-2.191.588h-3.377V16.714h1.135Zm0,.978v2.468h2.188a2.51,2.51,0,0,0,1.38-.315,1.059,1.059,0,0,0,.479-.95,1.013,1.013,0,0,0-.441-.912,2.735,2.735,0,0,0-1.453-.291Z"/><path class="cls-2" d="M119.1,23.228h3.322V16.714h1.148v7.492H113.511V16.714h1.135v6.514h3.315V16.714H119.1Z"/><path class="cls-2" d="M129.417,24.343a3.443,3.443,0,0,1-2.621-1.012,3.918,3.918,0,0,1-.961-2.81,4.339,4.339,0,0,1,.893-2.877,2.962,2.962,0,0,1,2.4-1.067,2.827,2.827,0,0,1,2.228.926,3.55,3.55,0,0,1,.82,2.444v.718h-5.161a2.971,2.971,0,0,0,.667,2,2.306,2.306,0,0,0,1.78.684,6.042,6.042,0,0,0,2.393-.506v1.011a5.928,5.928,0,0,1-1.138.373A6.416,6.416,0,0,1,129.417,24.343Zm-.307-6.816a1.853,1.853,0,0,0-1.439.588,2.709,2.709,0,0,0-.632,1.627h3.917a2.5,2.5,0,0,0-.479-1.644A1.686,1.686,0,0,0,129.11,17.527Z"/></g></g></svg>