<svg xmlns="http://www.w3.org/2000/svg" width="21.482" height="18" viewBox="0 0 21.482 18"><defs><style>.cls-1{fill:#f6fafd;}</style></defs><title>komm-ballun</title><g id="Layer_2" data-name="Layer 2"><g id="фото1_copy_2" data-name="фото1 copy 2"><path class="cls-1" d="M13.449.75A6.528,6.528,0,0,1,17.06,12.721l-.495.331.21.558a7.779,7.779,0,0,0,1.271,2.343,13.86,13.86,0,0,0,1,1.014,14.879,14.879,0,0,1-3.782-1.144A12.419,12.419,0,0,1,12.611,14L12.4,13.82H7.285a6.535,6.535,0,0,1,0-13.07h6.164m0-.75H7.285a7.285,7.285,0,0,0,0,14.57H12.12A13.22,13.22,0,0,0,14.939,16.5,18.823,18.823,0,0,0,21.482,18a20.785,20.785,0,0,1-2.873-2.542,7.263,7.263,0,0,1-1.132-2.113A7.278,7.278,0,0,0,13.449,0Z"/></g></g></svg>