<svg xmlns="http://www.w3.org/2000/svg" width="20" height="19" viewBox="0 0 20 19"><defs><style>.cls-1{fill:#a8a8a8;}</style></defs><title>press-CENTER_filterCALENDAR</title><g id="Layer_2" data-name="Layer 2"><g id="Layer_1-2" data-name="Layer 1"><path class="cls-1" d="M19.634,2h-4.94V.4a.409.409,0,0,0-.817,0V2H10.2V.4a.408.408,0,0,0-.816,0V2H5.714V.4A.408.408,0,0,0,4.9.4V2H.45A.42.42,0,0,0,0,2.372V18.578A.464.464,0,0,0,.45,19H19.634A.39.39,0,0,0,20,18.578V2.372A.345.345,0,0,0,19.634,2Zm-.45,16.206H.816V2.794H4.9V3.953a.408.408,0,0,0,.816,0V2.794H9.388V3.953a.408.408,0,0,0,.816,0V2.794h3.673V3.953a.409.409,0,0,0,.817,0V2.794h4.49V18.209Z"/><path class="cls-1" d="M4.694,5.861H3.061a.4.4,0,0,0-.408.4V7.838a.4.4,0,0,0,.408.4H4.694a.4.4,0,0,0,.408-.4V6.257A.4.4,0,0,0,4.694,5.861ZM4.286,7.442H3.469v-.79h.817Z"/><path class="cls-1" d="M8.775,5.861H7.143a.4.4,0,0,0-.408.4V7.838a.4.4,0,0,0,.408.4H8.775a.4.4,0,0,0,.409-.4V6.257A.4.4,0,0,0,8.775,5.861ZM8.367,7.442H7.551v-.79h.816Z"/><path class="cls-1" d="M12.857,5.861H11.224a.4.4,0,0,0-.408.4V7.838a.4.4,0,0,0,.408.4h1.633a.4.4,0,0,0,.408-.4V6.257A.4.4,0,0,0,12.857,5.861Zm-.408,1.581h-.816v-.79h.816Z"/><path class="cls-1" d="M16.939,5.861H15.306a.4.4,0,0,0-.408.4V7.838a.4.4,0,0,0,.408.4h1.633a.4.4,0,0,0,.408-.4V6.257A.4.4,0,0,0,16.939,5.861Zm-.408,1.581h-.817v-.79h.817Z"/><path class="cls-1" d="M4.694,9.814H3.061a.4.4,0,0,0-.408.395v1.582a.4.4,0,0,0,.408.395H4.694a.4.4,0,0,0,.408-.395V10.209A.4.4,0,0,0,4.694,9.814ZM4.286,11.4H3.469v-.79h.817Z"/><path class="cls-1" d="M8.775,9.814H7.143a.4.4,0,0,0-.408.395v1.582a.4.4,0,0,0,.408.395H8.775a.4.4,0,0,0,.409-.395V10.209A.4.4,0,0,0,8.775,9.814ZM8.367,11.4H7.551v-.79h.816Z"/><path class="cls-1" d="M12.857,9.814H11.224a.4.4,0,0,0-.408.395v1.582a.4.4,0,0,0,.408.395h1.633a.4.4,0,0,0,.408-.395V10.209A.4.4,0,0,0,12.857,9.814ZM12.449,11.4h-.816v-.79h.816Z"/><path class="cls-1" d="M16.939,9.814H15.306a.4.4,0,0,0-.408.395v1.582a.4.4,0,0,0,.408.395h1.633a.4.4,0,0,0,.408-.395V10.209A.4.4,0,0,0,16.939,9.814ZM16.531,11.4h-.817v-.79h.817Z"/><path class="cls-1" d="M4.694,13.767H3.061a.4.4,0,0,0-.408.4v1.581a.4.4,0,0,0,.408.4H4.694a.4.4,0,0,0,.408-.4V14.162A.4.4,0,0,0,4.694,13.767Zm-.408,1.581H3.469v-.79h.817Z"/><path class="cls-1" d="M8.775,13.767H7.143a.4.4,0,0,0-.408.4v1.581a.4.4,0,0,0,.408.4H8.775a.4.4,0,0,0,.409-.4V14.162A.4.4,0,0,0,8.775,13.767Zm-.408,1.581H7.551v-.79h.816Z"/><path class="cls-1" d="M12.857,13.767H11.224a.4.4,0,0,0-.408.4v1.581a.4.4,0,0,0,.408.4h1.633a.4.4,0,0,0,.408-.4V14.162A.4.4,0,0,0,12.857,13.767Zm-.408,1.581h-.816v-.79h.816Z"/><path class="cls-1" d="M16.939,13.767H15.306a.4.4,0,0,0-.408.4v1.581a.4.4,0,0,0,.408.4h1.633a.4.4,0,0,0,.408-.4V14.162A.4.4,0,0,0,16.939,13.767Zm-.408,1.581h-.817v-.79h.817Z"/></g></g></svg>