<svg xmlns="http://www.w3.org/2000/svg" width="20" height="18" viewBox="0 0 20 18">
  <title>print</title>
  <g id="Layer_2" data-name="Layer 2">
    <g id="Layer_1-2" data-name="Layer 1">
      <g id="print">
        <rect class="cls-1" x="16" y="7" width="2" height="2"/>
        <path class="cls-1" d="M15.3.7V3.3H4.7V.7H15.3M16,0H4V4H16V0Z"/>
        <path class="cls-1"
              d="M18,5.7A1.3,1.3,0,0,1,19.3,7v6.3H16V10.013H4.006V13.3H.7V7A1.3,1.3,0,0,1,2,5.7H18M18,5H2A2,2,0,0,0,0,7v7H4.706V10.713H15.3V14H20V7a2,2,0,0,0-2-2Z"/>
        <path class="cls-1" d="M15.3,10.7v6.6H4.7V10.7H15.3M16,10H4v8H16V10Z"/>
      </g>
    </g>
  </g>
</svg>
