<svg xmlns="http://www.w3.org/2000/svg" width="40" height="40" viewBox="0 0 40 40">
    <g>
        <g>
            <path d="M40 39.997H0v-40h40z"/>
        </g>
        <g>
            <path fill="#f7fafd" d="M29.163 28.093a.54.54 0 0 1-.38.918.54.54 0 0 1-.38-.16l-4.374-4.374a7.653 7.653 0 0 1-5.034 1.884c-4.232 0-7.677-3.445-7.677-7.675 0-4.231 3.44-7.675 7.677-7.675 4.23 0 7.676 3.44 7.676 7.675a7.648 7.648 0 0 1-1.884 5.033zm-16.771-9.407c0 3.64 2.962 6.6 6.599 6.6 3.64 0 6.598-2.965 6.598-6.6a6.606 6.606 0 0 0-6.598-6.598 6.606 6.606 0 0 0-6.6 6.598z"/>
        </g>
    </g>
</svg>
