<svg xmlns="http://www.w3.org/2000/svg" viewBox="0 0 30 30"><defs><style>.cls-1{fill:#40aaf0;}.cls-2{fill:#fff;fill-rule:evenodd;}</style></defs><title>TW</title><g id="Layer_2" data-name="Layer 2"><g id="фото1_copy_2" data-name="фото1 copy 2"><circle class="cls-1" cx="15" cy="15" r="15"/><path class="cls-2" d="M20.419,11.748a.525.525,0,0,0,.183-.042h.07v-.014h.07v-.014H20.8v-.014h.056V11.65h.07v-.014l.113-.014v-.014h.042v-.014h.042V11.58h.042v-.014l.1-.014v-.014h.028v-.014l.084-.014V11.5h.056v-.015h.028v-.014a.353.353,0,0,1,.154-.028l.014.042h.014a.453.453,0,0,0-.014.057l-.056.042v.028l-.056.042v.028l-.028.014v.028l-.07.056V11.8l-.1.084v.028l-.028.014a.284.284,0,0,0-.084.112h-.028a.626.626,0,0,1-.211.211l-.112.126h-.028l-.07.084h-.028l-.042.056h-.028l-.028.042H20.6l-.028.042h-.028l-.07.1a2.722,2.722,0,0,1-.014.729V13.7h-.014v.112h-.015v.1h-.014v.085h-.013v.07h-.015v.126c-.036.121-.057.274-.1.393v.056h-.014v.042h-.014c-.009.06-.019.121-.028.182h-.014v.028h-.014l-.028.168h-.014v.028h-.014l-.042.183H20.1V15.3h-.014v.042h-.014l-.028.126h-.014l-.014.056H20l-.028.126h-.014v.028h-.014l-.014.056h-.014l-.014.084h-.014l-.014.056h-.014V15.9h-.014v.042h-.014v.028h-.014V16l-.028.014v.042h-.015l-.013.07-.029.014v.028h-.014v.028H19.7l-.028.084-.028.014-.014.07H19.62v.028l-.028.014v.028h-.014v.028h-.014v.029H19.55v.028l-.028.014v.028h-.014v.028h-.014v.028H19.48v.028l-.042.028-.014.056H19.41v.028l-.028.014V16.8l-.028.014-.014.056-.028.014v.028l-.028.014v.028l-.042.028-.014.056-.028.014v.029l-.043.028v.027l-.028.015v.028l-.042.028v.028l-.028.014v.028L19,17.315v.028l-.042.028V17.4l-.042.028v.028l-.056.042v.028l-.056.042V17.6l-.112.1v.027l-.1.085v.028l-.141.126a2.6,2.6,0,0,1-.308.294l-.112.127h-.028l-.057.07h-.027l-.057.07h-.028l-.056.07h-.028l-.028.042H17.7l-.014.028h-.028l-.042.056h-.028l-.014.028h-.028l-.028.042h-.028l-.014.028-.042.014v.014h-.028l-.014.028h-.028l-.014.028h-.028l-.014.028h-.028l-.015.029h-.028l-.014.028L17.166,19l-.014.028-.042.014v.014l-.084.028V19.1l-.042.014-.014.028h-.028v.014h-.028v.014h-.028v.014h-.028v.014H16.83v.014l-.056.014-.014.028-.127.042-.014.028-.126.042-.014.028-.07.014v.014h-.042v.014l-.084.028v.014h-.028v.014l-.07.014v.014h-.028v.014l-.126.028v.014H16v.015l-.071.013v.014l-.14.029v.014h-.028v.014l-.14.028v.014h-.042v.014H15.54v.014H15.5v.014l-.211.042v.014h-.056v.014l-.14.014v.014h-.056v.014h-.042v.014l-.182.014v.014H14.74v.014l-.14.014v.014l-.28.014a2.63,2.63,0,0,1-.659.056,4.348,4.348,0,0,1-1.038-.056h-.154v-.014h-.112v-.014h-.07v-.014h-.071v-.014h-.07V19.9l-.168-.014v-.014h-.056v-.014h-.056v-.014H11.81v-.014l-.127-.014V19.8h-.042v-.014H11.6v-.014h-.07v-.014l-.1-.014v-.014h-.042v-.014h-.042V19.7h-.042v-.014h-.056v-.014h-.028v-.014h-.042v-.014h-.042v-.014L11.01,19.6v-.013h-.028v-.015l-.126-.028V19.53h-.028v-.014l-.056-.014v-.014l-.084-.014V19.46H10.66v-.014h-.028v-.014H10.6v-.014h-.042V19.4h-.028V19.39l-.084-.028v-.014h-.043v-.014h-.028V19.32h-.028l-.014-.028-.1-.028-.014-.028H10.2v-.014h-.028v-.014h-.028v-.014h-.028V19.18h-.028l-.014-.028h-.042v-.014H10l-.014-.028-.112-.056-.014-.07h.014v-.028c.018-.027.111-.015.154-.015h.449c.052-.042.229,0,.308-.028V18.9h.1v-.014H11v-.014l.169-.014v-.014h.07v-.014l.126-.014V18.8h.056v-.014h.07v-.014h.042v-.014h.042v-.014l.2-.042v-.014H11.8v-.014l.14-.028v-.014h.028v-.014l.126-.028v-.014l.056-.014v-.014h.028v-.014l.141-.042.014-.028h.042v-.014H12.4v-.014h.028v-.014h.028v-.014h.028V18.4h.028v-.014l.084-.029.014-.028.07-.014.014-.028.042-.014v-.014l.084-.028.014-.028h.028v-.014h.028l.015-.028h.028l.028-.042.056-.014.028-.042.056-.014.014-.028h.028V18a.18.18,0,0,1,.084-.042l.014-.056a.333.333,0,0,0-.2-.028c-.031-.027-.1-.014-.14-.028v-.014h-.1V17.82l-.112-.014v-.014h-.042v-.014h-.042v-.014l-.1-.014v-.014l-.056-.015v-.013l-.084-.014V17.68l-.084-.029v-.014h-.029v-.014l-.084-.028-.014-.028-.084-.028-.014-.028h-.028V17.5h-.028l-.014-.028h-.028l-.028-.042h-.028l-.014-.028h-.028l-.028-.042H11.81l-.056-.07h-.028l-.1-.112-.168-.155v-.028l-.042-.028v-.028l-.042-.028V16.88l-.042-.028v-.028l-.028-.014v-.028l-.042-.028-.028-.084-.028-.014-.014-.042h-.014l-.014-.07-.028-.014L11.1,16.4h-.014v-.028h-.014a.343.343,0,0,1-.028-.168.177.177,0,0,1,.112-.028c.035.032.163.014.224.014l.547-.014v-.014l.07-.014v-.042a.857.857,0,0,0-.1-.056h-.056v-.014l-.112-.014v-.014H11.7V16h-.029v-.014h-.028v-.014H11.6v-.014l-.056-.014v-.014h-.028v-.014l-.07-.014v-.014L11.4,15.87l-.014-.028-.084-.028-.014-.028h-.028v-.014h-.028l-.042-.056h-.028l-.014-.028h-.028l-.028-.042h-.028l-.043-.056H11l-.2-.21-.1-.084v-.028l-.056-.043V15.2l-.028-.015v-.028l-.056-.042-.014-.056-.042-.028-.028-.084h-.014L10.45,14.9l-.028-.014-.015-.07h-.014v-.028l-.028-.014v-.028h-.014l-.014-.084h-.014l-.028-.084h-.014v-.057h-.014V14.5h-.014l-.028-.14a2.191,2.191,0,0,1-.1-.659.228.228,0,0,1,.084-.014c.025.028.027.012.056.028v.014H10.3l.014.028h.028v.014h.042v.014h.043V13.8h.028v.014h.042v.014h.028v.014h.042v.014h.056v.014h.042v.014H10.7v.014h.056v.014h.07a1.083,1.083,0,0,0,.323.056l.014-.042h-.014c-.018-.067-.063-.063-.112-.1l-.029-.042h-.028l-.07-.084-.154-.14v-.028l-.07-.056v-.028l-.042-.028v-.028l-.028-.015v-.028l-.042-.028V13.29l-.028-.014v-.028l-.028-.014-.014-.042h-.014l-.028-.084-.029-.014v-.028h-.013v-.042h-.015V13l-.028-.014v-.028h-.014l-.014-.084h-.014v-.028h-.014l-.014-.056H10.3l-.014-.1h-.014v-.042h-.014V12.6h-.014v-.042h-.014v-.07h-.014v-.056H10.2v-.07h-.014v-.084h-.014v-.126a1.809,1.809,0,0,1,.028-.688l.042-.252h.014v-.028h.014l.014-.1H10.3v-.042h.014l.014-.056h.014l.014-.084h.014l.014-.057h.014c.043-.079.017-.151.141-.154l.056.084.028.014v.028l.028.014v.014l.07.057v.028l.182.168v.028l.028.014.07.084h.028l.015.028h.013l.169.182h.028l.112.127h.028l.056.07h.028l.056.07h.028l.042.056h.028l.014.028h.028l.014.028H11.7l.014.028h.028l.042.056h.028l.014.028h.028l.028.042.056.014.028.042h.028l.014.028h.028l.014.028.042.015v.014l.056.014.028.042H12.2l.014.028h.028v.014h.028l.015.028.084.028v.014l.042.014.014.028.084.028.014.028h.028v.014h.028v.014h.028v.014h.028l.014.028h.028v.014h.042v.014l.056.014.014.028h.028v.014h.042v.014h.028v.014h.028l.015.028h.028V12.6l.084.014.014.028.07.014v.014h.042v.014H13.2V12.7l.084.028v.014l.084.014v.014l.056.014V12.8l.127.028v.014h.042v.014h.028v.014h.042v.014h.056V12.9h.028v.014l.126.028v.014l.14.028c.226.085.5.112.743.182h.113c.079.023.187.032.266.056a1.922,1.922,0,0,0,.393.014c.038-.01.031,0,.042-.042h.014v-.014c-.03-.045-.012-.07-.028-.126a2.126,2.126,0,0,1-.028-.547l.056-.392H15.6L15.61,12h.014v-.028h.014l.014-.112h.014v-.042h.014l.014-.056h.014V11.72h.014v-.028h.014V11.65l.028-.014v-.028h.014V11.58h.014v-.042l.028-.014V11.5h.014v-.029h.014v-.028h.014v-.028l.042-.028.014-.056.028-.014v-.028l.042-.028L16,11.2l.056-.042v-.028l.084-.07v-.028l.07-.056.14-.155h.028l.056-.07h.028l.028-.042h.028l.028-.042.042-.014.014-.028.085-.028.028-.042h.028v-.014h.028v-.014H16.8v-.014h.028l.014-.028h.028v-.014H16.9v-.014h.042l.014-.028h.028v-.014l.084-.014v-.014l.084-.028v-.014l.112-.014v-.014h.043V10.3h.042V10.29h.042v-.014l.224-.028a1.647,1.647,0,0,1,.771,0h.084v.014h.07v.014h.085v.014h.042V10.3H18.7v.014l.154.028v.014l.056.014v.014l.084.014v.014l.084.028v.014H19.1v.014l.084.028.015.028.084.028.014.028.056.014.014.028H19.4l.028.042h.028l.014.028h.028l.014.028.042.014.056.07h.028l.056.07.113.1a1.032,1.032,0,0,0,.378-.085h.07v-.014l.084-.014V10.85h.028v-.014l.141-.028v-.014l.056-.014v-.014l.1-.014v-.014l.084-.028V10.7l.084-.014v-.014l.084-.028v-.014h.028v-.014h.042V10.6l.057-.014V10.57h.028l.014-.028h.042v-.014h.028v-.014h.028l.014-.028h.028a.567.567,0,0,0,.084-.07l.042.014a.228.228,0,0,1,.014.084h-.014l-.014.07L21.3,10.6v.042h-.014v.042h-.014v.028l-.028.014-.014.056h-.014v.042l-.028.014-.014.042h-.014l-.028.085-.042.028-.014.056-.042.028V11.1l-.029.014v.028l-.056.042v.028l-.084.07v.028l-.056.042-.1.112H20.7l-.014.029h-.028l-.056.07-.056.014-.028.042H20.49l-.014.028h-.028v.014l-.029.014Z"/></g></g></svg>