<svg xmlns="http://www.w3.org/2000/svg" width="70" height="70" viewBox="0 0 70 70"><defs><style>.cls-1{fill:#ffaa02;}.cls-2{fill:#e8e8e8;}</style></defs><title>up-pokoi</title><g id="Layer_2" data-name="Layer 2"><g id="фото1_copy_2" data-name="фото1 copy 2"><rect class="cls-1" width="70" height="70"/><path class="cls-2" d="M30.156,37.943l4.687-9.359,4.672,9.359Z"/><path class="cls-2" d="M21.238,55.943h-.912V52.248H16.189v3.7h-.912V48.092h.912v3.34h4.137v-3.34h.912Z"/><path class="cls-2" d="M28.328,55.943l-.978-2.5H24.2l-.967,2.5h-.924l3.105-7.884h.768l3.088,7.884Zm-1.262-3.318-.914-2.434q-.175-.462-.365-1.132a10.442,10.442,0,0,1-.338,1.132l-.924,2.434Z"/><path class="cls-2" d="M30.353,48.092h2.218a4.179,4.179,0,0,1,2.261.467,1.649,1.649,0,0,1,.7,1.476,1.707,1.707,0,0,1-.39,1.153,1.872,1.872,0,0,1-1.136.587v.055q1.788.3,1.788,1.879a2.024,2.024,0,0,1-.711,1.645,3.036,3.036,0,0,1-1.991.589H30.353Zm.912,3.361h1.5a2.448,2.448,0,0,0,1.392-.3,1.171,1.171,0,0,0,.424-1.023,1.037,1.037,0,0,0-.472-.953,2.959,2.959,0,0,0-1.5-.293H31.265Zm0,.774v2.938H32.9a2.326,2.326,0,0,0,1.431-.368,1.356,1.356,0,0,0,.481-1.152,1.224,1.224,0,0,0-.491-1.075,2.637,2.637,0,0,0-1.5-.343Z"/><path class="cls-2" d="M41.857,55.943H37.48V48.092h4.377v.81H38.392v2.53h3.256v.806H38.392v2.889h3.465Z"/><path class="cls-2" d="M48.576,50.379a2.2,2.2,0,0,1-.814,1.834,3.682,3.682,0,0,1-2.329.643h-.924v3.087H43.6V48.092h2.035Q48.575,48.092,48.576,50.379Zm-4.067,1.692h.823a3.06,3.06,0,0,0,1.755-.391,1.444,1.444,0,0,0,.543-1.258,1.358,1.358,0,0,0-.509-1.16,2.671,2.671,0,0,0-1.59-.381H44.509Z"/><path class="cls-2" d="M55.446,55.943H54.41L52.3,52.49,50.15,55.943h-.967l2.61-4.1-2.432-3.748h1.01L52.32,51.2l1.966-3.109h.971l-2.432,3.717Z"/></g></g></svg>