<svg xmlns="http://www.w3.org/2000/svg" width="50" height="50" viewBox="0 0 50 50"><defs><style>.cls-1{fill:#dde6ed;}.cls-2{fill:#fff;fill-rule:evenodd;}</style></defs><title>UserPic</title><g id="Layer_2" data-name="Layer 2"><g id="Layer_1-2" data-name="Layer 1"><rect class="cls-1" width="50" height="50"/><path class="cls-2" d="M24.378,10.627a6.688,6.688,0,0,1,2.116.2l.348.03a2.919,2.919,0,0,1,.29.173l.145.029a3.078,3.078,0,0,1,.7.58c.05.068.075.158.145.2.177.116.4.048.637.116a3.419,3.419,0,0,1,.348.174l.2.029c.045.025.1.119.145.145a3.405,3.405,0,0,1,1.681,2.319c.01.144.019.289.029.434.06.238.08.555.145.812a5.761,5.761,0,0,1,.259,1.478L31.478,18.4c-.035.125-.109.28-.145.405-.009.136-.019.271-.029.406-.051.2-.122.4-.174.58v.174a1.839,1.839,0,0,0-.173.637c.579.36.593,1.244.376,1.972-.009.115-.019.231-.029.347a3.825,3.825,0,0,1-.231.522,2.213,2.213,0,0,1-.435.435c-.157.092-.31.016-.377.2-.1.116-.037.281-.087.464-.032.117-.112.266-.145.376l-.029.29a5.951,5.951,0,0,1-1.391,2.348,11.46,11.46,0,0,0,.058,2.435c.06.251-.02.5.087.7a5.557,5.557,0,0,0,2.813,2.29l.348.058c.064.026.135.119.2.145l.2.029c.194.083.447.235.637.319l.377.087c.038.02.1.1.145.116l.261.058c.033.02.082.1.116.116l.2.029c.088.035.173.136.261.174l.173.029c.069.03.333.155.406.2l.087.116.261.087.058.087c.074.048.157.04.232.086.109.069.216.187.319.261h.058c.374.275.591.761.985,1.015v.029h-.029a1.123,1.123,0,0,1-.29.232l-.2.232H36.32c-.07.052-.124.116-.2.174l-.087.115c-.049.035-.1.023-.145.058L35.741,37c-.049.035-.1.023-.145.058-.109.078-.207.216-.319.29l-.174.058c-.109.073-.21.216-.319.29-.162.11-.324.156-.492.261-.226.142-.464.322-.7.464l-.261.087a2.646,2.646,0,0,1-.232.174l-.145.029L32.9,38.8c-.067.044-.123.023-.2.058s-.138.117-.2.145l-.289.058c-.034.018-.083.1-.116.116-.073.044-.149.022-.232.058-.2.087-.46.239-.667.319l-.348.058c-.07.027-.161.118-.232.145l-.232.029c-.092.032-.2.113-.289.145l-.377.058c-.11.037-.259.112-.377.145l-.377.029c-.111.031-.241.112-.348.145l-.434.029c-.215.054-.449.119-.667.174H27.1c-.233.055-.5.026-.754.087a6.22,6.22,0,0,1-1.275.058,9.358,9.358,0,0,1-2.058-.116l-.869-.058c-.649-.182-1.414-.286-2.029-.493l-.377-.058c-.084-.032-.2-.115-.29-.145l-.232-.029c-.07-.027-.161-.118-.232-.145l-.232-.029c-.1-.033-.2-.108-.29-.145l-.26-.058c-.068-.029-.139-.118-.2-.145l-.2-.029c-.06-.026-.12-.117-.174-.145L17.335,39c-.028-.012-.064-.073-.087-.087l-.261-.087c-.035-.021-.081-.094-.116-.115l-.261-.087c-.035-.022-.08-.1-.116-.116-.2-.12-.417-.166-.608-.29l-.058-.087a15.1,15.1,0,0,1-1.507-.957c-.039-.048-.078-.1-.116-.145-.139-.1-.267-.16-.406-.261l-.116-.144c-.078-.058-.133-.122-.2-.174h-.058l-.174-.2a1.276,1.276,0,0,1-.348-.29c.269-.15.43-.432.667-.609s.41-.355.638-.522l.087-.116c.064-.043.129-.018.2-.057.035-.019.083-.095.116-.116a4.811,4.811,0,0,1,.551-.261c.063-.03.11-.119.174-.145l.2-.029c.028-.013.064-.073.087-.087.1-.059.171-.039.29-.087.088-.035.173-.136.261-.174l.2-.029c.064-.027.135-.116.2-.145l.319-.058c.048-.021.1-.095.145-.116l.261-.058c.1-.042.21-.135.319-.174h.116c.068-.027.138-.119.2-.145L18.2,33c.066-.024.146-.115.2-.145l.26-.058c.069-.029.138-.115.2-.144a3.85,3.85,0,0,0,2.321-2.174,3.731,3.731,0,0,0,.058-1.073c0-.633.013-1.348,0-1.913a2.514,2.514,0,0,1-.7-.782c-.019-.058-.039-.117-.058-.174a7.464,7.464,0,0,1-.928-2.522,1.431,1.431,0,0,0-.2-.116l-.174-.029a2.191,2.191,0,0,1-.667-.928c-.019-.173-.039-.347-.058-.521a1.761,1.761,0,0,1-.116-.9c.021-.079.093-.2.116-.261.043-.121,0-.217.058-.319l.116-.087a.643.643,0,0,0,.232-.579,2.551,2.551,0,0,1-.2-.638V19.38c-.051-.192-.121-.415-.174-.637-.01-.242-.019-.483-.029-.725a6.74,6.74,0,0,1,.346-2.783c.01-.183.02-.367.029-.55.041-.161.13-.325.174-.464.01-.087.019-.174.029-.261a5.083,5.083,0,0,1,2.029-2.493c.089-.058.185-.04.29-.087.083-.037.173-.136.261-.174.146-.062.28-.131.406-.174L22.262,11c.056-.021.141-.1.2-.115l.58-.059c.076-.021.215-.093.29-.116C23.529,10.656,24.268,10.7,24.378,10.627Z"/></g></g></svg>