<svg xmlns="http://www.w3.org/2000/svg" width="980" height="80" viewBox="0 0 980 80"><defs><style>.cls-1{fill:#2a2a2a;}.cls-2,.cls-4{fill:none;}.cls-2{stroke:#fff;stroke-miterlimit:10;stroke-width:0.85px;}.cls-3,.cls-9{fill:#fff;}.cls-5{fill:gray;}.cls-6{fill:#2a87ce;}.cls-7{fill:#6f6f6e;}.cls-8{fill:#40aaf0;}.cls-9{font-size:13px;font-family:MyriadPro-Regular, Myriad Pro;}</style></defs><title>video-timeline</title><g id="Layer_2" data-name="Layer 2"><g id="фото1_copy_2" data-name="фото1 copy 2"><rect class="cls-1" width="980" height="80"/><path class="cls-2" d="M112.128,58.5a6.5,6.5,0,0,0,0-13"/><path class="cls-2" d="M112,55a3.01,3.01,0,1,0,0-6"/><path class="cls-3" d="M109.15,47.09v9.995l-3.363-2.744-.234-.191h-2.7v-4.3h3.362l.245-.23,2.693-2.53m.85-1.965L105.875,49H102v6h3.25L110,58.875V45.125Z"/><rect class="cls-4" x="102" y="43" width="17" height="17"/><polygon class="cls-3" points="75 46 75 58 84 52 75 46"/><rect class="cls-4" x="70" y="43" width="17" height="17"/><rect class="cls-5" x="70" y="24" width="840" height="2"/><rect class="cls-6" x="70" y="24" width="220" height="2"/><rect class="cls-3" x="891" y="46" width="6" height="2" transform="translate(941 -847) rotate(90)"/><rect class="cls-3" x="893" y="44" width="6" height="2"/><rect class="cls-3" x="903" y="44" width="6" height="2" transform="translate(1812 90) rotate(180)"/><rect class="cls-3" x="905" y="46" width="6" height="2" transform="translate(955 -861) rotate(90)"/><rect class="cls-3" x="905" y="56" width="6" height="2" transform="translate(851 965) rotate(-90)"/><rect class="cls-3" x="903" y="58" width="6" height="2" transform="translate(1812 118) rotate(180)"/><rect class="cls-3" x="893" y="58" width="6" height="2"/><rect class="cls-3" x="891" y="56" width="6" height="2" transform="translate(837 951) rotate(-90)"/><rect class="cls-4" x="893" y="43" width="17" height="17"/><rect class="cls-7" x="140" y="52" width="100" height="1"/><rect class="cls-6" x="140" y="52" width="50" height="1"/><circle class="cls-8" cx="190.5" cy="52.5" r="4.5"/><circle class="cls-8" cx="290" cy="25" r="8"/><text class="cls-9" transform="translate(805 56)"><tspan xml:space="preserve">5:25  /  17:48</tspan></text></g></g></svg>