<svg xmlns="http://www.w3.org/2000/svg" viewBox="0 0 64 46"><defs><style>.cls-1{fill:#f00f00;}.cls-1,.cls-2{fill-rule:evenodd;}.cls-2{fill:#fff;}</style></defs><title>Asset 42</title><g id="Layer_2" data-name="Layer 2"><g id="фото1_copy_2" data-name="фото1 copy 2"><path class="cls-1" d="M54.326,45.1a276.677,276.677,0,0,1-44.652,0A10.494,10.494,0,0,1,.9,36.615a103.007,103.007,0,0,1,0-27.23A10.5,10.5,0,0,1,9.674.9,276.677,276.677,0,0,1,54.326.9,10.5,10.5,0,0,1,63.1,9.385a103.007,103.007,0,0,1,0,27.23A10.5,10.5,0,0,1,54.326,45.1Z"/><polygon class="cls-2" points="24.64 14.636 24.64 31.364 41.707 23 24.64 14.636"/></g></g></svg>