<svg xmlns="http://www.w3.org/2000/svg" viewBox="0 0 30 30"><defs><style>.cls-1,.cls-3{fill:#40aaf0;}.cls-2{fill:#fff;}.cls-2,.cls-3{fill-rule:evenodd;}</style></defs><title>YOU</title><g id="Layer_2" data-name="Layer 2"><g id="фото1_copy_2" data-name="фото1 copy 2"><circle class="cls-1" cx="15" cy="15" r="15"/><path class="cls-2" d="M19.884,19.834a60.564,60.564,0,0,1-9.768,0A2.3,2.3,0,0,1,8.2,17.978a22.494,22.494,0,0,1,0-5.956,2.3,2.3,0,0,1,1.918-1.856,60.564,60.564,0,0,1,9.768,0A2.3,2.3,0,0,1,21.8,12.022a22.494,22.494,0,0,1,0,5.956A2.3,2.3,0,0,1,19.884,19.834Z"/><polygon class="cls-3" points="13.39 13.171 13.39 16.829 17.123 15 13.39 13.171"/></g></g></svg>